%TF.GenerationSoftware,KiCad,Pcbnew,(6.0.1)*%
%TF.CreationDate,2022-05-20T16:10:24+03:00*%
%TF.ProjectId,STM32_based_project,53544d33-325f-4626-9173-65645f70726f,rev?*%
%TF.SameCoordinates,Original*%
%TF.FileFunction,Copper,L3,Inr*%
%TF.FilePolarity,Positive*%
%FSLAX46Y46*%
G04 Gerber Fmt 4.6, Leading zero omitted, Abs format (unit mm)*
G04 Created by KiCad (PCBNEW (6.0.1)) date 2022-05-20 16:10:24*
%MOMM*%
%LPD*%
G01*
G04 APERTURE LIST*
G04 Aperture macros list*
%AMRoundRect*
0 Rectangle with rounded corners*
0 $1 Rounding radius*
0 $2 $3 $4 $5 $6 $7 $8 $9 X,Y pos of 4 corners*
0 Add a 4 corners polygon primitive as box body*
4,1,4,$2,$3,$4,$5,$6,$7,$8,$9,$2,$3,0*
0 Add four circle primitives for the rounded corners*
1,1,$1+$1,$2,$3*
1,1,$1+$1,$4,$5*
1,1,$1+$1,$6,$7*
1,1,$1+$1,$8,$9*
0 Add four rect primitives between the rounded corners*
20,1,$1+$1,$2,$3,$4,$5,0*
20,1,$1+$1,$4,$5,$6,$7,0*
20,1,$1+$1,$6,$7,$8,$9,0*
20,1,$1+$1,$8,$9,$2,$3,0*%
G04 Aperture macros list end*
%TA.AperFunction,ComponentPad*%
%ADD10C,0.900000*%
%TD*%
%TA.AperFunction,ComponentPad*%
%ADD11C,8.600000*%
%TD*%
%TA.AperFunction,ComponentPad*%
%ADD12RoundRect,0.200000X0.200000X0.450000X-0.200000X0.450000X-0.200000X-0.450000X0.200000X-0.450000X0*%
%TD*%
%TA.AperFunction,ComponentPad*%
%ADD13O,0.800000X1.300000*%
%TD*%
%TA.AperFunction,ComponentPad*%
%ADD14R,2.400000X2.400000*%
%TD*%
%TA.AperFunction,ComponentPad*%
%ADD15C,2.400000*%
%TD*%
%TA.AperFunction,ComponentPad*%
%ADD16RoundRect,0.200000X-0.200000X-0.450000X0.200000X-0.450000X0.200000X0.450000X-0.200000X0.450000X0*%
%TD*%
%TA.AperFunction,ViaPad*%
%ADD17C,0.800000*%
%TD*%
G04 APERTURE END LIST*
D10*
%TO.N,GND*%
%TO.C,H2*%
X132780419Y-69780419D03*
X133725000Y-67500000D03*
X128219581Y-69780419D03*
D11*
X130500000Y-67500000D03*
D10*
X130500000Y-70725000D03*
X132780419Y-65219581D03*
X128219581Y-65219581D03*
X127275000Y-67500000D03*
X130500000Y-64275000D03*
%TD*%
D11*
%TO.N,GND*%
%TO.C,H3*%
X85000000Y-67500000D03*
D10*
X82719581Y-65219581D03*
X85000000Y-70725000D03*
X87280419Y-65219581D03*
X81775000Y-67500000D03*
X88225000Y-67500000D03*
X87280419Y-69780419D03*
X82719581Y-69780419D03*
X85000000Y-64275000D03*
%TD*%
%TO.N,GND*%
%TO.C,H1*%
X82719581Y-110280419D03*
X87280419Y-110280419D03*
X85000000Y-104775000D03*
X81775000Y-108000000D03*
D11*
X85000000Y-108000000D03*
D10*
X87280419Y-105719581D03*
X82719581Y-105719581D03*
X85000000Y-111225000D03*
X88225000Y-108000000D03*
%TD*%
D11*
%TO.N,GND*%
%TO.C,H4*%
X130500000Y-108500000D03*
D10*
X132780419Y-110780419D03*
X130500000Y-105275000D03*
X128219581Y-106219581D03*
X130500000Y-111725000D03*
X133725000Y-108500000D03*
X128219581Y-110780419D03*
X132780419Y-106219581D03*
X127275000Y-108500000D03*
%TD*%
D12*
%TO.N,+3V3*%
%TO.C,J4*%
X99375000Y-67700000D03*
D13*
%TO.N,I2C1_SCL*%
X98125000Y-67700000D03*
%TO.N,I2C1_SDA*%
X96875000Y-67700000D03*
%TO.N,GND*%
X95625000Y-67700000D03*
%TD*%
D14*
%TO.N,+12V*%
%TO.C,J1*%
X130800000Y-92750000D03*
D15*
%TO.N,GND*%
X130800000Y-89250000D03*
%TD*%
D16*
%TO.N,+3V3*%
%TO.C,J3*%
X95625000Y-108000000D03*
D13*
%TO.N,UART3_TX*%
X96875000Y-108000000D03*
%TO.N,UART3_RX*%
X98125000Y-108000000D03*
%TO.N,GND*%
X99375000Y-108000000D03*
%TD*%
D17*
%TO.N,GND*%
X114000000Y-92500000D03*
X113500000Y-104500000D03*
X129750000Y-76000000D03*
X113500000Y-103250000D03*
X104750000Y-100000000D03*
X84000000Y-92000000D03*
X124000000Y-92250000D03*
X93750000Y-100000000D03*
X90000000Y-86800000D03*
X121000000Y-91500000D03*
X106000000Y-85250000D03*
X128742714Y-76988615D03*
X89000000Y-92750000D03*
X114000000Y-91500000D03*
X90000000Y-92750000D03*
X113500000Y-107750000D03*
X124000000Y-85750000D03*
X84750000Y-81250000D03*
X129750000Y-77000000D03*
X126000000Y-97250000D03*
X110250000Y-64500000D03*
X128750000Y-76000000D03*
X119000000Y-91500000D03*
X109000000Y-64500000D03*
X125000000Y-96250000D03*
X126000000Y-76250000D03*
X124000000Y-88250000D03*
X113500000Y-106000000D03*
X95250000Y-84000000D03*
X85000000Y-94000000D03*
X106500000Y-64500000D03*
X87500000Y-87750000D03*
X90000000Y-97250000D03*
X88250000Y-89500000D03*
X105250000Y-98000000D03*
X117250000Y-70000000D03*
X117000000Y-96200000D03*
X116996508Y-99496002D03*
X117000000Y-98500000D03*
X89250000Y-84000000D03*
X105000000Y-84750000D03*
X125000000Y-93250000D03*
%TO.N,+3V3*%
X95250000Y-81000000D03*
X110750000Y-107000000D03*
X107250000Y-100250000D03*
X117250000Y-68000000D03*
X108500000Y-107000000D03*
X110750000Y-104000000D03*
X91750000Y-83000000D03*
X103750000Y-86500000D03*
X87500000Y-96750000D03*
X107250000Y-101250000D03*
X93500000Y-83250000D03*
X120000000Y-98750000D03*
X111500000Y-64500000D03*
X110750000Y-100250000D03*
X96250000Y-100000000D03*
X108500000Y-104000000D03*
X87500000Y-95250000D03*
X110750000Y-101250000D03*
X103000000Y-98750000D03*
X84750000Y-76750000D03*
X90000000Y-89250000D03*
X100500000Y-81000000D03*
X121000000Y-99750000D03*
%TO.N,NRST*%
X101500000Y-80250000D03*
X100750000Y-88250000D03*
%TD*%
%TA.AperFunction,Conductor*%
%TO.N,+3V3*%
G36*
X129748225Y-62528002D02*
G01*
X129794718Y-62581658D01*
X129804822Y-62651932D01*
X129775328Y-62716512D01*
X129715602Y-62754896D01*
X129700793Y-62758290D01*
X129499249Y-62791836D01*
X129446331Y-62805571D01*
X129087400Y-62898731D01*
X129087389Y-62898734D01*
X129084682Y-62899437D01*
X128885459Y-62970573D01*
X128683964Y-63042520D01*
X128683959Y-63042522D01*
X128681321Y-63043464D01*
X128678781Y-63044635D01*
X128678776Y-63044637D01*
X128576930Y-63091589D01*
X128292361Y-63222777D01*
X127920880Y-63435957D01*
X127918577Y-63437566D01*
X127918570Y-63437571D01*
X127586859Y-63669406D01*
X127569820Y-63681315D01*
X127241961Y-63956909D01*
X126939899Y-64260557D01*
X126666025Y-64589855D01*
X126664431Y-64592162D01*
X126664429Y-64592164D01*
X126467374Y-64877279D01*
X126422508Y-64942194D01*
X126211276Y-65314786D01*
X126034002Y-65704680D01*
X126033080Y-65707306D01*
X126033075Y-65707318D01*
X126004317Y-65789210D01*
X125892089Y-66108790D01*
X125786661Y-66523914D01*
X125718552Y-66946768D01*
X125688302Y-67374001D01*
X125696151Y-67802233D01*
X125742036Y-68228071D01*
X125742582Y-68230817D01*
X125742583Y-68230822D01*
X125756612Y-68301351D01*
X125825594Y-68648144D01*
X125946163Y-69059127D01*
X125947190Y-69061740D01*
X125947190Y-69061741D01*
X126085651Y-69414145D01*
X126102789Y-69457765D01*
X126104044Y-69460276D01*
X126278827Y-69810072D01*
X126294231Y-69840901D01*
X126518974Y-70205502D01*
X126775239Y-70548682D01*
X126777100Y-70550760D01*
X126777101Y-70550761D01*
X127059127Y-70865637D01*
X127059133Y-70865643D01*
X127060995Y-70867722D01*
X127373981Y-71160098D01*
X127711719Y-71423493D01*
X128071533Y-71655822D01*
X128074012Y-71657126D01*
X128074015Y-71657128D01*
X128448077Y-71853932D01*
X128448083Y-71853935D01*
X128450577Y-71855247D01*
X128453175Y-71856331D01*
X128453179Y-71856333D01*
X128843263Y-72019109D01*
X128843268Y-72019111D01*
X128845847Y-72020187D01*
X128848512Y-72021030D01*
X128848518Y-72021032D01*
X129070561Y-72091254D01*
X129254214Y-72149336D01*
X129672446Y-72241673D01*
X129675220Y-72242031D01*
X129675221Y-72242031D01*
X130094460Y-72296109D01*
X130094467Y-72296110D01*
X130097230Y-72296466D01*
X130100017Y-72296576D01*
X130100023Y-72296576D01*
X130348238Y-72306328D01*
X130525203Y-72313281D01*
X130527995Y-72313142D01*
X130528000Y-72313142D01*
X130950172Y-72292125D01*
X130950181Y-72292124D01*
X130952976Y-72291985D01*
X130955753Y-72291597D01*
X130955755Y-72291597D01*
X131030066Y-72281219D01*
X131377163Y-72232747D01*
X131794404Y-72136036D01*
X132008307Y-72065915D01*
X132198744Y-72003487D01*
X132198750Y-72003485D01*
X132201397Y-72002617D01*
X132594918Y-71833547D01*
X132971852Y-71630164D01*
X133329214Y-71394080D01*
X133664175Y-71127162D01*
X133974082Y-70831525D01*
X133975919Y-70829431D01*
X133975927Y-70829422D01*
X134254635Y-70511616D01*
X134256482Y-70509510D01*
X134509139Y-70163666D01*
X134603722Y-70006565D01*
X134728601Y-69799142D01*
X134728606Y-69799133D01*
X134730052Y-69796731D01*
X134917471Y-69411611D01*
X135002826Y-69187502D01*
X135068918Y-69013971D01*
X135068920Y-69013964D01*
X135069914Y-69011355D01*
X135186173Y-68599132D01*
X135242170Y-68301351D01*
X135274417Y-68238100D01*
X135335741Y-68202324D01*
X135406672Y-68205382D01*
X135464689Y-68246302D01*
X135491374Y-68312093D01*
X135492000Y-68324637D01*
X135492000Y-107659491D01*
X135471998Y-107727612D01*
X135418342Y-107774105D01*
X135348068Y-107784209D01*
X135283488Y-107754715D01*
X135245104Y-107694989D01*
X135241121Y-107676264D01*
X135238868Y-107659491D01*
X135237275Y-107647630D01*
X135220190Y-107572121D01*
X135143368Y-107232618D01*
X135143368Y-107232617D01*
X135142750Y-107229887D01*
X135102390Y-107104557D01*
X135012318Y-106824856D01*
X135012316Y-106824849D01*
X135011463Y-106822202D01*
X134844456Y-106427801D01*
X134643050Y-106049807D01*
X134610519Y-106000000D01*
X134410381Y-105693573D01*
X134410378Y-105693569D01*
X134408840Y-105691214D01*
X134143680Y-105354860D01*
X133849670Y-105043409D01*
X133847579Y-105041556D01*
X133847571Y-105041548D01*
X133531237Y-104761188D01*
X133531235Y-104761186D01*
X133529137Y-104759327D01*
X133435179Y-104689928D01*
X133407101Y-104669189D01*
X133184621Y-104504863D01*
X132991733Y-104387355D01*
X132821237Y-104283487D01*
X132821230Y-104283483D01*
X132818848Y-104282032D01*
X132769419Y-104257656D01*
X132437228Y-104093838D01*
X132434714Y-104092598D01*
X132035262Y-103938062D01*
X131745486Y-103854696D01*
X131626335Y-103820417D01*
X131626329Y-103820415D01*
X131623654Y-103819646D01*
X131620917Y-103819117D01*
X131620911Y-103819115D01*
X131454629Y-103786944D01*
X131203148Y-103738289D01*
X131200374Y-103738005D01*
X131200362Y-103738003D01*
X130917111Y-103708982D01*
X130777076Y-103694634D01*
X130774286Y-103694597D01*
X130774278Y-103694597D01*
X130506825Y-103691096D01*
X130348809Y-103689028D01*
X130346009Y-103689241D01*
X130346008Y-103689241D01*
X130271364Y-103694919D01*
X129921740Y-103721514D01*
X129499249Y-103791836D01*
X129477188Y-103797562D01*
X129087400Y-103898731D01*
X129087389Y-103898734D01*
X129084682Y-103899437D01*
X128826575Y-103991599D01*
X128683964Y-104042520D01*
X128683959Y-104042522D01*
X128681321Y-104043464D01*
X128678781Y-104044635D01*
X128678776Y-104044637D01*
X128576930Y-104091589D01*
X128292361Y-104222777D01*
X127920880Y-104435957D01*
X127918577Y-104437566D01*
X127918570Y-104437571D01*
X127764218Y-104545449D01*
X127569820Y-104681315D01*
X127241961Y-104956909D01*
X126939899Y-105260557D01*
X126666025Y-105589855D01*
X126664431Y-105592162D01*
X126664429Y-105592164D01*
X126432456Y-105927801D01*
X126422508Y-105942194D01*
X126211276Y-106314786D01*
X126034002Y-106704680D01*
X126033080Y-106707306D01*
X126033075Y-106707318D01*
X125964034Y-106903921D01*
X125892089Y-107108790D01*
X125891398Y-107111510D01*
X125891397Y-107111514D01*
X125862009Y-107227229D01*
X125786661Y-107523914D01*
X125718552Y-107946768D01*
X125688302Y-108374001D01*
X125696151Y-108802233D01*
X125742036Y-109228071D01*
X125825594Y-109648144D01*
X125946163Y-110059127D01*
X125947190Y-110061740D01*
X125947190Y-110061741D01*
X126040466Y-110299142D01*
X126102789Y-110457765D01*
X126294231Y-110840901D01*
X126518974Y-111205502D01*
X126775239Y-111548682D01*
X126777100Y-111550760D01*
X126777101Y-111550761D01*
X127059127Y-111865637D01*
X127059133Y-111865643D01*
X127060995Y-111867722D01*
X127373981Y-112160098D01*
X127711719Y-112423493D01*
X128071533Y-112655822D01*
X128074012Y-112657126D01*
X128074015Y-112657128D01*
X128448077Y-112853932D01*
X128448083Y-112853935D01*
X128450577Y-112855247D01*
X128453175Y-112856331D01*
X128453179Y-112856333D01*
X128843263Y-113019109D01*
X128843268Y-113019111D01*
X128845847Y-113020187D01*
X128848512Y-113021030D01*
X128848518Y-113021032D01*
X129070561Y-113091254D01*
X129254214Y-113149336D01*
X129256944Y-113149939D01*
X129256945Y-113149939D01*
X129458459Y-113194429D01*
X129672446Y-113241673D01*
X129674449Y-113241931D01*
X129738005Y-113273295D01*
X129774579Y-113334146D01*
X129772448Y-113405111D01*
X129732289Y-113463658D01*
X129666852Y-113491200D01*
X129652672Y-113492000D01*
X85049328Y-113492000D01*
X85029943Y-113490500D01*
X85015142Y-113488195D01*
X85015139Y-113488195D01*
X85006270Y-113486814D01*
X84985361Y-113489548D01*
X84963824Y-113490504D01*
X84774907Y-113482690D01*
X84551680Y-113473457D01*
X84541302Y-113472597D01*
X84265547Y-113438224D01*
X84101215Y-113417740D01*
X84090950Y-113416028D01*
X83923539Y-113380925D01*
X83656899Y-113325016D01*
X83646804Y-113322460D01*
X83221740Y-113195914D01*
X83211890Y-113192532D01*
X82953531Y-113091720D01*
X82798739Y-113031319D01*
X82789218Y-113027144D01*
X82390777Y-112832358D01*
X82381621Y-112827403D01*
X82329887Y-112796576D01*
X82082785Y-112649336D01*
X82000641Y-112600389D01*
X81991922Y-112594693D01*
X81630988Y-112336990D01*
X81622770Y-112330594D01*
X81284335Y-112043955D01*
X81276674Y-112036901D01*
X80963099Y-111723326D01*
X80956045Y-111715665D01*
X80669406Y-111377230D01*
X80663010Y-111369012D01*
X80405307Y-111008078D01*
X80399611Y-110999359D01*
X80199582Y-110663666D01*
X80172596Y-110618377D01*
X80167641Y-110609221D01*
X80093599Y-110457765D01*
X79972856Y-110210782D01*
X79968677Y-110201253D01*
X79807468Y-109788110D01*
X79804086Y-109778260D01*
X79677540Y-109353196D01*
X79674984Y-109343101D01*
X79604273Y-109005869D01*
X79583972Y-108909050D01*
X79582259Y-108898781D01*
X79580364Y-108883574D01*
X79538011Y-108543803D01*
X79527403Y-108458698D01*
X79526543Y-108448320D01*
X79509805Y-108043639D01*
X79511197Y-108019049D01*
X79511804Y-108015147D01*
X79511804Y-108015145D01*
X79513186Y-108006270D01*
X79511547Y-107993730D01*
X79509064Y-107974749D01*
X79508000Y-107958411D01*
X79508000Y-107874001D01*
X80188302Y-107874001D01*
X80196151Y-108302233D01*
X80242036Y-108728071D01*
X80242582Y-108730817D01*
X80242583Y-108730822D01*
X80256788Y-108802233D01*
X80325594Y-109148144D01*
X80446163Y-109559127D01*
X80447190Y-109561740D01*
X80447190Y-109561741D01*
X80585651Y-109914145D01*
X80602789Y-109957765D01*
X80652091Y-110056433D01*
X80772161Y-110296731D01*
X80794231Y-110340901D01*
X81018974Y-110705502D01*
X81275239Y-111048682D01*
X81277100Y-111050760D01*
X81277101Y-111050761D01*
X81559127Y-111365637D01*
X81559133Y-111365643D01*
X81560995Y-111367722D01*
X81873981Y-111660098D01*
X82211719Y-111923493D01*
X82571533Y-112155822D01*
X82574012Y-112157126D01*
X82574015Y-112157128D01*
X82948077Y-112353932D01*
X82948083Y-112353935D01*
X82950577Y-112355247D01*
X82953175Y-112356331D01*
X82953179Y-112356333D01*
X83343263Y-112519109D01*
X83343268Y-112519111D01*
X83345847Y-112520187D01*
X83348512Y-112521030D01*
X83348518Y-112521032D01*
X83570561Y-112591254D01*
X83754214Y-112649336D01*
X84172446Y-112741673D01*
X84175220Y-112742031D01*
X84175221Y-112742031D01*
X84594460Y-112796109D01*
X84594467Y-112796110D01*
X84597230Y-112796466D01*
X84600017Y-112796576D01*
X84600023Y-112796576D01*
X84848238Y-112806328D01*
X85025203Y-112813281D01*
X85027995Y-112813142D01*
X85028000Y-112813142D01*
X85450172Y-112792125D01*
X85450181Y-112792124D01*
X85452976Y-112791985D01*
X85455753Y-112791597D01*
X85455755Y-112791597D01*
X85581475Y-112774040D01*
X85877163Y-112732747D01*
X86294404Y-112636036D01*
X86508307Y-112565915D01*
X86698744Y-112503487D01*
X86698750Y-112503485D01*
X86701397Y-112502617D01*
X87094918Y-112333547D01*
X87471852Y-112130164D01*
X87829214Y-111894080D01*
X88164175Y-111627162D01*
X88474082Y-111331525D01*
X88475919Y-111329431D01*
X88475927Y-111329422D01*
X88754635Y-111011616D01*
X88756482Y-111009510D01*
X88760625Y-111003840D01*
X89007490Y-110665923D01*
X89009139Y-110663666D01*
X89180340Y-110379303D01*
X89228601Y-110299142D01*
X89228606Y-110299133D01*
X89230052Y-110296731D01*
X89346993Y-110056433D01*
X89416238Y-109914145D01*
X89416239Y-109914142D01*
X89417471Y-109911611D01*
X89550724Y-109561741D01*
X89568918Y-109513971D01*
X89568920Y-109513964D01*
X89569914Y-109511355D01*
X89686173Y-109099132D01*
X89686747Y-109096079D01*
X89764811Y-108680954D01*
X89764813Y-108680942D01*
X89765327Y-108678207D01*
X89782283Y-108503705D01*
X94717001Y-108503705D01*
X94717264Y-108509454D01*
X94723132Y-108573315D01*
X94725743Y-108586351D01*
X94772715Y-108736243D01*
X94778921Y-108749988D01*
X94859824Y-108883574D01*
X94869131Y-108895443D01*
X94979557Y-109005869D01*
X94991426Y-109015176D01*
X95125012Y-109096079D01*
X95138757Y-109102285D01*
X95288644Y-109149256D01*
X95301694Y-109151869D01*
X95356586Y-109156913D01*
X95368124Y-109153525D01*
X95369329Y-109152135D01*
X95371000Y-109144452D01*
X95371000Y-109139884D01*
X95879000Y-109139884D01*
X95883475Y-109155123D01*
X95884865Y-109156328D01*
X95889294Y-109157291D01*
X95948315Y-109151868D01*
X95961351Y-109149257D01*
X96111243Y-109102285D01*
X96124988Y-109096079D01*
X96254578Y-109017596D01*
X96323208Y-108999417D01*
X96393911Y-109023436D01*
X96418248Y-109041118D01*
X96424276Y-109043802D01*
X96424278Y-109043803D01*
X96555632Y-109102285D01*
X96592712Y-109118794D01*
X96686112Y-109138647D01*
X96773056Y-109157128D01*
X96773061Y-109157128D01*
X96779513Y-109158500D01*
X96970487Y-109158500D01*
X96976939Y-109157128D01*
X96976944Y-109157128D01*
X97063888Y-109138647D01*
X97157288Y-109118794D01*
X97194368Y-109102285D01*
X97325722Y-109043803D01*
X97325724Y-109043802D01*
X97331752Y-109041118D01*
X97425939Y-108972687D01*
X97492807Y-108948828D01*
X97561958Y-108964909D01*
X97574061Y-108972687D01*
X97668248Y-109041118D01*
X97674276Y-109043802D01*
X97674278Y-109043803D01*
X97805632Y-109102285D01*
X97842712Y-109118794D01*
X97936112Y-109138647D01*
X98023056Y-109157128D01*
X98023061Y-109157128D01*
X98029513Y-109158500D01*
X98220487Y-109158500D01*
X98226939Y-109157128D01*
X98226944Y-109157128D01*
X98313888Y-109138647D01*
X98407288Y-109118794D01*
X98444368Y-109102285D01*
X98575722Y-109043803D01*
X98575724Y-109043802D01*
X98581752Y-109041118D01*
X98675939Y-108972687D01*
X98742807Y-108948828D01*
X98811958Y-108964909D01*
X98824061Y-108972687D01*
X98918248Y-109041118D01*
X98924276Y-109043802D01*
X98924278Y-109043803D01*
X99055632Y-109102285D01*
X99092712Y-109118794D01*
X99186112Y-109138647D01*
X99273056Y-109157128D01*
X99273061Y-109157128D01*
X99279513Y-109158500D01*
X99470487Y-109158500D01*
X99476939Y-109157128D01*
X99476944Y-109157128D01*
X99563888Y-109138647D01*
X99657288Y-109118794D01*
X99694368Y-109102285D01*
X99825722Y-109043803D01*
X99825724Y-109043802D01*
X99831752Y-109041118D01*
X99986253Y-108928866D01*
X100114040Y-108786944D01*
X100188197Y-108658500D01*
X100206223Y-108627279D01*
X100206224Y-108627278D01*
X100209527Y-108621556D01*
X100268542Y-108439928D01*
X100283500Y-108297610D01*
X100283500Y-107750000D01*
X112586496Y-107750000D01*
X112587186Y-107756565D01*
X112599234Y-107871191D01*
X112606458Y-107939928D01*
X112665473Y-108121556D01*
X112760960Y-108286944D01*
X112765378Y-108291851D01*
X112765379Y-108291852D01*
X112884325Y-108423955D01*
X112888747Y-108428866D01*
X113043248Y-108541118D01*
X113049276Y-108543802D01*
X113049278Y-108543803D01*
X113144843Y-108586351D01*
X113217712Y-108618794D01*
X113311113Y-108638647D01*
X113398056Y-108657128D01*
X113398061Y-108657128D01*
X113404513Y-108658500D01*
X113595487Y-108658500D01*
X113601939Y-108657128D01*
X113601944Y-108657128D01*
X113688887Y-108638647D01*
X113782288Y-108618794D01*
X113855157Y-108586351D01*
X113950722Y-108543803D01*
X113950724Y-108543802D01*
X113956752Y-108541118D01*
X114111253Y-108428866D01*
X114115675Y-108423955D01*
X114234621Y-108291852D01*
X114234622Y-108291851D01*
X114239040Y-108286944D01*
X114334527Y-108121556D01*
X114393542Y-107939928D01*
X114400767Y-107871191D01*
X114412814Y-107756565D01*
X114413504Y-107750000D01*
X114402745Y-107647630D01*
X114394232Y-107566635D01*
X114394232Y-107566633D01*
X114393542Y-107560072D01*
X114334527Y-107378444D01*
X114239040Y-107213056D01*
X114111253Y-107071134D01*
X114061645Y-107035091D01*
X113981601Y-106976936D01*
X113938247Y-106920714D01*
X113932172Y-106849977D01*
X113965304Y-106787186D01*
X113981601Y-106773064D01*
X114105909Y-106682749D01*
X114105911Y-106682747D01*
X114111253Y-106678866D01*
X114239040Y-106536944D01*
X114334527Y-106371556D01*
X114393542Y-106189928D01*
X114413504Y-106000000D01*
X114393542Y-105810072D01*
X114334527Y-105628444D01*
X114239040Y-105463056D01*
X114141620Y-105354860D01*
X114123117Y-105334310D01*
X114092399Y-105270303D01*
X114101164Y-105199849D01*
X114123117Y-105165690D01*
X114234621Y-105041852D01*
X114234622Y-105041851D01*
X114239040Y-105036944D01*
X114334527Y-104871556D01*
X114393542Y-104689928D01*
X114413504Y-104500000D01*
X114393542Y-104310072D01*
X114334527Y-104128444D01*
X114239040Y-103963056D01*
X114234620Y-103958148D01*
X114230741Y-103952808D01*
X114232080Y-103951835D01*
X114204950Y-103895304D01*
X114213713Y-103824851D01*
X114231250Y-103797562D01*
X114230741Y-103797192D01*
X114234620Y-103791852D01*
X114239040Y-103786944D01*
X114334527Y-103621556D01*
X114393542Y-103439928D01*
X114413504Y-103250000D01*
X114393542Y-103060072D01*
X114334527Y-102878444D01*
X114239040Y-102713056D01*
X114111253Y-102571134D01*
X113956752Y-102458882D01*
X113950724Y-102456198D01*
X113950722Y-102456197D01*
X113788319Y-102383891D01*
X113788318Y-102383891D01*
X113782288Y-102381206D01*
X113688887Y-102361353D01*
X113601944Y-102342872D01*
X113601939Y-102342872D01*
X113595487Y-102341500D01*
X113404513Y-102341500D01*
X113398061Y-102342872D01*
X113398056Y-102342872D01*
X113311113Y-102361353D01*
X113217712Y-102381206D01*
X113211682Y-102383891D01*
X113211681Y-102383891D01*
X113049278Y-102456197D01*
X113049276Y-102456198D01*
X113043248Y-102458882D01*
X112888747Y-102571134D01*
X112760960Y-102713056D01*
X112665473Y-102878444D01*
X112606458Y-103060072D01*
X112586496Y-103250000D01*
X112606458Y-103439928D01*
X112665473Y-103621556D01*
X112760960Y-103786944D01*
X112765380Y-103791852D01*
X112769259Y-103797192D01*
X112767920Y-103798165D01*
X112795050Y-103854696D01*
X112786287Y-103925149D01*
X112768750Y-103952438D01*
X112769259Y-103952808D01*
X112765380Y-103958148D01*
X112760960Y-103963056D01*
X112665473Y-104128444D01*
X112606458Y-104310072D01*
X112586496Y-104500000D01*
X112606458Y-104689928D01*
X112665473Y-104871556D01*
X112760960Y-105036944D01*
X112765378Y-105041851D01*
X112765379Y-105041852D01*
X112876883Y-105165690D01*
X112907601Y-105229697D01*
X112898836Y-105300151D01*
X112876883Y-105334310D01*
X112858380Y-105354860D01*
X112760960Y-105463056D01*
X112665473Y-105628444D01*
X112606458Y-105810072D01*
X112586496Y-106000000D01*
X112606458Y-106189928D01*
X112665473Y-106371556D01*
X112760960Y-106536944D01*
X112888747Y-106678866D01*
X112894089Y-106682747D01*
X112894091Y-106682749D01*
X113018399Y-106773064D01*
X113061753Y-106829286D01*
X113067828Y-106900023D01*
X113034696Y-106962814D01*
X113018399Y-106976936D01*
X112938356Y-107035091D01*
X112888747Y-107071134D01*
X112760960Y-107213056D01*
X112665473Y-107378444D01*
X112606458Y-107560072D01*
X112605768Y-107566633D01*
X112605768Y-107566635D01*
X112597255Y-107647630D01*
X112586496Y-107750000D01*
X100283500Y-107750000D01*
X100283500Y-107702390D01*
X100270104Y-107574929D01*
X100269232Y-107566635D01*
X100269232Y-107566633D01*
X100268542Y-107560072D01*
X100209527Y-107378444D01*
X100114040Y-107213056D01*
X99986253Y-107071134D01*
X99831752Y-106958882D01*
X99825724Y-106956198D01*
X99825722Y-106956197D01*
X99663319Y-106883891D01*
X99663318Y-106883891D01*
X99657288Y-106881206D01*
X99558068Y-106860116D01*
X99476944Y-106842872D01*
X99476939Y-106842872D01*
X99470487Y-106841500D01*
X99279513Y-106841500D01*
X99273061Y-106842872D01*
X99273056Y-106842872D01*
X99191932Y-106860116D01*
X99092712Y-106881206D01*
X99086682Y-106883891D01*
X99086681Y-106883891D01*
X98924278Y-106956197D01*
X98924276Y-106956198D01*
X98918248Y-106958882D01*
X98912907Y-106962762D01*
X98912906Y-106962763D01*
X98824061Y-107027313D01*
X98757193Y-107051172D01*
X98688042Y-107035091D01*
X98675939Y-107027313D01*
X98587094Y-106962763D01*
X98587093Y-106962762D01*
X98581752Y-106958882D01*
X98575724Y-106956198D01*
X98575722Y-106956197D01*
X98413319Y-106883891D01*
X98413318Y-106883891D01*
X98407288Y-106881206D01*
X98308068Y-106860116D01*
X98226944Y-106842872D01*
X98226939Y-106842872D01*
X98220487Y-106841500D01*
X98029513Y-106841500D01*
X98023061Y-106842872D01*
X98023056Y-106842872D01*
X97941932Y-106860116D01*
X97842712Y-106881206D01*
X97836682Y-106883891D01*
X97836681Y-106883891D01*
X97674278Y-106956197D01*
X97674276Y-106956198D01*
X97668248Y-106958882D01*
X97662907Y-106962762D01*
X97662906Y-106962763D01*
X97574061Y-107027313D01*
X97507193Y-107051172D01*
X97438042Y-107035091D01*
X97425939Y-107027313D01*
X97337094Y-106962763D01*
X97337093Y-106962762D01*
X97331752Y-106958882D01*
X97325724Y-106956198D01*
X97325722Y-106956197D01*
X97163319Y-106883891D01*
X97163318Y-106883891D01*
X97157288Y-106881206D01*
X97058068Y-106860116D01*
X96976944Y-106842872D01*
X96976939Y-106842872D01*
X96970487Y-106841500D01*
X96779513Y-106841500D01*
X96773061Y-106842872D01*
X96773056Y-106842872D01*
X96691932Y-106860116D01*
X96592712Y-106881206D01*
X96586682Y-106883891D01*
X96586681Y-106883891D01*
X96424278Y-106956197D01*
X96424276Y-106956198D01*
X96418248Y-106958882D01*
X96412907Y-106962762D01*
X96412906Y-106962763D01*
X96393911Y-106976564D01*
X96327044Y-107000422D01*
X96254578Y-106982404D01*
X96124988Y-106903921D01*
X96111243Y-106897715D01*
X95961356Y-106850744D01*
X95948306Y-106848131D01*
X95893414Y-106843087D01*
X95881876Y-106846475D01*
X95880671Y-106847865D01*
X95879000Y-106855548D01*
X95879000Y-109139884D01*
X95371000Y-109139884D01*
X95371000Y-108272115D01*
X95366525Y-108256876D01*
X95365135Y-108255671D01*
X95357452Y-108254000D01*
X94735116Y-108254000D01*
X94719877Y-108258475D01*
X94718672Y-108259865D01*
X94717001Y-108267548D01*
X94717001Y-108503705D01*
X89782283Y-108503705D01*
X89806750Y-108251911D01*
X89810164Y-108121556D01*
X89813289Y-108002234D01*
X89813289Y-108002220D01*
X89813347Y-108000000D01*
X89801228Y-107727885D01*
X94717000Y-107727885D01*
X94721475Y-107743124D01*
X94722865Y-107744329D01*
X94730548Y-107746000D01*
X95352885Y-107746000D01*
X95368124Y-107741525D01*
X95369329Y-107740135D01*
X95371000Y-107732452D01*
X95371000Y-106860116D01*
X95366525Y-106844877D01*
X95365135Y-106843672D01*
X95360706Y-106842709D01*
X95301685Y-106848132D01*
X95288649Y-106850743D01*
X95138757Y-106897715D01*
X95125012Y-106903921D01*
X94991426Y-106984824D01*
X94979557Y-106994131D01*
X94869131Y-107104557D01*
X94859824Y-107116426D01*
X94778921Y-107250012D01*
X94772715Y-107263757D01*
X94725744Y-107413644D01*
X94723131Y-107426694D01*
X94717266Y-107490521D01*
X94717000Y-107496309D01*
X94717000Y-107727885D01*
X89801228Y-107727885D01*
X89794291Y-107572121D01*
X89791830Y-107553794D01*
X89767508Y-107372721D01*
X89737275Y-107147630D01*
X89730215Y-107116426D01*
X89643368Y-106732618D01*
X89643368Y-106732617D01*
X89642750Y-106729887D01*
X89582197Y-106541852D01*
X89512318Y-106324856D01*
X89512316Y-106324849D01*
X89511463Y-106322202D01*
X89350551Y-105942194D01*
X89345550Y-105930384D01*
X89345548Y-105930379D01*
X89344456Y-105927801D01*
X89143050Y-105549807D01*
X89141516Y-105547458D01*
X88910381Y-105193573D01*
X88910378Y-105193569D01*
X88908840Y-105191214D01*
X88656842Y-104871556D01*
X88645409Y-104857053D01*
X88645407Y-104857051D01*
X88643680Y-104854860D01*
X88349670Y-104543409D01*
X88347579Y-104541556D01*
X88347571Y-104541548D01*
X88031237Y-104261188D01*
X88031235Y-104261186D01*
X88029137Y-104259327D01*
X87979653Y-104222777D01*
X87851936Y-104128444D01*
X87684621Y-104004863D01*
X87389135Y-103824851D01*
X87321237Y-103783487D01*
X87321230Y-103783483D01*
X87318848Y-103782032D01*
X87201514Y-103724169D01*
X86937228Y-103593838D01*
X86934714Y-103592598D01*
X86535262Y-103438062D01*
X86288678Y-103367122D01*
X86126335Y-103320417D01*
X86126329Y-103320415D01*
X86123654Y-103319646D01*
X86120917Y-103319117D01*
X86120911Y-103319115D01*
X85975828Y-103291046D01*
X85703148Y-103238289D01*
X85700374Y-103238005D01*
X85700362Y-103238003D01*
X85417111Y-103208982D01*
X85277076Y-103194634D01*
X85274286Y-103194597D01*
X85274278Y-103194597D01*
X85006825Y-103191096D01*
X84848809Y-103189028D01*
X84846009Y-103189241D01*
X84846008Y-103189241D01*
X84771364Y-103194919D01*
X84421740Y-103221514D01*
X83999249Y-103291836D01*
X83913671Y-103314048D01*
X83587400Y-103398731D01*
X83587389Y-103398734D01*
X83584682Y-103399437D01*
X83326575Y-103491599D01*
X83183964Y-103542520D01*
X83183959Y-103542522D01*
X83181321Y-103543464D01*
X83178781Y-103544635D01*
X83178776Y-103544637D01*
X83076930Y-103591589D01*
X82792361Y-103722777D01*
X82789938Y-103724167D01*
X82789935Y-103724169D01*
X82765330Y-103738289D01*
X82420880Y-103935957D01*
X82418577Y-103937566D01*
X82418570Y-103937571D01*
X82072129Y-104179701D01*
X82069820Y-104181315D01*
X81741961Y-104456909D01*
X81439899Y-104760557D01*
X81166025Y-105089855D01*
X81164431Y-105092162D01*
X81164429Y-105092164D01*
X81104506Y-105178866D01*
X80922508Y-105442194D01*
X80711276Y-105814786D01*
X80534002Y-106204680D01*
X80533080Y-106207306D01*
X80533075Y-106207318D01*
X80475399Y-106371556D01*
X80392089Y-106608790D01*
X80391398Y-106611510D01*
X80391397Y-106611514D01*
X80329420Y-106855548D01*
X80286661Y-107023914D01*
X80218552Y-107446768D01*
X80188302Y-107874001D01*
X79508000Y-107874001D01*
X79508000Y-100000000D01*
X92836496Y-100000000D01*
X92856458Y-100189928D01*
X92915473Y-100371556D01*
X93010960Y-100536944D01*
X93138747Y-100678866D01*
X93293248Y-100791118D01*
X93299276Y-100793802D01*
X93299278Y-100793803D01*
X93461681Y-100866109D01*
X93467712Y-100868794D01*
X93561112Y-100888647D01*
X93648056Y-100907128D01*
X93648061Y-100907128D01*
X93654513Y-100908500D01*
X93845487Y-100908500D01*
X93851939Y-100907128D01*
X93851944Y-100907128D01*
X93938887Y-100888647D01*
X94032288Y-100868794D01*
X94038319Y-100866109D01*
X94200722Y-100793803D01*
X94200724Y-100793802D01*
X94206752Y-100791118D01*
X94361253Y-100678866D01*
X94489040Y-100536944D01*
X94584527Y-100371556D01*
X94643542Y-100189928D01*
X94663504Y-100000000D01*
X103836496Y-100000000D01*
X103856458Y-100189928D01*
X103915473Y-100371556D01*
X104010960Y-100536944D01*
X104138747Y-100678866D01*
X104293248Y-100791118D01*
X104299276Y-100793802D01*
X104299278Y-100793803D01*
X104461681Y-100866109D01*
X104467712Y-100868794D01*
X104561112Y-100888647D01*
X104648056Y-100907128D01*
X104648061Y-100907128D01*
X104654513Y-100908500D01*
X104845487Y-100908500D01*
X104851939Y-100907128D01*
X104851944Y-100907128D01*
X104938887Y-100888647D01*
X105032288Y-100868794D01*
X105038319Y-100866109D01*
X105200722Y-100793803D01*
X105200724Y-100793802D01*
X105206752Y-100791118D01*
X105361253Y-100678866D01*
X105489040Y-100536944D01*
X105584527Y-100371556D01*
X105643542Y-100189928D01*
X105663504Y-100000000D01*
X105662814Y-99993435D01*
X105644232Y-99816635D01*
X105644232Y-99816633D01*
X105643542Y-99810072D01*
X105584527Y-99628444D01*
X105508061Y-99496002D01*
X116083004Y-99496002D01*
X116083694Y-99502567D01*
X116097585Y-99634729D01*
X116102966Y-99685930D01*
X116161981Y-99867558D01*
X116257468Y-100032946D01*
X116385255Y-100174868D01*
X116539756Y-100287120D01*
X116545784Y-100289804D01*
X116545786Y-100289805D01*
X116708189Y-100362111D01*
X116714220Y-100364796D01*
X116772948Y-100377279D01*
X116894564Y-100403130D01*
X116894569Y-100403130D01*
X116901021Y-100404502D01*
X117091995Y-100404502D01*
X117098447Y-100403130D01*
X117098452Y-100403130D01*
X117220068Y-100377279D01*
X117278796Y-100364796D01*
X117284827Y-100362111D01*
X117447230Y-100289805D01*
X117447232Y-100289804D01*
X117453260Y-100287120D01*
X117607761Y-100174868D01*
X117735548Y-100032946D01*
X117831035Y-99867558D01*
X117890050Y-99685930D01*
X117895432Y-99634729D01*
X117909322Y-99502567D01*
X117910012Y-99496002D01*
X117890050Y-99306074D01*
X117831035Y-99124446D01*
X117809001Y-99086281D01*
X117796151Y-99064025D01*
X117779413Y-98995030D01*
X117796151Y-98938025D01*
X117831223Y-98877279D01*
X117831224Y-98877278D01*
X117834527Y-98871556D01*
X117893542Y-98689928D01*
X117913504Y-98500000D01*
X117893542Y-98310072D01*
X117834527Y-98128444D01*
X117827406Y-98116109D01*
X117784109Y-98041118D01*
X117739040Y-97963056D01*
X117711752Y-97932749D01*
X117615675Y-97826045D01*
X117615674Y-97826044D01*
X117611253Y-97821134D01*
X117456752Y-97708882D01*
X117450724Y-97706198D01*
X117450722Y-97706197D01*
X117288319Y-97633891D01*
X117288318Y-97633891D01*
X117282288Y-97631206D01*
X117188887Y-97611353D01*
X117101944Y-97592872D01*
X117101939Y-97592872D01*
X117095487Y-97591500D01*
X116904513Y-97591500D01*
X116898061Y-97592872D01*
X116898056Y-97592872D01*
X116811112Y-97611353D01*
X116717712Y-97631206D01*
X116711682Y-97633891D01*
X116711681Y-97633891D01*
X116549278Y-97706197D01*
X116549276Y-97706198D01*
X116543248Y-97708882D01*
X116388747Y-97821134D01*
X116384326Y-97826044D01*
X116384325Y-97826045D01*
X116288249Y-97932749D01*
X116260960Y-97963056D01*
X116215891Y-98041118D01*
X116172595Y-98116109D01*
X116165473Y-98128444D01*
X116106458Y-98310072D01*
X116086496Y-98500000D01*
X116106458Y-98689928D01*
X116165473Y-98871556D01*
X116168776Y-98877278D01*
X116168777Y-98877279D01*
X116200357Y-98931977D01*
X116217095Y-99000972D01*
X116200357Y-99057977D01*
X116161981Y-99124446D01*
X116102966Y-99306074D01*
X116083004Y-99496002D01*
X105508061Y-99496002D01*
X105489040Y-99463056D01*
X105361253Y-99321134D01*
X105206752Y-99208882D01*
X105200724Y-99206198D01*
X105200722Y-99206197D01*
X105058634Y-99142936D01*
X105004539Y-99096956D01*
X104989070Y-99046071D01*
X104943548Y-99086281D01*
X104873374Y-99097054D01*
X104863920Y-99095418D01*
X104851944Y-99092872D01*
X104851939Y-99092872D01*
X104845487Y-99091500D01*
X104654513Y-99091500D01*
X104648061Y-99092872D01*
X104648056Y-99092872D01*
X104561112Y-99111353D01*
X104467712Y-99131206D01*
X104461682Y-99133891D01*
X104461681Y-99133891D01*
X104299278Y-99206197D01*
X104299276Y-99206198D01*
X104293248Y-99208882D01*
X104138747Y-99321134D01*
X104010960Y-99463056D01*
X103915473Y-99628444D01*
X103856458Y-99810072D01*
X103855768Y-99816633D01*
X103855768Y-99816635D01*
X103837186Y-99993435D01*
X103836496Y-100000000D01*
X94663504Y-100000000D01*
X94662814Y-99993435D01*
X94644232Y-99816635D01*
X94644232Y-99816633D01*
X94643542Y-99810072D01*
X94584527Y-99628444D01*
X94489040Y-99463056D01*
X94361253Y-99321134D01*
X94206752Y-99208882D01*
X94200724Y-99206198D01*
X94200722Y-99206197D01*
X94038319Y-99133891D01*
X94038318Y-99133891D01*
X94032288Y-99131206D01*
X93938888Y-99111353D01*
X93851944Y-99092872D01*
X93851939Y-99092872D01*
X93845487Y-99091500D01*
X93654513Y-99091500D01*
X93648061Y-99092872D01*
X93648056Y-99092872D01*
X93561112Y-99111353D01*
X93467712Y-99131206D01*
X93461682Y-99133891D01*
X93461681Y-99133891D01*
X93299278Y-99206197D01*
X93299276Y-99206198D01*
X93293248Y-99208882D01*
X93138747Y-99321134D01*
X93010960Y-99463056D01*
X92915473Y-99628444D01*
X92856458Y-99810072D01*
X92855768Y-99816633D01*
X92855768Y-99816635D01*
X92837186Y-99993435D01*
X92836496Y-100000000D01*
X79508000Y-100000000D01*
X79508000Y-97250000D01*
X89086496Y-97250000D01*
X89087186Y-97256565D01*
X89094489Y-97326045D01*
X89106458Y-97439928D01*
X89165473Y-97621556D01*
X89168776Y-97627278D01*
X89168777Y-97627279D01*
X89173078Y-97634729D01*
X89260960Y-97786944D01*
X89265378Y-97791851D01*
X89265379Y-97791852D01*
X89384325Y-97923955D01*
X89388747Y-97928866D01*
X89543248Y-98041118D01*
X89549276Y-98043802D01*
X89549278Y-98043803D01*
X89711681Y-98116109D01*
X89717712Y-98118794D01*
X89792680Y-98134729D01*
X89898056Y-98157128D01*
X89898061Y-98157128D01*
X89904513Y-98158500D01*
X90095487Y-98158500D01*
X90101939Y-98157128D01*
X90101944Y-98157128D01*
X90207320Y-98134729D01*
X90282288Y-98118794D01*
X90288319Y-98116109D01*
X90450722Y-98043803D01*
X90450724Y-98043802D01*
X90456752Y-98041118D01*
X90513346Y-98000000D01*
X104336496Y-98000000D01*
X104337186Y-98006565D01*
X104353011Y-98157128D01*
X104356458Y-98189928D01*
X104415473Y-98371556D01*
X104510960Y-98536944D01*
X104638747Y-98678866D01*
X104793248Y-98791118D01*
X104799276Y-98793802D01*
X104799278Y-98793803D01*
X104941366Y-98857064D01*
X104995461Y-98903044D01*
X105010930Y-98953929D01*
X105056452Y-98913719D01*
X105126626Y-98902946D01*
X105136080Y-98904582D01*
X105148056Y-98907128D01*
X105148061Y-98907128D01*
X105154513Y-98908500D01*
X105345487Y-98908500D01*
X105351939Y-98907128D01*
X105351944Y-98907128D01*
X105438888Y-98888647D01*
X105532288Y-98868794D01*
X105540201Y-98865271D01*
X105700722Y-98793803D01*
X105700724Y-98793802D01*
X105706752Y-98791118D01*
X105861253Y-98678866D01*
X105989040Y-98536944D01*
X106084527Y-98371556D01*
X106143542Y-98189928D01*
X106146990Y-98157128D01*
X106162814Y-98006565D01*
X106163504Y-98000000D01*
X106156028Y-97928866D01*
X106144232Y-97816635D01*
X106144232Y-97816633D01*
X106143542Y-97810072D01*
X106084527Y-97628444D01*
X106063990Y-97592872D01*
X105992341Y-97468774D01*
X105989040Y-97463056D01*
X105968216Y-97439928D01*
X105865675Y-97326045D01*
X105865674Y-97326044D01*
X105861253Y-97321134D01*
X105706752Y-97208882D01*
X105700724Y-97206198D01*
X105700722Y-97206197D01*
X105538319Y-97133891D01*
X105538318Y-97133891D01*
X105532288Y-97131206D01*
X105438888Y-97111353D01*
X105351944Y-97092872D01*
X105351939Y-97092872D01*
X105345487Y-97091500D01*
X105154513Y-97091500D01*
X105148061Y-97092872D01*
X105148056Y-97092872D01*
X105061112Y-97111353D01*
X104967712Y-97131206D01*
X104961682Y-97133891D01*
X104961681Y-97133891D01*
X104799278Y-97206197D01*
X104799276Y-97206198D01*
X104793248Y-97208882D01*
X104638747Y-97321134D01*
X104634326Y-97326044D01*
X104634325Y-97326045D01*
X104531785Y-97439928D01*
X104510960Y-97463056D01*
X104507659Y-97468774D01*
X104436011Y-97592872D01*
X104415473Y-97628444D01*
X104356458Y-97810072D01*
X104355768Y-97816633D01*
X104355768Y-97816635D01*
X104343972Y-97928866D01*
X104336496Y-98000000D01*
X90513346Y-98000000D01*
X90611253Y-97928866D01*
X90615675Y-97923955D01*
X90734621Y-97791852D01*
X90734622Y-97791851D01*
X90739040Y-97786944D01*
X90826922Y-97634729D01*
X90831223Y-97627279D01*
X90831224Y-97627278D01*
X90834527Y-97621556D01*
X90893542Y-97439928D01*
X90905512Y-97326045D01*
X90912814Y-97256565D01*
X90913504Y-97250000D01*
X90901301Y-97133891D01*
X90894232Y-97066635D01*
X90894232Y-97066633D01*
X90893542Y-97060072D01*
X90834527Y-96878444D01*
X90739040Y-96713056D01*
X90611253Y-96571134D01*
X90456752Y-96458882D01*
X90450724Y-96456198D01*
X90450722Y-96456197D01*
X90288319Y-96383891D01*
X90288318Y-96383891D01*
X90282288Y-96381206D01*
X90188888Y-96361353D01*
X90101944Y-96342872D01*
X90101939Y-96342872D01*
X90095487Y-96341500D01*
X89904513Y-96341500D01*
X89898061Y-96342872D01*
X89898056Y-96342872D01*
X89811113Y-96361353D01*
X89717712Y-96381206D01*
X89711682Y-96383891D01*
X89711681Y-96383891D01*
X89549278Y-96456197D01*
X89549276Y-96456198D01*
X89543248Y-96458882D01*
X89388747Y-96571134D01*
X89260960Y-96713056D01*
X89165473Y-96878444D01*
X89106458Y-97060072D01*
X89105768Y-97066633D01*
X89105768Y-97066635D01*
X89098699Y-97133891D01*
X89086496Y-97250000D01*
X79508000Y-97250000D01*
X79508000Y-96200000D01*
X116086496Y-96200000D01*
X116106458Y-96389928D01*
X116165473Y-96571556D01*
X116260960Y-96736944D01*
X116265378Y-96741851D01*
X116265379Y-96741852D01*
X116305980Y-96786944D01*
X116388747Y-96878866D01*
X116543248Y-96991118D01*
X116549276Y-96993802D01*
X116549278Y-96993803D01*
X116646833Y-97037237D01*
X116717712Y-97068794D01*
X116811113Y-97088647D01*
X116898056Y-97107128D01*
X116898061Y-97107128D01*
X116904513Y-97108500D01*
X117095487Y-97108500D01*
X117101939Y-97107128D01*
X117101944Y-97107128D01*
X117188887Y-97088647D01*
X117282288Y-97068794D01*
X117353167Y-97037237D01*
X117450722Y-96993803D01*
X117450724Y-96993802D01*
X117456752Y-96991118D01*
X117611253Y-96878866D01*
X117694020Y-96786944D01*
X117734621Y-96741852D01*
X117734622Y-96741851D01*
X117739040Y-96736944D01*
X117834527Y-96571556D01*
X117893542Y-96389928D01*
X117908249Y-96250000D01*
X124086496Y-96250000D01*
X124106458Y-96439928D01*
X124165473Y-96621556D01*
X124260960Y-96786944D01*
X124388747Y-96928866D01*
X124543248Y-97041118D01*
X124549276Y-97043802D01*
X124549278Y-97043803D01*
X124694591Y-97108500D01*
X124717712Y-97118794D01*
X124811112Y-97138647D01*
X124898056Y-97157128D01*
X124898061Y-97157128D01*
X124904513Y-97158500D01*
X124963428Y-97158500D01*
X125031549Y-97178502D01*
X125078042Y-97232158D01*
X125088738Y-97271329D01*
X125106458Y-97439928D01*
X125165473Y-97621556D01*
X125168776Y-97627278D01*
X125168777Y-97627279D01*
X125173078Y-97634729D01*
X125260960Y-97786944D01*
X125265378Y-97791851D01*
X125265379Y-97791852D01*
X125384325Y-97923955D01*
X125388747Y-97928866D01*
X125543248Y-98041118D01*
X125549276Y-98043802D01*
X125549278Y-98043803D01*
X125711681Y-98116109D01*
X125717712Y-98118794D01*
X125792680Y-98134729D01*
X125898056Y-98157128D01*
X125898061Y-98157128D01*
X125904513Y-98158500D01*
X126095487Y-98158500D01*
X126101939Y-98157128D01*
X126101944Y-98157128D01*
X126207320Y-98134729D01*
X126282288Y-98118794D01*
X126288319Y-98116109D01*
X126450722Y-98043803D01*
X126450724Y-98043802D01*
X126456752Y-98041118D01*
X126611253Y-97928866D01*
X126615675Y-97923955D01*
X126734621Y-97791852D01*
X126734622Y-97791851D01*
X126739040Y-97786944D01*
X126826922Y-97634729D01*
X126831223Y-97627279D01*
X126831224Y-97627278D01*
X126834527Y-97621556D01*
X126893542Y-97439928D01*
X126905512Y-97326045D01*
X126912814Y-97256565D01*
X126913504Y-97250000D01*
X126901301Y-97133891D01*
X126894232Y-97066635D01*
X126894232Y-97066633D01*
X126893542Y-97060072D01*
X126834527Y-96878444D01*
X126739040Y-96713056D01*
X126611253Y-96571134D01*
X126456752Y-96458882D01*
X126450724Y-96456198D01*
X126450722Y-96456197D01*
X126288319Y-96383891D01*
X126288318Y-96383891D01*
X126282288Y-96381206D01*
X126188888Y-96361353D01*
X126101944Y-96342872D01*
X126101939Y-96342872D01*
X126095487Y-96341500D01*
X126036572Y-96341500D01*
X125968451Y-96321498D01*
X125921958Y-96267842D01*
X125911262Y-96228670D01*
X125894232Y-96066635D01*
X125894232Y-96066633D01*
X125893542Y-96060072D01*
X125834527Y-95878444D01*
X125739040Y-95713056D01*
X125699169Y-95668774D01*
X125615675Y-95576045D01*
X125615674Y-95576044D01*
X125611253Y-95571134D01*
X125456752Y-95458882D01*
X125450724Y-95456198D01*
X125450722Y-95456197D01*
X125288319Y-95383891D01*
X125288318Y-95383891D01*
X125282288Y-95381206D01*
X125188887Y-95361353D01*
X125101944Y-95342872D01*
X125101939Y-95342872D01*
X125095487Y-95341500D01*
X124904513Y-95341500D01*
X124898061Y-95342872D01*
X124898056Y-95342872D01*
X124811112Y-95361353D01*
X124717712Y-95381206D01*
X124711682Y-95383891D01*
X124711681Y-95383891D01*
X124549278Y-95456197D01*
X124549276Y-95456198D01*
X124543248Y-95458882D01*
X124388747Y-95571134D01*
X124384326Y-95576044D01*
X124384325Y-95576045D01*
X124300832Y-95668774D01*
X124260960Y-95713056D01*
X124165473Y-95878444D01*
X124106458Y-96060072D01*
X124086496Y-96250000D01*
X117908249Y-96250000D01*
X117913504Y-96200000D01*
X117893542Y-96010072D01*
X117834527Y-95828444D01*
X117739040Y-95663056D01*
X117611253Y-95521134D01*
X117456752Y-95408882D01*
X117450724Y-95406198D01*
X117450722Y-95406197D01*
X117288319Y-95333891D01*
X117288318Y-95333891D01*
X117282288Y-95331206D01*
X117188887Y-95311353D01*
X117101944Y-95292872D01*
X117101939Y-95292872D01*
X117095487Y-95291500D01*
X116904513Y-95291500D01*
X116898061Y-95292872D01*
X116898056Y-95292872D01*
X116811113Y-95311353D01*
X116717712Y-95331206D01*
X116711682Y-95333891D01*
X116711681Y-95333891D01*
X116549278Y-95406197D01*
X116549276Y-95406198D01*
X116543248Y-95408882D01*
X116388747Y-95521134D01*
X116260960Y-95663056D01*
X116165473Y-95828444D01*
X116106458Y-96010072D01*
X116086496Y-96200000D01*
X79508000Y-96200000D01*
X79508000Y-94000000D01*
X84086496Y-94000000D01*
X84087186Y-94006565D01*
X84103011Y-94157128D01*
X84106458Y-94189928D01*
X84165473Y-94371556D01*
X84260960Y-94536944D01*
X84388747Y-94678866D01*
X84543248Y-94791118D01*
X84549276Y-94793802D01*
X84549278Y-94793803D01*
X84711681Y-94866109D01*
X84717712Y-94868794D01*
X84811112Y-94888647D01*
X84898056Y-94907128D01*
X84898061Y-94907128D01*
X84904513Y-94908500D01*
X85095487Y-94908500D01*
X85101939Y-94907128D01*
X85101944Y-94907128D01*
X85188888Y-94888647D01*
X85282288Y-94868794D01*
X85288319Y-94866109D01*
X85450722Y-94793803D01*
X85450724Y-94793802D01*
X85456752Y-94791118D01*
X85611253Y-94678866D01*
X85739040Y-94536944D01*
X85834527Y-94371556D01*
X85893542Y-94189928D01*
X85896990Y-94157128D01*
X85912814Y-94006565D01*
X85913504Y-94000000D01*
X85906028Y-93928866D01*
X85894232Y-93816635D01*
X85894232Y-93816633D01*
X85893542Y-93810072D01*
X85834527Y-93628444D01*
X85827406Y-93616109D01*
X85784109Y-93541118D01*
X85739040Y-93463056D01*
X85718216Y-93439928D01*
X85615675Y-93326045D01*
X85615674Y-93326044D01*
X85611253Y-93321134D01*
X85456752Y-93208882D01*
X85450724Y-93206198D01*
X85450722Y-93206197D01*
X85288319Y-93133891D01*
X85288318Y-93133891D01*
X85282288Y-93131206D01*
X85188888Y-93111353D01*
X85101944Y-93092872D01*
X85101939Y-93092872D01*
X85095487Y-93091500D01*
X84904513Y-93091500D01*
X84898061Y-93092872D01*
X84898056Y-93092872D01*
X84811112Y-93111353D01*
X84717712Y-93131206D01*
X84711682Y-93133891D01*
X84711681Y-93133891D01*
X84549278Y-93206197D01*
X84549276Y-93206198D01*
X84543248Y-93208882D01*
X84388747Y-93321134D01*
X84384326Y-93326044D01*
X84384325Y-93326045D01*
X84281785Y-93439928D01*
X84260960Y-93463056D01*
X84215891Y-93541118D01*
X84172595Y-93616109D01*
X84165473Y-93628444D01*
X84106458Y-93810072D01*
X84105768Y-93816633D01*
X84105768Y-93816635D01*
X84093972Y-93928866D01*
X84086496Y-94000000D01*
X79508000Y-94000000D01*
X79508000Y-92000000D01*
X83086496Y-92000000D01*
X83087186Y-92006565D01*
X83094489Y-92076045D01*
X83106458Y-92189928D01*
X83165473Y-92371556D01*
X83168776Y-92377278D01*
X83168777Y-92377279D01*
X83186803Y-92408500D01*
X83260960Y-92536944D01*
X83265378Y-92541851D01*
X83265379Y-92541852D01*
X83331486Y-92615271D01*
X83388747Y-92678866D01*
X83543248Y-92791118D01*
X83549276Y-92793802D01*
X83549278Y-92793803D01*
X83709799Y-92865271D01*
X83717712Y-92868794D01*
X83792680Y-92884729D01*
X83898056Y-92907128D01*
X83898061Y-92907128D01*
X83904513Y-92908500D01*
X84095487Y-92908500D01*
X84101939Y-92907128D01*
X84101944Y-92907128D01*
X84207320Y-92884729D01*
X84282288Y-92868794D01*
X84290201Y-92865271D01*
X84450722Y-92793803D01*
X84450724Y-92793802D01*
X84456752Y-92791118D01*
X84513346Y-92750000D01*
X88086496Y-92750000D01*
X88087186Y-92756565D01*
X88103011Y-92907128D01*
X88106458Y-92939928D01*
X88165473Y-93121556D01*
X88168776Y-93127278D01*
X88168777Y-93127279D01*
X88186724Y-93158364D01*
X88260960Y-93286944D01*
X88265378Y-93291851D01*
X88265379Y-93291852D01*
X88332240Y-93366109D01*
X88388747Y-93428866D01*
X88487843Y-93500864D01*
X88500000Y-93509696D01*
X88543248Y-93541118D01*
X88549276Y-93543802D01*
X88549278Y-93543803D01*
X88551248Y-93544680D01*
X88717712Y-93618794D01*
X88792680Y-93634729D01*
X88898056Y-93657128D01*
X88898061Y-93657128D01*
X88904513Y-93658500D01*
X89095487Y-93658500D01*
X89101939Y-93657128D01*
X89101944Y-93657128D01*
X89207320Y-93634729D01*
X89282288Y-93618794D01*
X89448752Y-93544680D01*
X89519118Y-93535246D01*
X89551247Y-93544680D01*
X89717712Y-93618794D01*
X89792680Y-93634729D01*
X89898056Y-93657128D01*
X89898061Y-93657128D01*
X89904513Y-93658500D01*
X90095487Y-93658500D01*
X90101939Y-93657128D01*
X90101944Y-93657128D01*
X90207320Y-93634729D01*
X90282288Y-93618794D01*
X90448752Y-93544680D01*
X90450722Y-93543803D01*
X90450724Y-93543802D01*
X90456752Y-93541118D01*
X90500001Y-93509696D01*
X90512157Y-93500864D01*
X90611253Y-93428866D01*
X90667760Y-93366109D01*
X90734621Y-93291852D01*
X90734622Y-93291851D01*
X90739040Y-93286944D01*
X90813276Y-93158364D01*
X90831223Y-93127279D01*
X90831224Y-93127278D01*
X90834527Y-93121556D01*
X90893542Y-92939928D01*
X90896990Y-92907128D01*
X90912814Y-92756565D01*
X90913504Y-92750000D01*
X90907190Y-92689928D01*
X90894232Y-92566635D01*
X90894232Y-92566633D01*
X90893542Y-92560072D01*
X90874023Y-92500000D01*
X113086496Y-92500000D01*
X113087186Y-92506565D01*
X113094489Y-92576045D01*
X113106458Y-92689928D01*
X113165473Y-92871556D01*
X113168776Y-92877278D01*
X113168777Y-92877279D01*
X113186803Y-92908500D01*
X113260960Y-93036944D01*
X113265378Y-93041851D01*
X113265379Y-93041852D01*
X113287694Y-93066635D01*
X113388747Y-93178866D01*
X113543248Y-93291118D01*
X113549276Y-93293802D01*
X113549278Y-93293803D01*
X113711681Y-93366109D01*
X113717712Y-93368794D01*
X113811113Y-93388647D01*
X113898056Y-93407128D01*
X113898061Y-93407128D01*
X113904513Y-93408500D01*
X114095487Y-93408500D01*
X114101939Y-93407128D01*
X114101944Y-93407128D01*
X114188888Y-93388647D01*
X114282288Y-93368794D01*
X114288319Y-93366109D01*
X114450722Y-93293803D01*
X114450724Y-93293802D01*
X114456752Y-93291118D01*
X114611253Y-93178866D01*
X114712306Y-93066635D01*
X114734621Y-93041852D01*
X114734622Y-93041851D01*
X114739040Y-93036944D01*
X114813197Y-92908500D01*
X114831223Y-92877279D01*
X114831224Y-92877278D01*
X114834527Y-92871556D01*
X114893542Y-92689928D01*
X114905512Y-92576045D01*
X114912814Y-92506565D01*
X114913504Y-92500000D01*
X114907190Y-92439928D01*
X114894232Y-92316635D01*
X114894232Y-92316633D01*
X114893542Y-92310072D01*
X114834527Y-92128444D01*
X114804275Y-92076045D01*
X114796743Y-92063000D01*
X114780005Y-91994005D01*
X114796743Y-91937000D01*
X114831223Y-91877279D01*
X114831224Y-91877278D01*
X114834527Y-91871556D01*
X114893542Y-91689928D01*
X114897008Y-91656956D01*
X114912814Y-91506565D01*
X114913504Y-91500000D01*
X118086496Y-91500000D01*
X118087186Y-91506565D01*
X118102993Y-91656956D01*
X118106458Y-91689928D01*
X118165473Y-91871556D01*
X118168776Y-91877278D01*
X118168777Y-91877279D01*
X118173078Y-91884729D01*
X118260960Y-92036944D01*
X118265378Y-92041851D01*
X118265379Y-92041852D01*
X118338194Y-92122721D01*
X118388747Y-92178866D01*
X118543248Y-92291118D01*
X118549276Y-92293802D01*
X118549278Y-92293803D01*
X118659490Y-92342872D01*
X118717712Y-92368794D01*
X118792680Y-92384729D01*
X118898056Y-92407128D01*
X118898061Y-92407128D01*
X118904513Y-92408500D01*
X119095487Y-92408500D01*
X119101939Y-92407128D01*
X119101944Y-92407128D01*
X119207320Y-92384729D01*
X119282288Y-92368794D01*
X119340510Y-92342872D01*
X119450722Y-92293803D01*
X119450724Y-92293802D01*
X119456752Y-92291118D01*
X119611253Y-92178866D01*
X119661806Y-92122721D01*
X119734621Y-92041852D01*
X119734622Y-92041851D01*
X119739040Y-92036944D01*
X119826922Y-91884729D01*
X119831223Y-91877279D01*
X119831224Y-91877278D01*
X119834527Y-91871556D01*
X119880167Y-91731090D01*
X119920241Y-91672486D01*
X119985637Y-91644849D01*
X120055594Y-91656956D01*
X120107900Y-91704962D01*
X120119832Y-91731089D01*
X120165473Y-91871556D01*
X120168776Y-91877278D01*
X120168777Y-91877279D01*
X120173078Y-91884729D01*
X120260960Y-92036944D01*
X120265378Y-92041851D01*
X120265379Y-92041852D01*
X120338194Y-92122721D01*
X120388747Y-92178866D01*
X120543248Y-92291118D01*
X120549276Y-92293802D01*
X120549278Y-92293803D01*
X120659490Y-92342872D01*
X120717712Y-92368794D01*
X120792680Y-92384729D01*
X120898056Y-92407128D01*
X120898061Y-92407128D01*
X120904513Y-92408500D01*
X121095487Y-92408500D01*
X121101939Y-92407128D01*
X121101944Y-92407128D01*
X121207320Y-92384729D01*
X121282288Y-92368794D01*
X121340510Y-92342872D01*
X121450722Y-92293803D01*
X121450724Y-92293802D01*
X121456752Y-92291118D01*
X121513346Y-92250000D01*
X123086496Y-92250000D01*
X123087186Y-92256565D01*
X123103011Y-92407128D01*
X123106458Y-92439928D01*
X123165473Y-92621556D01*
X123260960Y-92786944D01*
X123388747Y-92928866D01*
X123543248Y-93041118D01*
X123549276Y-93043802D01*
X123549278Y-93043803D01*
X123600560Y-93066635D01*
X123717712Y-93118794D01*
X123811112Y-93138647D01*
X123898056Y-93157128D01*
X123898061Y-93157128D01*
X123904513Y-93158500D01*
X123963428Y-93158500D01*
X124031549Y-93178502D01*
X124078042Y-93232158D01*
X124088738Y-93271330D01*
X124103011Y-93407128D01*
X124106458Y-93439928D01*
X124165473Y-93621556D01*
X124168776Y-93627278D01*
X124168777Y-93627279D01*
X124186803Y-93658500D01*
X124260960Y-93786944D01*
X124265378Y-93791851D01*
X124265379Y-93791852D01*
X124287694Y-93816635D01*
X124388747Y-93928866D01*
X124543248Y-94041118D01*
X124549276Y-94043802D01*
X124549278Y-94043803D01*
X124602986Y-94067715D01*
X124717712Y-94118794D01*
X124811112Y-94138647D01*
X124898056Y-94157128D01*
X124898061Y-94157128D01*
X124904513Y-94158500D01*
X125095487Y-94158500D01*
X125101939Y-94157128D01*
X125101944Y-94157128D01*
X125188888Y-94138647D01*
X125282288Y-94118794D01*
X125397014Y-94067715D01*
X125450722Y-94043803D01*
X125450724Y-94043802D01*
X125456752Y-94041118D01*
X125611253Y-93928866D01*
X125712306Y-93816635D01*
X125734621Y-93791852D01*
X125734622Y-93791851D01*
X125739040Y-93786944D01*
X125813197Y-93658500D01*
X125831223Y-93627279D01*
X125831224Y-93627278D01*
X125834527Y-93621556D01*
X125893542Y-93439928D01*
X125896990Y-93407128D01*
X125912814Y-93256565D01*
X125913504Y-93250000D01*
X125905989Y-93178502D01*
X125894232Y-93066635D01*
X125894232Y-93066633D01*
X125893542Y-93060072D01*
X125834527Y-92878444D01*
X125827406Y-92866109D01*
X125784109Y-92791118D01*
X125739040Y-92713056D01*
X125718216Y-92689928D01*
X125615675Y-92576045D01*
X125615674Y-92576044D01*
X125611253Y-92571134D01*
X125456752Y-92458882D01*
X125450724Y-92456198D01*
X125450722Y-92456197D01*
X125288319Y-92383891D01*
X125288318Y-92383891D01*
X125282288Y-92381206D01*
X125188888Y-92361353D01*
X125101944Y-92342872D01*
X125101939Y-92342872D01*
X125095487Y-92341500D01*
X125036572Y-92341500D01*
X124968451Y-92321498D01*
X124921958Y-92267842D01*
X124911262Y-92228670D01*
X124894232Y-92066635D01*
X124894232Y-92066633D01*
X124893542Y-92060072D01*
X124834527Y-91878444D01*
X124813990Y-91842872D01*
X124791428Y-91803794D01*
X124739040Y-91713056D01*
X124718216Y-91689928D01*
X124615675Y-91576045D01*
X124615674Y-91576044D01*
X124611253Y-91571134D01*
X124456752Y-91458882D01*
X124450724Y-91456198D01*
X124450722Y-91456197D01*
X124288319Y-91383891D01*
X124288318Y-91383891D01*
X124282288Y-91381206D01*
X124159710Y-91355151D01*
X124101944Y-91342872D01*
X124101939Y-91342872D01*
X124095487Y-91341500D01*
X123904513Y-91341500D01*
X123898061Y-91342872D01*
X123898056Y-91342872D01*
X123840290Y-91355151D01*
X123717712Y-91381206D01*
X123711682Y-91383891D01*
X123711681Y-91383891D01*
X123549278Y-91456197D01*
X123549276Y-91456198D01*
X123543248Y-91458882D01*
X123388747Y-91571134D01*
X123384326Y-91576044D01*
X123384325Y-91576045D01*
X123281785Y-91689928D01*
X123260960Y-91713056D01*
X123208572Y-91803794D01*
X123186011Y-91842872D01*
X123165473Y-91878444D01*
X123106458Y-92060072D01*
X123105768Y-92066633D01*
X123105768Y-92066635D01*
X123092810Y-92189928D01*
X123086496Y-92250000D01*
X121513346Y-92250000D01*
X121611253Y-92178866D01*
X121661806Y-92122721D01*
X121734621Y-92041852D01*
X121734622Y-92041851D01*
X121739040Y-92036944D01*
X121826922Y-91884729D01*
X121831223Y-91877279D01*
X121831224Y-91877278D01*
X121834527Y-91871556D01*
X121893542Y-91689928D01*
X121897008Y-91656956D01*
X121912814Y-91506565D01*
X121913504Y-91500000D01*
X121901301Y-91383891D01*
X121894232Y-91316635D01*
X121894232Y-91316633D01*
X121893542Y-91310072D01*
X121834527Y-91128444D01*
X121813990Y-91092872D01*
X121779341Y-91032860D01*
X121739040Y-90963056D01*
X121729336Y-90952278D01*
X121615675Y-90826045D01*
X121615674Y-90826044D01*
X121611253Y-90821134D01*
X121456752Y-90708882D01*
X121450724Y-90706198D01*
X121450722Y-90706197D01*
X121288319Y-90633891D01*
X121288318Y-90633891D01*
X121282288Y-90631206D01*
X121188888Y-90611353D01*
X121101944Y-90592872D01*
X121101939Y-90592872D01*
X121095487Y-90591500D01*
X120904513Y-90591500D01*
X120898061Y-90592872D01*
X120898056Y-90592872D01*
X120811112Y-90611353D01*
X120717712Y-90631206D01*
X120711682Y-90633891D01*
X120711681Y-90633891D01*
X120549278Y-90706197D01*
X120549276Y-90706198D01*
X120543248Y-90708882D01*
X120388747Y-90821134D01*
X120384326Y-90826044D01*
X120384325Y-90826045D01*
X120270665Y-90952278D01*
X120260960Y-90963056D01*
X120220659Y-91032860D01*
X120186011Y-91092872D01*
X120165473Y-91128444D01*
X120140210Y-91206197D01*
X120119833Y-91268909D01*
X120079759Y-91327514D01*
X120014363Y-91355151D01*
X119944406Y-91343044D01*
X119892100Y-91295038D01*
X119880167Y-91268909D01*
X119859791Y-91206197D01*
X119834527Y-91128444D01*
X119813990Y-91092872D01*
X119779341Y-91032860D01*
X119739040Y-90963056D01*
X119729336Y-90952278D01*
X119615675Y-90826045D01*
X119615674Y-90826044D01*
X119611253Y-90821134D01*
X119456752Y-90708882D01*
X119450724Y-90706198D01*
X119450722Y-90706197D01*
X119288319Y-90633891D01*
X119288318Y-90633891D01*
X119282288Y-90631206D01*
X119188888Y-90611353D01*
X119101944Y-90592872D01*
X119101939Y-90592872D01*
X119095487Y-90591500D01*
X118904513Y-90591500D01*
X118898061Y-90592872D01*
X118898056Y-90592872D01*
X118811112Y-90611353D01*
X118717712Y-90631206D01*
X118711682Y-90633891D01*
X118711681Y-90633891D01*
X118549278Y-90706197D01*
X118549276Y-90706198D01*
X118543248Y-90708882D01*
X118388747Y-90821134D01*
X118384326Y-90826044D01*
X118384325Y-90826045D01*
X118270665Y-90952278D01*
X118260960Y-90963056D01*
X118220659Y-91032860D01*
X118186011Y-91092872D01*
X118165473Y-91128444D01*
X118106458Y-91310072D01*
X118105768Y-91316633D01*
X118105768Y-91316635D01*
X118098699Y-91383891D01*
X118086496Y-91500000D01*
X114913504Y-91500000D01*
X114901301Y-91383891D01*
X114894232Y-91316635D01*
X114894232Y-91316633D01*
X114893542Y-91310072D01*
X114834527Y-91128444D01*
X114813990Y-91092872D01*
X114779341Y-91032860D01*
X114739040Y-90963056D01*
X114729336Y-90952278D01*
X114615675Y-90826045D01*
X114615674Y-90826044D01*
X114611253Y-90821134D01*
X114456752Y-90708882D01*
X114450724Y-90706198D01*
X114450722Y-90706197D01*
X114288319Y-90633891D01*
X114288318Y-90633891D01*
X114282288Y-90631206D01*
X114188888Y-90611353D01*
X114101944Y-90592872D01*
X114101939Y-90592872D01*
X114095487Y-90591500D01*
X113904513Y-90591500D01*
X113898061Y-90592872D01*
X113898056Y-90592872D01*
X113811112Y-90611353D01*
X113717712Y-90631206D01*
X113711682Y-90633891D01*
X113711681Y-90633891D01*
X113549278Y-90706197D01*
X113549276Y-90706198D01*
X113543248Y-90708882D01*
X113388747Y-90821134D01*
X113384326Y-90826044D01*
X113384325Y-90826045D01*
X113270665Y-90952278D01*
X113260960Y-90963056D01*
X113220659Y-91032860D01*
X113186011Y-91092872D01*
X113165473Y-91128444D01*
X113106458Y-91310072D01*
X113105768Y-91316633D01*
X113105768Y-91316635D01*
X113098699Y-91383891D01*
X113086496Y-91500000D01*
X113087186Y-91506565D01*
X113102993Y-91656956D01*
X113106458Y-91689928D01*
X113165473Y-91871556D01*
X113168776Y-91877278D01*
X113168777Y-91877279D01*
X113203257Y-91937000D01*
X113219995Y-92005995D01*
X113203257Y-92063000D01*
X113195726Y-92076045D01*
X113165473Y-92128444D01*
X113106458Y-92310072D01*
X113105768Y-92316633D01*
X113105768Y-92316635D01*
X113092810Y-92439928D01*
X113086496Y-92500000D01*
X90874023Y-92500000D01*
X90834527Y-92378444D01*
X90827406Y-92366109D01*
X90784109Y-92291118D01*
X90739040Y-92213056D01*
X90718216Y-92189928D01*
X90615675Y-92076045D01*
X90615674Y-92076044D01*
X90611253Y-92071134D01*
X90512157Y-91999136D01*
X90462094Y-91962763D01*
X90462093Y-91962762D01*
X90456752Y-91958882D01*
X90450724Y-91956198D01*
X90450722Y-91956197D01*
X90288319Y-91883891D01*
X90288318Y-91883891D01*
X90282288Y-91881206D01*
X90188887Y-91861353D01*
X90101944Y-91842872D01*
X90101939Y-91842872D01*
X90095487Y-91841500D01*
X89904513Y-91841500D01*
X89898061Y-91842872D01*
X89898056Y-91842872D01*
X89811113Y-91861353D01*
X89717712Y-91881206D01*
X89551248Y-91955320D01*
X89480882Y-91964754D01*
X89448753Y-91955320D01*
X89282288Y-91881206D01*
X89188887Y-91861353D01*
X89101944Y-91842872D01*
X89101939Y-91842872D01*
X89095487Y-91841500D01*
X88904513Y-91841500D01*
X88898061Y-91842872D01*
X88898056Y-91842872D01*
X88811113Y-91861353D01*
X88717712Y-91881206D01*
X88711682Y-91883891D01*
X88711681Y-91883891D01*
X88549278Y-91956197D01*
X88549276Y-91956198D01*
X88543248Y-91958882D01*
X88537907Y-91962762D01*
X88537906Y-91962763D01*
X88487843Y-91999136D01*
X88388747Y-92071134D01*
X88384326Y-92076044D01*
X88384325Y-92076045D01*
X88281785Y-92189928D01*
X88260960Y-92213056D01*
X88215891Y-92291118D01*
X88172595Y-92366109D01*
X88165473Y-92378444D01*
X88106458Y-92560072D01*
X88105768Y-92566633D01*
X88105768Y-92566635D01*
X88092810Y-92689928D01*
X88086496Y-92750000D01*
X84513346Y-92750000D01*
X84611253Y-92678866D01*
X84668514Y-92615271D01*
X84734621Y-92541852D01*
X84734622Y-92541851D01*
X84739040Y-92536944D01*
X84813197Y-92408500D01*
X84831223Y-92377279D01*
X84831224Y-92377278D01*
X84834527Y-92371556D01*
X84893542Y-92189928D01*
X84905512Y-92076045D01*
X84912814Y-92006565D01*
X84913504Y-92000000D01*
X84901301Y-91883891D01*
X84894232Y-91816635D01*
X84894232Y-91816633D01*
X84893542Y-91810072D01*
X84834527Y-91628444D01*
X84739040Y-91463056D01*
X84725070Y-91447540D01*
X84615675Y-91326045D01*
X84615674Y-91326044D01*
X84611253Y-91321134D01*
X84456752Y-91208882D01*
X84450724Y-91206198D01*
X84450722Y-91206197D01*
X84288319Y-91133891D01*
X84288318Y-91133891D01*
X84282288Y-91131206D01*
X84188888Y-91111353D01*
X84101944Y-91092872D01*
X84101939Y-91092872D01*
X84095487Y-91091500D01*
X83904513Y-91091500D01*
X83898061Y-91092872D01*
X83898056Y-91092872D01*
X83811112Y-91111353D01*
X83717712Y-91131206D01*
X83711682Y-91133891D01*
X83711681Y-91133891D01*
X83549278Y-91206197D01*
X83549276Y-91206198D01*
X83543248Y-91208882D01*
X83388747Y-91321134D01*
X83384326Y-91326044D01*
X83384325Y-91326045D01*
X83274931Y-91447540D01*
X83260960Y-91463056D01*
X83165473Y-91628444D01*
X83106458Y-91810072D01*
X83105768Y-91816633D01*
X83105768Y-91816635D01*
X83098699Y-91883891D01*
X83086496Y-92000000D01*
X79508000Y-92000000D01*
X79508000Y-87750000D01*
X86586496Y-87750000D01*
X86606458Y-87939928D01*
X86665473Y-88121556D01*
X86760960Y-88286944D01*
X86888747Y-88428866D01*
X87043248Y-88541118D01*
X87049276Y-88543802D01*
X87049278Y-88543803D01*
X87156408Y-88591500D01*
X87217712Y-88618794D01*
X87311113Y-88638647D01*
X87398056Y-88657128D01*
X87398061Y-88657128D01*
X87404513Y-88658500D01*
X87502183Y-88658500D01*
X87570304Y-88678502D01*
X87616797Y-88732158D01*
X87626901Y-88802432D01*
X87595819Y-88868810D01*
X87515379Y-88958148D01*
X87510960Y-88963056D01*
X87465891Y-89041118D01*
X87422595Y-89116109D01*
X87415473Y-89128444D01*
X87356458Y-89310072D01*
X87336496Y-89500000D01*
X87337186Y-89506565D01*
X87346594Y-89596073D01*
X87356458Y-89689928D01*
X87415473Y-89871556D01*
X87510960Y-90036944D01*
X87515378Y-90041851D01*
X87515379Y-90041852D01*
X87542022Y-90071442D01*
X87638747Y-90178866D01*
X87737843Y-90250864D01*
X87784273Y-90284597D01*
X87793248Y-90291118D01*
X87799276Y-90293802D01*
X87799278Y-90293803D01*
X87961681Y-90366109D01*
X87967712Y-90368794D01*
X88061113Y-90388647D01*
X88148056Y-90407128D01*
X88148061Y-90407128D01*
X88154513Y-90408500D01*
X88345487Y-90408500D01*
X88351939Y-90407128D01*
X88351944Y-90407128D01*
X88438887Y-90388647D01*
X88532288Y-90368794D01*
X88538319Y-90366109D01*
X88700722Y-90293803D01*
X88700724Y-90293802D01*
X88706752Y-90291118D01*
X88715728Y-90284597D01*
X88762157Y-90250864D01*
X88861253Y-90178866D01*
X88957978Y-90071442D01*
X88984621Y-90041852D01*
X88984622Y-90041851D01*
X88989040Y-90036944D01*
X89084527Y-89871556D01*
X89143542Y-89689928D01*
X89153407Y-89596073D01*
X89162814Y-89506565D01*
X89163504Y-89500000D01*
X89143542Y-89310072D01*
X89109451Y-89205151D01*
X129087296Y-89205151D01*
X129099480Y-89458798D01*
X129124250Y-89583327D01*
X129145455Y-89689928D01*
X129149021Y-89707857D01*
X129150600Y-89712255D01*
X129150602Y-89712262D01*
X129233248Y-89942449D01*
X129234831Y-89946858D01*
X129355025Y-90170551D01*
X129357820Y-90174294D01*
X129357822Y-90174297D01*
X129504171Y-90370282D01*
X129504176Y-90370288D01*
X129506963Y-90374020D01*
X129510272Y-90377300D01*
X129510277Y-90377306D01*
X129608859Y-90475031D01*
X129687307Y-90552797D01*
X129691069Y-90555555D01*
X129691072Y-90555558D01*
X129740091Y-90591500D01*
X129892094Y-90702953D01*
X129896229Y-90705129D01*
X129896233Y-90705131D01*
X130084137Y-90803992D01*
X130135109Y-90853411D01*
X130151272Y-90922544D01*
X130127493Y-90989440D01*
X130071322Y-91032860D01*
X130025469Y-91041500D01*
X129551866Y-91041500D01*
X129489684Y-91048255D01*
X129353295Y-91099385D01*
X129236739Y-91186739D01*
X129149385Y-91303295D01*
X129098255Y-91439684D01*
X129091500Y-91501866D01*
X129091500Y-93998134D01*
X129098255Y-94060316D01*
X129149385Y-94196705D01*
X129236739Y-94313261D01*
X129353295Y-94400615D01*
X129489684Y-94451745D01*
X129551866Y-94458500D01*
X132048134Y-94458500D01*
X132110316Y-94451745D01*
X132246705Y-94400615D01*
X132363261Y-94313261D01*
X132450615Y-94196705D01*
X132501745Y-94060316D01*
X132508500Y-93998134D01*
X132508500Y-91501866D01*
X132501745Y-91439684D01*
X132450615Y-91303295D01*
X132363261Y-91186739D01*
X132246705Y-91099385D01*
X132110316Y-91048255D01*
X132048134Y-91041500D01*
X131570964Y-91041500D01*
X131502843Y-91021498D01*
X131456350Y-90967842D01*
X131446246Y-90897568D01*
X131475740Y-90832988D01*
X131521225Y-90799733D01*
X131591110Y-90769708D01*
X131595090Y-90767245D01*
X131595094Y-90767243D01*
X131803064Y-90638547D01*
X131803066Y-90638545D01*
X131807047Y-90636082D01*
X131812807Y-90631206D01*
X131997289Y-90475031D01*
X131997291Y-90475029D01*
X132000862Y-90472006D01*
X132168295Y-90281084D01*
X132305669Y-90067512D01*
X132409967Y-89835980D01*
X132478896Y-89591575D01*
X132510943Y-89339667D01*
X132513291Y-89250000D01*
X132509612Y-89200497D01*
X132494818Y-89001411D01*
X132494817Y-89001407D01*
X132494472Y-88996759D01*
X132485736Y-88958148D01*
X132439459Y-88753639D01*
X132438428Y-88749082D01*
X132431847Y-88732158D01*
X132348084Y-88516762D01*
X132348083Y-88516760D01*
X132346391Y-88512409D01*
X132325866Y-88476498D01*
X132222702Y-88295997D01*
X132222700Y-88295995D01*
X132220383Y-88291940D01*
X132063171Y-88092517D01*
X131907637Y-87946206D01*
X131881610Y-87921722D01*
X131881608Y-87921720D01*
X131878209Y-87918523D01*
X131812186Y-87872721D01*
X131673393Y-87776437D01*
X131673390Y-87776435D01*
X131669561Y-87773779D01*
X131665384Y-87771719D01*
X131665377Y-87771715D01*
X131445996Y-87663528D01*
X131445992Y-87663527D01*
X131441810Y-87661464D01*
X131199960Y-87584047D01*
X131150825Y-87576045D01*
X130953935Y-87543980D01*
X130953934Y-87543980D01*
X130949323Y-87543229D01*
X130822365Y-87541567D01*
X130700083Y-87539966D01*
X130700080Y-87539966D01*
X130695406Y-87539905D01*
X130443787Y-87574149D01*
X130199993Y-87645208D01*
X129969380Y-87751522D01*
X129965471Y-87754085D01*
X129760928Y-87888189D01*
X129760923Y-87888193D01*
X129757015Y-87890755D01*
X129567562Y-88059848D01*
X129405183Y-88255087D01*
X129273447Y-88472182D01*
X129271638Y-88476496D01*
X129271637Y-88476498D01*
X129195893Y-88657128D01*
X129175246Y-88706365D01*
X129112738Y-88952490D01*
X129087296Y-89205151D01*
X89109451Y-89205151D01*
X89084527Y-89128444D01*
X89077406Y-89116109D01*
X89034109Y-89041118D01*
X88989040Y-88963056D01*
X88983721Y-88957148D01*
X88865675Y-88826045D01*
X88865674Y-88826044D01*
X88861253Y-88821134D01*
X88706752Y-88708882D01*
X88700724Y-88706198D01*
X88700722Y-88706197D01*
X88538319Y-88633891D01*
X88538318Y-88633891D01*
X88532288Y-88631206D01*
X88438887Y-88611353D01*
X88351944Y-88592872D01*
X88351939Y-88592872D01*
X88345487Y-88591500D01*
X88247817Y-88591500D01*
X88179696Y-88571498D01*
X88133203Y-88517842D01*
X88123099Y-88447568D01*
X88154181Y-88381190D01*
X88234621Y-88291852D01*
X88234622Y-88291851D01*
X88239040Y-88286944D01*
X88260370Y-88250000D01*
X99836496Y-88250000D01*
X99837186Y-88256565D01*
X99840519Y-88288272D01*
X99856458Y-88439928D01*
X99915473Y-88621556D01*
X99918776Y-88627278D01*
X99918777Y-88627279D01*
X99936803Y-88658500D01*
X100010960Y-88786944D01*
X100015378Y-88791851D01*
X100015379Y-88791852D01*
X100084672Y-88868810D01*
X100138747Y-88928866D01*
X100293248Y-89041118D01*
X100299276Y-89043802D01*
X100299278Y-89043803D01*
X100461681Y-89116109D01*
X100467712Y-89118794D01*
X100542680Y-89134729D01*
X100648056Y-89157128D01*
X100648061Y-89157128D01*
X100654513Y-89158500D01*
X100845487Y-89158500D01*
X100851939Y-89157128D01*
X100851944Y-89157128D01*
X100957320Y-89134729D01*
X101032288Y-89118794D01*
X101038319Y-89116109D01*
X101200722Y-89043803D01*
X101200724Y-89043802D01*
X101206752Y-89041118D01*
X101361253Y-88928866D01*
X101415328Y-88868810D01*
X101484621Y-88791852D01*
X101484622Y-88791851D01*
X101489040Y-88786944D01*
X101563197Y-88658500D01*
X101581223Y-88627279D01*
X101581224Y-88627278D01*
X101584527Y-88621556D01*
X101643542Y-88439928D01*
X101659482Y-88288272D01*
X101662814Y-88256565D01*
X101663504Y-88250000D01*
X123086496Y-88250000D01*
X123087186Y-88256565D01*
X123090519Y-88288272D01*
X123106458Y-88439928D01*
X123165473Y-88621556D01*
X123168776Y-88627278D01*
X123168777Y-88627279D01*
X123186803Y-88658500D01*
X123260960Y-88786944D01*
X123265378Y-88791851D01*
X123265379Y-88791852D01*
X123334672Y-88868810D01*
X123388747Y-88928866D01*
X123543248Y-89041118D01*
X123549276Y-89043802D01*
X123549278Y-89043803D01*
X123711681Y-89116109D01*
X123717712Y-89118794D01*
X123792680Y-89134729D01*
X123898056Y-89157128D01*
X123898061Y-89157128D01*
X123904513Y-89158500D01*
X124095487Y-89158500D01*
X124101939Y-89157128D01*
X124101944Y-89157128D01*
X124207320Y-89134729D01*
X124282288Y-89118794D01*
X124288319Y-89116109D01*
X124450722Y-89043803D01*
X124450724Y-89043802D01*
X124456752Y-89041118D01*
X124611253Y-88928866D01*
X124665328Y-88868810D01*
X124734621Y-88791852D01*
X124734622Y-88791851D01*
X124739040Y-88786944D01*
X124813197Y-88658500D01*
X124831223Y-88627279D01*
X124831224Y-88627278D01*
X124834527Y-88621556D01*
X124893542Y-88439928D01*
X124909482Y-88288272D01*
X124912814Y-88256565D01*
X124913504Y-88250000D01*
X124893542Y-88060072D01*
X124834527Y-87878444D01*
X124739040Y-87713056D01*
X124733703Y-87707128D01*
X124615675Y-87576045D01*
X124615674Y-87576044D01*
X124611253Y-87571134D01*
X124456752Y-87458882D01*
X124450724Y-87456198D01*
X124450722Y-87456197D01*
X124288319Y-87383891D01*
X124288318Y-87383891D01*
X124282288Y-87381206D01*
X124188887Y-87361353D01*
X124101944Y-87342872D01*
X124101939Y-87342872D01*
X124095487Y-87341500D01*
X123904513Y-87341500D01*
X123898061Y-87342872D01*
X123898056Y-87342872D01*
X123811113Y-87361353D01*
X123717712Y-87381206D01*
X123711682Y-87383891D01*
X123711681Y-87383891D01*
X123549278Y-87456197D01*
X123549276Y-87456198D01*
X123543248Y-87458882D01*
X123388747Y-87571134D01*
X123384326Y-87576044D01*
X123384325Y-87576045D01*
X123266298Y-87707128D01*
X123260960Y-87713056D01*
X123165473Y-87878444D01*
X123106458Y-88060072D01*
X123086496Y-88250000D01*
X101663504Y-88250000D01*
X101643542Y-88060072D01*
X101584527Y-87878444D01*
X101489040Y-87713056D01*
X101483703Y-87707128D01*
X101365675Y-87576045D01*
X101365674Y-87576044D01*
X101361253Y-87571134D01*
X101206752Y-87458882D01*
X101200724Y-87456198D01*
X101200722Y-87456197D01*
X101038319Y-87383891D01*
X101038318Y-87383891D01*
X101032288Y-87381206D01*
X100938887Y-87361353D01*
X100851944Y-87342872D01*
X100851939Y-87342872D01*
X100845487Y-87341500D01*
X100654513Y-87341500D01*
X100648061Y-87342872D01*
X100648056Y-87342872D01*
X100561113Y-87361353D01*
X100467712Y-87381206D01*
X100461682Y-87383891D01*
X100461681Y-87383891D01*
X100299278Y-87456197D01*
X100299276Y-87456198D01*
X100293248Y-87458882D01*
X100138747Y-87571134D01*
X100134326Y-87576044D01*
X100134325Y-87576045D01*
X100016298Y-87707128D01*
X100010960Y-87713056D01*
X99915473Y-87878444D01*
X99856458Y-88060072D01*
X99836496Y-88250000D01*
X88260370Y-88250000D01*
X88334527Y-88121556D01*
X88393542Y-87939928D01*
X88413504Y-87750000D01*
X88396397Y-87587237D01*
X88394232Y-87566635D01*
X88394232Y-87566633D01*
X88393542Y-87560072D01*
X88334527Y-87378444D01*
X88313990Y-87342872D01*
X88242341Y-87218774D01*
X88239040Y-87213056D01*
X88111253Y-87071134D01*
X87956752Y-86958882D01*
X87950724Y-86956198D01*
X87950722Y-86956197D01*
X87788319Y-86883891D01*
X87788318Y-86883891D01*
X87782288Y-86881206D01*
X87688887Y-86861353D01*
X87601944Y-86842872D01*
X87601939Y-86842872D01*
X87595487Y-86841500D01*
X87404513Y-86841500D01*
X87398061Y-86842872D01*
X87398056Y-86842872D01*
X87311113Y-86861353D01*
X87217712Y-86881206D01*
X87211682Y-86883891D01*
X87211681Y-86883891D01*
X87049278Y-86956197D01*
X87049276Y-86956198D01*
X87043248Y-86958882D01*
X86888747Y-87071134D01*
X86760960Y-87213056D01*
X86757659Y-87218774D01*
X86686011Y-87342872D01*
X86665473Y-87378444D01*
X86606458Y-87560072D01*
X86605768Y-87566633D01*
X86605768Y-87566635D01*
X86603603Y-87587237D01*
X86586496Y-87750000D01*
X79508000Y-87750000D01*
X79508000Y-86800000D01*
X89086496Y-86800000D01*
X89106458Y-86989928D01*
X89165473Y-87171556D01*
X89260960Y-87336944D01*
X89265378Y-87341851D01*
X89265379Y-87341852D01*
X89303231Y-87383891D01*
X89388747Y-87478866D01*
X89472760Y-87539905D01*
X89533516Y-87584047D01*
X89543248Y-87591118D01*
X89549276Y-87593802D01*
X89549278Y-87593803D01*
X89669141Y-87647169D01*
X89717712Y-87668794D01*
X89811112Y-87688647D01*
X89898056Y-87707128D01*
X89898061Y-87707128D01*
X89904513Y-87708500D01*
X90095487Y-87708500D01*
X90101939Y-87707128D01*
X90101944Y-87707128D01*
X90188888Y-87688647D01*
X90282288Y-87668794D01*
X90330859Y-87647169D01*
X90450722Y-87593803D01*
X90450724Y-87593802D01*
X90456752Y-87591118D01*
X90466485Y-87584047D01*
X90527240Y-87539905D01*
X90611253Y-87478866D01*
X90696769Y-87383891D01*
X90734621Y-87341852D01*
X90734622Y-87341851D01*
X90739040Y-87336944D01*
X90834527Y-87171556D01*
X90893542Y-86989928D01*
X90913504Y-86800000D01*
X90893542Y-86610072D01*
X90834527Y-86428444D01*
X90739040Y-86263056D01*
X90644898Y-86158500D01*
X90615675Y-86126045D01*
X90615674Y-86126044D01*
X90611253Y-86121134D01*
X90456752Y-86008882D01*
X90450724Y-86006198D01*
X90450722Y-86006197D01*
X90288319Y-85933891D01*
X90288318Y-85933891D01*
X90282288Y-85931206D01*
X90188887Y-85911353D01*
X90101944Y-85892872D01*
X90101939Y-85892872D01*
X90095487Y-85891500D01*
X89904513Y-85891500D01*
X89898061Y-85892872D01*
X89898056Y-85892872D01*
X89811113Y-85911353D01*
X89717712Y-85931206D01*
X89711682Y-85933891D01*
X89711681Y-85933891D01*
X89549278Y-86006197D01*
X89549276Y-86006198D01*
X89543248Y-86008882D01*
X89388747Y-86121134D01*
X89384326Y-86126044D01*
X89384325Y-86126045D01*
X89355103Y-86158500D01*
X89260960Y-86263056D01*
X89165473Y-86428444D01*
X89106458Y-86610072D01*
X89086496Y-86800000D01*
X79508000Y-86800000D01*
X79508000Y-84000000D01*
X88336496Y-84000000D01*
X88337186Y-84006565D01*
X88344489Y-84076045D01*
X88356458Y-84189928D01*
X88415473Y-84371556D01*
X88418776Y-84377278D01*
X88418777Y-84377279D01*
X88423078Y-84384729D01*
X88510960Y-84536944D01*
X88515378Y-84541851D01*
X88515379Y-84541852D01*
X88634325Y-84673955D01*
X88638747Y-84678866D01*
X88793248Y-84791118D01*
X88799276Y-84793802D01*
X88799278Y-84793803D01*
X88906408Y-84841500D01*
X88967712Y-84868794D01*
X89042680Y-84884729D01*
X89148056Y-84907128D01*
X89148061Y-84907128D01*
X89154513Y-84908500D01*
X89345487Y-84908500D01*
X89351939Y-84907128D01*
X89351944Y-84907128D01*
X89457320Y-84884729D01*
X89532288Y-84868794D01*
X89593592Y-84841500D01*
X89700722Y-84793803D01*
X89700724Y-84793802D01*
X89706752Y-84791118D01*
X89861253Y-84678866D01*
X89865675Y-84673955D01*
X89984621Y-84541852D01*
X89984622Y-84541851D01*
X89989040Y-84536944D01*
X90076922Y-84384729D01*
X90081223Y-84377279D01*
X90081224Y-84377278D01*
X90084527Y-84371556D01*
X90143542Y-84189928D01*
X90155512Y-84076045D01*
X90162814Y-84006565D01*
X90163504Y-84000000D01*
X94336496Y-84000000D01*
X94337186Y-84006565D01*
X94344489Y-84076045D01*
X94356458Y-84189928D01*
X94415473Y-84371556D01*
X94418776Y-84377278D01*
X94418777Y-84377279D01*
X94423078Y-84384729D01*
X94510960Y-84536944D01*
X94515378Y-84541851D01*
X94515379Y-84541852D01*
X94634325Y-84673955D01*
X94638747Y-84678866D01*
X94793248Y-84791118D01*
X94799276Y-84793802D01*
X94799278Y-84793803D01*
X94906408Y-84841500D01*
X94967712Y-84868794D01*
X95042680Y-84884729D01*
X95148056Y-84907128D01*
X95148061Y-84907128D01*
X95154513Y-84908500D01*
X95345487Y-84908500D01*
X95351939Y-84907128D01*
X95351944Y-84907128D01*
X95457320Y-84884729D01*
X95532288Y-84868794D01*
X95593592Y-84841500D01*
X95700722Y-84793803D01*
X95700724Y-84793802D01*
X95706752Y-84791118D01*
X95763346Y-84750000D01*
X104086496Y-84750000D01*
X104087186Y-84756565D01*
X104103011Y-84907128D01*
X104106458Y-84939928D01*
X104165473Y-85121556D01*
X104260960Y-85286944D01*
X104388747Y-85428866D01*
X104543248Y-85541118D01*
X104549276Y-85543802D01*
X104549278Y-85543803D01*
X104600560Y-85566635D01*
X104717712Y-85618794D01*
X104811113Y-85638647D01*
X104898056Y-85657128D01*
X104898061Y-85657128D01*
X104904513Y-85658500D01*
X105095487Y-85658500D01*
X105100401Y-85657456D01*
X105169662Y-85670122D01*
X105222112Y-85719658D01*
X105260960Y-85786944D01*
X105265378Y-85791851D01*
X105265379Y-85791852D01*
X105356338Y-85892872D01*
X105388747Y-85928866D01*
X105543248Y-86041118D01*
X105549276Y-86043802D01*
X105549278Y-86043803D01*
X105709799Y-86115271D01*
X105717712Y-86118794D01*
X105811112Y-86138647D01*
X105898056Y-86157128D01*
X105898061Y-86157128D01*
X105904513Y-86158500D01*
X106095487Y-86158500D01*
X106101939Y-86157128D01*
X106101944Y-86157128D01*
X106188888Y-86138647D01*
X106282288Y-86118794D01*
X106290201Y-86115271D01*
X106450722Y-86043803D01*
X106450724Y-86043802D01*
X106456752Y-86041118D01*
X106611253Y-85928866D01*
X106643662Y-85892872D01*
X106734621Y-85791852D01*
X106734622Y-85791851D01*
X106739040Y-85786944D01*
X106760370Y-85750000D01*
X123086496Y-85750000D01*
X123106458Y-85939928D01*
X123165473Y-86121556D01*
X123168776Y-86127278D01*
X123168777Y-86127279D01*
X123186803Y-86158500D01*
X123260960Y-86286944D01*
X123388747Y-86428866D01*
X123543248Y-86541118D01*
X123549276Y-86543802D01*
X123549278Y-86543803D01*
X123684021Y-86603794D01*
X123717712Y-86618794D01*
X123811113Y-86638647D01*
X123898056Y-86657128D01*
X123898061Y-86657128D01*
X123904513Y-86658500D01*
X124095487Y-86658500D01*
X124101939Y-86657128D01*
X124101944Y-86657128D01*
X124188887Y-86638647D01*
X124282288Y-86618794D01*
X124315979Y-86603794D01*
X124450722Y-86543803D01*
X124450724Y-86543802D01*
X124456752Y-86541118D01*
X124611253Y-86428866D01*
X124739040Y-86286944D01*
X124813197Y-86158500D01*
X124831223Y-86127279D01*
X124831224Y-86127278D01*
X124834527Y-86121556D01*
X124893542Y-85939928D01*
X124913504Y-85750000D01*
X124893542Y-85560072D01*
X124834527Y-85378444D01*
X124739040Y-85213056D01*
X124611253Y-85071134D01*
X124456752Y-84958882D01*
X124450724Y-84956198D01*
X124450722Y-84956197D01*
X124288319Y-84883891D01*
X124288318Y-84883891D01*
X124282288Y-84881206D01*
X124188887Y-84861353D01*
X124101944Y-84842872D01*
X124101939Y-84842872D01*
X124095487Y-84841500D01*
X123904513Y-84841500D01*
X123898061Y-84842872D01*
X123898056Y-84842872D01*
X123811113Y-84861353D01*
X123717712Y-84881206D01*
X123711682Y-84883891D01*
X123711681Y-84883891D01*
X123549278Y-84956197D01*
X123549276Y-84956198D01*
X123543248Y-84958882D01*
X123388747Y-85071134D01*
X123260960Y-85213056D01*
X123165473Y-85378444D01*
X123106458Y-85560072D01*
X123086496Y-85750000D01*
X106760370Y-85750000D01*
X106813861Y-85657350D01*
X106831223Y-85627279D01*
X106831224Y-85627278D01*
X106834527Y-85621556D01*
X106893542Y-85439928D01*
X106913504Y-85250000D01*
X106893542Y-85060072D01*
X106834527Y-84878444D01*
X106827406Y-84866109D01*
X106784109Y-84791118D01*
X106739040Y-84713056D01*
X106711752Y-84682749D01*
X106615675Y-84576045D01*
X106615674Y-84576044D01*
X106611253Y-84571134D01*
X106456752Y-84458882D01*
X106450724Y-84456198D01*
X106450722Y-84456197D01*
X106288319Y-84383891D01*
X106288318Y-84383891D01*
X106282288Y-84381206D01*
X106188888Y-84361353D01*
X106101944Y-84342872D01*
X106101939Y-84342872D01*
X106095487Y-84341500D01*
X105904513Y-84341500D01*
X105899599Y-84342544D01*
X105830338Y-84329878D01*
X105777887Y-84280341D01*
X105742341Y-84218774D01*
X105739040Y-84213056D01*
X105718216Y-84189928D01*
X105615675Y-84076045D01*
X105615674Y-84076044D01*
X105611253Y-84071134D01*
X105456752Y-83958882D01*
X105450724Y-83956198D01*
X105450722Y-83956197D01*
X105288319Y-83883891D01*
X105288318Y-83883891D01*
X105282288Y-83881206D01*
X105188888Y-83861353D01*
X105101944Y-83842872D01*
X105101939Y-83842872D01*
X105095487Y-83841500D01*
X104904513Y-83841500D01*
X104898061Y-83842872D01*
X104898056Y-83842872D01*
X104811112Y-83861353D01*
X104717712Y-83881206D01*
X104711682Y-83883891D01*
X104711681Y-83883891D01*
X104549278Y-83956197D01*
X104549276Y-83956198D01*
X104543248Y-83958882D01*
X104388747Y-84071134D01*
X104384326Y-84076044D01*
X104384325Y-84076045D01*
X104281785Y-84189928D01*
X104260960Y-84213056D01*
X104257659Y-84218774D01*
X104186011Y-84342872D01*
X104165473Y-84378444D01*
X104106458Y-84560072D01*
X104105768Y-84566633D01*
X104105768Y-84566635D01*
X104093972Y-84678866D01*
X104086496Y-84750000D01*
X95763346Y-84750000D01*
X95861253Y-84678866D01*
X95865675Y-84673955D01*
X95984621Y-84541852D01*
X95984622Y-84541851D01*
X95989040Y-84536944D01*
X96076922Y-84384729D01*
X96081223Y-84377279D01*
X96081224Y-84377278D01*
X96084527Y-84371556D01*
X96143542Y-84189928D01*
X96155512Y-84076045D01*
X96162814Y-84006565D01*
X96163504Y-84000000D01*
X96151301Y-83883891D01*
X96144232Y-83816635D01*
X96144232Y-83816633D01*
X96143542Y-83810072D01*
X96084527Y-83628444D01*
X95989040Y-83463056D01*
X95861253Y-83321134D01*
X95706752Y-83208882D01*
X95700724Y-83206198D01*
X95700722Y-83206197D01*
X95538319Y-83133891D01*
X95538318Y-83133891D01*
X95532288Y-83131206D01*
X95438888Y-83111353D01*
X95351944Y-83092872D01*
X95351939Y-83092872D01*
X95345487Y-83091500D01*
X95154513Y-83091500D01*
X95148061Y-83092872D01*
X95148056Y-83092872D01*
X95061112Y-83111353D01*
X94967712Y-83131206D01*
X94961682Y-83133891D01*
X94961681Y-83133891D01*
X94799278Y-83206197D01*
X94799276Y-83206198D01*
X94793248Y-83208882D01*
X94638747Y-83321134D01*
X94510960Y-83463056D01*
X94415473Y-83628444D01*
X94356458Y-83810072D01*
X94355768Y-83816633D01*
X94355768Y-83816635D01*
X94348699Y-83883891D01*
X94336496Y-84000000D01*
X90163504Y-84000000D01*
X90151301Y-83883891D01*
X90144232Y-83816635D01*
X90144232Y-83816633D01*
X90143542Y-83810072D01*
X90084527Y-83628444D01*
X89989040Y-83463056D01*
X89861253Y-83321134D01*
X89706752Y-83208882D01*
X89700724Y-83206198D01*
X89700722Y-83206197D01*
X89538319Y-83133891D01*
X89538318Y-83133891D01*
X89532288Y-83131206D01*
X89438888Y-83111353D01*
X89351944Y-83092872D01*
X89351939Y-83092872D01*
X89345487Y-83091500D01*
X89154513Y-83091500D01*
X89148061Y-83092872D01*
X89148056Y-83092872D01*
X89061112Y-83111353D01*
X88967712Y-83131206D01*
X88961682Y-83133891D01*
X88961681Y-83133891D01*
X88799278Y-83206197D01*
X88799276Y-83206198D01*
X88793248Y-83208882D01*
X88638747Y-83321134D01*
X88510960Y-83463056D01*
X88415473Y-83628444D01*
X88356458Y-83810072D01*
X88355768Y-83816633D01*
X88355768Y-83816635D01*
X88348699Y-83883891D01*
X88336496Y-84000000D01*
X79508000Y-84000000D01*
X79508000Y-80547064D01*
X80707707Y-80547064D01*
X80721916Y-80641014D01*
X80733676Y-80718774D01*
X80736825Y-80739599D01*
X80739028Y-80745585D01*
X80739029Y-80745591D01*
X80801860Y-80916360D01*
X80801862Y-80916365D01*
X80804063Y-80922346D01*
X80807425Y-80927768D01*
X80885565Y-81053794D01*
X80906674Y-81087840D01*
X80911055Y-81092473D01*
X80911056Y-81092474D01*
X80937243Y-81120166D01*
X81040466Y-81229322D01*
X81045696Y-81232984D01*
X81045697Y-81232985D01*
X81069997Y-81250000D01*
X81199975Y-81341011D01*
X81205838Y-81343548D01*
X81372825Y-81415810D01*
X81372829Y-81415811D01*
X81378684Y-81418345D01*
X81384931Y-81419650D01*
X81384934Y-81419651D01*
X81564557Y-81457176D01*
X81564562Y-81457177D01*
X81569293Y-81458165D01*
X81575685Y-81458500D01*
X81718663Y-81458500D01*
X81839696Y-81446206D01*
X81857378Y-81444410D01*
X81857379Y-81444410D01*
X81863727Y-81443765D01*
X81944843Y-81418345D01*
X82043451Y-81387444D01*
X82043456Y-81387442D01*
X82049541Y-81385535D01*
X82136475Y-81337346D01*
X82214271Y-81294223D01*
X82214274Y-81294221D01*
X82219850Y-81291130D01*
X82224691Y-81286981D01*
X82224695Y-81286978D01*
X82267838Y-81250000D01*
X83836496Y-81250000D01*
X83837186Y-81256565D01*
X83854190Y-81418345D01*
X83856458Y-81439928D01*
X83915473Y-81621556D01*
X84010960Y-81786944D01*
X84138747Y-81928866D01*
X84293248Y-82041118D01*
X84299276Y-82043802D01*
X84299278Y-82043803D01*
X84461681Y-82116109D01*
X84467712Y-82118794D01*
X84561112Y-82138647D01*
X84648056Y-82157128D01*
X84648061Y-82157128D01*
X84654513Y-82158500D01*
X84845487Y-82158500D01*
X84851939Y-82157128D01*
X84851944Y-82157128D01*
X84938888Y-82138647D01*
X85032288Y-82118794D01*
X85038319Y-82116109D01*
X85200722Y-82043803D01*
X85200724Y-82043802D01*
X85206752Y-82041118D01*
X85361253Y-81928866D01*
X85489040Y-81786944D01*
X85584527Y-81621556D01*
X85643542Y-81439928D01*
X85645811Y-81418345D01*
X85662814Y-81256565D01*
X85663504Y-81250000D01*
X85660843Y-81224685D01*
X85644232Y-81066635D01*
X85644232Y-81066633D01*
X85643542Y-81060072D01*
X85584527Y-80878444D01*
X85489040Y-80713056D01*
X85361253Y-80571134D01*
X85206752Y-80458882D01*
X85200724Y-80456198D01*
X85200722Y-80456197D01*
X85038319Y-80383891D01*
X85038318Y-80383891D01*
X85032288Y-80381206D01*
X84927752Y-80358986D01*
X84851944Y-80342872D01*
X84851939Y-80342872D01*
X84845487Y-80341500D01*
X84654513Y-80341500D01*
X84648061Y-80342872D01*
X84648056Y-80342872D01*
X84572248Y-80358986D01*
X84467712Y-80381206D01*
X84461682Y-80383891D01*
X84461681Y-80383891D01*
X84299278Y-80456197D01*
X84299276Y-80456198D01*
X84293248Y-80458882D01*
X84138747Y-80571134D01*
X84010960Y-80713056D01*
X83915473Y-80878444D01*
X83856458Y-81060072D01*
X83855768Y-81066633D01*
X83855768Y-81066635D01*
X83839157Y-81224685D01*
X83836496Y-81250000D01*
X82267838Y-81250000D01*
X82362855Y-81168560D01*
X82367698Y-81164409D01*
X82405164Y-81116109D01*
X82483131Y-81015594D01*
X82487046Y-81010547D01*
X82525328Y-80932749D01*
X82570200Y-80841556D01*
X82573018Y-80835829D01*
X82587241Y-80781226D01*
X82620492Y-80653575D01*
X82620492Y-80653572D01*
X82622102Y-80647393D01*
X82632293Y-80452936D01*
X82603175Y-80260401D01*
X82600972Y-80254415D01*
X82600971Y-80254409D01*
X82599349Y-80250000D01*
X100586496Y-80250000D01*
X100587186Y-80256565D01*
X100596631Y-80346425D01*
X100606458Y-80439928D01*
X100665473Y-80621556D01*
X100760960Y-80786944D01*
X100765378Y-80791851D01*
X100765379Y-80791852D01*
X100882876Y-80922346D01*
X100888747Y-80928866D01*
X101043248Y-81041118D01*
X101049276Y-81043802D01*
X101049278Y-81043803D01*
X101158596Y-81092474D01*
X101217712Y-81118794D01*
X101311112Y-81138647D01*
X101398056Y-81157128D01*
X101398061Y-81157128D01*
X101404513Y-81158500D01*
X101595487Y-81158500D01*
X101601939Y-81157128D01*
X101601944Y-81157128D01*
X101688888Y-81138647D01*
X101782288Y-81118794D01*
X101841404Y-81092474D01*
X101950722Y-81043803D01*
X101950724Y-81043802D01*
X101956752Y-81041118D01*
X102111253Y-80928866D01*
X102117124Y-80922346D01*
X102234621Y-80791852D01*
X102234622Y-80791851D01*
X102239040Y-80786944D01*
X102334527Y-80621556D01*
X102393542Y-80439928D01*
X102403370Y-80346425D01*
X102412814Y-80256565D01*
X102413504Y-80250000D01*
X102393542Y-80060072D01*
X102334527Y-79878444D01*
X102239040Y-79713056D01*
X102150269Y-79614465D01*
X102115675Y-79576045D01*
X102115674Y-79576044D01*
X102111253Y-79571134D01*
X101956752Y-79458882D01*
X101950724Y-79456198D01*
X101950722Y-79456197D01*
X101788319Y-79383891D01*
X101788318Y-79383891D01*
X101782288Y-79381206D01*
X101688887Y-79361353D01*
X101601944Y-79342872D01*
X101601939Y-79342872D01*
X101595487Y-79341500D01*
X101404513Y-79341500D01*
X101398061Y-79342872D01*
X101398056Y-79342872D01*
X101311113Y-79361353D01*
X101217712Y-79381206D01*
X101211682Y-79383891D01*
X101211681Y-79383891D01*
X101049278Y-79456197D01*
X101049276Y-79456198D01*
X101043248Y-79458882D01*
X100888747Y-79571134D01*
X100884326Y-79576044D01*
X100884325Y-79576045D01*
X100849732Y-79614465D01*
X100760960Y-79713056D01*
X100665473Y-79878444D01*
X100606458Y-80060072D01*
X100586496Y-80250000D01*
X82599349Y-80250000D01*
X82538140Y-80083640D01*
X82538138Y-80083635D01*
X82535937Y-80077654D01*
X82433326Y-79912160D01*
X82299534Y-79770678D01*
X82140025Y-79658989D01*
X82092013Y-79638212D01*
X81967175Y-79584190D01*
X81967171Y-79584189D01*
X81961316Y-79581655D01*
X81955069Y-79580350D01*
X81955066Y-79580349D01*
X81775443Y-79542824D01*
X81775438Y-79542823D01*
X81770707Y-79541835D01*
X81764315Y-79541500D01*
X81621337Y-79541500D01*
X81552049Y-79548538D01*
X81482622Y-79555590D01*
X81482621Y-79555590D01*
X81476273Y-79556235D01*
X81441121Y-79567251D01*
X81296549Y-79612556D01*
X81296544Y-79612558D01*
X81290459Y-79614465D01*
X81214713Y-79656452D01*
X81125729Y-79705777D01*
X81125726Y-79705779D01*
X81120150Y-79708870D01*
X81115309Y-79713019D01*
X81115305Y-79713022D01*
X81052311Y-79767015D01*
X80972302Y-79835591D01*
X80968391Y-79840633D01*
X80968390Y-79840634D01*
X80916503Y-79907526D01*
X80852954Y-79989453D01*
X80850138Y-79995176D01*
X80850136Y-79995179D01*
X80806608Y-80083640D01*
X80766982Y-80164171D01*
X80765373Y-80170349D01*
X80765372Y-80170351D01*
X80720434Y-80342872D01*
X80717898Y-80352607D01*
X80707707Y-80547064D01*
X79508000Y-80547064D01*
X79508000Y-77547064D01*
X80707707Y-77547064D01*
X80736825Y-77739599D01*
X80739028Y-77745585D01*
X80739029Y-77745591D01*
X80801860Y-77916360D01*
X80801862Y-77916365D01*
X80804063Y-77922346D01*
X80906674Y-78087840D01*
X81040466Y-78229322D01*
X81199975Y-78341011D01*
X81205838Y-78343548D01*
X81372825Y-78415810D01*
X81372829Y-78415811D01*
X81378684Y-78418345D01*
X81384931Y-78419650D01*
X81384934Y-78419651D01*
X81564557Y-78457176D01*
X81564562Y-78457177D01*
X81569293Y-78458165D01*
X81575685Y-78458500D01*
X81718663Y-78458500D01*
X81787951Y-78451462D01*
X81857378Y-78444410D01*
X81857379Y-78444410D01*
X81863727Y-78443765D01*
X81944843Y-78418345D01*
X82043451Y-78387444D01*
X82043456Y-78387442D01*
X82049541Y-78385535D01*
X82136475Y-78337346D01*
X82214271Y-78294223D01*
X82214274Y-78294221D01*
X82219850Y-78291130D01*
X82224691Y-78286981D01*
X82224695Y-78286978D01*
X82362855Y-78168560D01*
X82367698Y-78164409D01*
X82487046Y-78010547D01*
X82527779Y-77927768D01*
X82570200Y-77841556D01*
X82573018Y-77835829D01*
X82583965Y-77793803D01*
X82620492Y-77653575D01*
X82620492Y-77653572D01*
X82622102Y-77647393D01*
X82632293Y-77452936D01*
X82603175Y-77260401D01*
X82600972Y-77254415D01*
X82600971Y-77254409D01*
X82538140Y-77083640D01*
X82538138Y-77083635D01*
X82535937Y-77077654D01*
X82433326Y-76912160D01*
X82299534Y-76770678D01*
X82140025Y-76658989D01*
X82083963Y-76634729D01*
X81967175Y-76584190D01*
X81967171Y-76584189D01*
X81961316Y-76581655D01*
X81955069Y-76580350D01*
X81955066Y-76580349D01*
X81775443Y-76542824D01*
X81775438Y-76542823D01*
X81770707Y-76541835D01*
X81764315Y-76541500D01*
X81621337Y-76541500D01*
X81552049Y-76548538D01*
X81482622Y-76555590D01*
X81482621Y-76555590D01*
X81476273Y-76556235D01*
X81454686Y-76563000D01*
X81296549Y-76612556D01*
X81296544Y-76612558D01*
X81290459Y-76614465D01*
X81214713Y-76656452D01*
X81125729Y-76705777D01*
X81125726Y-76705779D01*
X81120150Y-76708870D01*
X81115309Y-76713019D01*
X81115305Y-76713022D01*
X80994418Y-76816635D01*
X80972302Y-76835591D01*
X80852954Y-76989453D01*
X80850138Y-76995176D01*
X80850136Y-76995179D01*
X80806608Y-77083640D01*
X80766982Y-77164171D01*
X80765373Y-77170349D01*
X80765372Y-77170351D01*
X80743477Y-77254409D01*
X80717898Y-77352607D01*
X80717202Y-77365894D01*
X80708577Y-77530467D01*
X80707707Y-77547064D01*
X79508000Y-77547064D01*
X79508000Y-76250000D01*
X125086496Y-76250000D01*
X125106458Y-76439928D01*
X125165473Y-76621556D01*
X125260960Y-76786944D01*
X125265378Y-76791851D01*
X125265379Y-76791852D01*
X125369532Y-76907526D01*
X125388747Y-76928866D01*
X125543248Y-77041118D01*
X125549276Y-77043802D01*
X125549278Y-77043803D01*
X125638754Y-77083640D01*
X125717712Y-77118794D01*
X125811113Y-77138647D01*
X125898056Y-77157128D01*
X125898061Y-77157128D01*
X125904513Y-77158500D01*
X126095487Y-77158500D01*
X126101939Y-77157128D01*
X126101944Y-77157128D01*
X126188887Y-77138647D01*
X126282288Y-77118794D01*
X126361246Y-77083640D01*
X126450722Y-77043803D01*
X126450724Y-77043802D01*
X126456752Y-77041118D01*
X126529016Y-76988615D01*
X127829210Y-76988615D01*
X127829900Y-76995179D01*
X127829900Y-76995180D01*
X127847060Y-77158444D01*
X127849172Y-77178543D01*
X127908187Y-77360171D01*
X128003674Y-77525559D01*
X128008092Y-77530466D01*
X128008093Y-77530467D01*
X128013925Y-77536944D01*
X128131461Y-77667481D01*
X128285962Y-77779733D01*
X128291990Y-77782417D01*
X128291992Y-77782418D01*
X128411956Y-77835829D01*
X128460426Y-77857409D01*
X128553826Y-77877262D01*
X128640770Y-77895743D01*
X128640775Y-77895743D01*
X128647227Y-77897115D01*
X128838201Y-77897115D01*
X128844653Y-77895743D01*
X128844658Y-77895743D01*
X128931602Y-77877262D01*
X129025002Y-77857409D01*
X129183411Y-77786881D01*
X129253778Y-77777447D01*
X129293171Y-77791291D01*
X129293248Y-77791118D01*
X129299274Y-77793801D01*
X129442141Y-77857409D01*
X129467712Y-77868794D01*
X129561113Y-77888647D01*
X129648056Y-77907128D01*
X129648061Y-77907128D01*
X129654513Y-77908500D01*
X129845487Y-77908500D01*
X129851939Y-77907128D01*
X129851944Y-77907128D01*
X129938887Y-77888647D01*
X130032288Y-77868794D01*
X130054778Y-77858781D01*
X130200722Y-77793803D01*
X130200724Y-77793802D01*
X130206752Y-77791118D01*
X130218727Y-77782418D01*
X130269414Y-77745591D01*
X130361253Y-77678866D01*
X130384025Y-77653575D01*
X130484621Y-77541852D01*
X130484622Y-77541851D01*
X130489040Y-77536944D01*
X130584527Y-77371556D01*
X130643542Y-77189928D01*
X130645429Y-77171980D01*
X130662814Y-77006565D01*
X130663504Y-77000000D01*
X130656028Y-76928866D01*
X130644232Y-76816635D01*
X130644232Y-76816633D01*
X130643542Y-76810072D01*
X130584527Y-76628444D01*
X130546743Y-76563000D01*
X130530005Y-76494005D01*
X130546743Y-76437000D01*
X130581223Y-76377279D01*
X130581224Y-76377278D01*
X130584527Y-76371556D01*
X130643542Y-76189928D01*
X130656501Y-76066635D01*
X130662814Y-76006565D01*
X130663504Y-76000000D01*
X130643542Y-75810072D01*
X130584527Y-75628444D01*
X130489040Y-75463056D01*
X130361253Y-75321134D01*
X130262157Y-75249136D01*
X130212094Y-75212763D01*
X130212093Y-75212762D01*
X130206752Y-75208882D01*
X130200724Y-75206198D01*
X130200722Y-75206197D01*
X130038319Y-75133891D01*
X130038318Y-75133891D01*
X130032288Y-75131206D01*
X129938888Y-75111353D01*
X129851944Y-75092872D01*
X129851939Y-75092872D01*
X129845487Y-75091500D01*
X129654513Y-75091500D01*
X129648061Y-75092872D01*
X129648056Y-75092872D01*
X129561112Y-75111353D01*
X129467712Y-75131206D01*
X129301248Y-75205320D01*
X129230882Y-75214754D01*
X129198753Y-75205320D01*
X129032288Y-75131206D01*
X128938888Y-75111353D01*
X128851944Y-75092872D01*
X128851939Y-75092872D01*
X128845487Y-75091500D01*
X128654513Y-75091500D01*
X128648061Y-75092872D01*
X128648056Y-75092872D01*
X128561112Y-75111353D01*
X128467712Y-75131206D01*
X128461682Y-75133891D01*
X128461681Y-75133891D01*
X128299278Y-75206197D01*
X128299276Y-75206198D01*
X128293248Y-75208882D01*
X128287907Y-75212762D01*
X128287906Y-75212763D01*
X128237843Y-75249136D01*
X128138747Y-75321134D01*
X128010960Y-75463056D01*
X127915473Y-75628444D01*
X127856458Y-75810072D01*
X127836496Y-76000000D01*
X127837186Y-76006565D01*
X127843500Y-76066635D01*
X127856458Y-76189928D01*
X127915473Y-76371556D01*
X127918776Y-76377278D01*
X127918777Y-76377279D01*
X127946328Y-76424998D01*
X127963066Y-76493993D01*
X127946329Y-76550996D01*
X127908187Y-76617059D01*
X127849172Y-76798687D01*
X127848482Y-76805248D01*
X127848482Y-76805250D01*
X127845293Y-76835591D01*
X127829210Y-76988615D01*
X126529016Y-76988615D01*
X126611253Y-76928866D01*
X126630468Y-76907526D01*
X126734621Y-76791852D01*
X126734622Y-76791851D01*
X126739040Y-76786944D01*
X126834527Y-76621556D01*
X126893542Y-76439928D01*
X126913504Y-76250000D01*
X126907190Y-76189928D01*
X126894232Y-76066635D01*
X126894232Y-76066633D01*
X126893542Y-76060072D01*
X126834527Y-75878444D01*
X126739040Y-75713056D01*
X126611253Y-75571134D01*
X126456752Y-75458882D01*
X126450724Y-75456198D01*
X126450722Y-75456197D01*
X126288319Y-75383891D01*
X126288318Y-75383891D01*
X126282288Y-75381206D01*
X126188888Y-75361353D01*
X126101944Y-75342872D01*
X126101939Y-75342872D01*
X126095487Y-75341500D01*
X125904513Y-75341500D01*
X125898061Y-75342872D01*
X125898056Y-75342872D01*
X125811112Y-75361353D01*
X125717712Y-75381206D01*
X125711682Y-75383891D01*
X125711681Y-75383891D01*
X125549278Y-75456197D01*
X125549276Y-75456198D01*
X125543248Y-75458882D01*
X125388747Y-75571134D01*
X125260960Y-75713056D01*
X125165473Y-75878444D01*
X125106458Y-76060072D01*
X125105768Y-76066633D01*
X125105768Y-76066635D01*
X125092810Y-76189928D01*
X125086496Y-76250000D01*
X79508000Y-76250000D01*
X79508000Y-68049328D01*
X79509500Y-68029943D01*
X79511805Y-68015142D01*
X79511805Y-68015139D01*
X79513186Y-68006270D01*
X79510452Y-67985361D01*
X79509496Y-67963821D01*
X79509784Y-67956876D01*
X79526543Y-67551680D01*
X79527403Y-67541302D01*
X79570408Y-67196295D01*
X79582260Y-67101215D01*
X79583973Y-67090947D01*
X79587921Y-67072121D01*
X79647830Y-66786402D01*
X79674984Y-66656899D01*
X79677540Y-66646804D01*
X79804086Y-66221740D01*
X79807468Y-66211890D01*
X79905795Y-65959901D01*
X79968681Y-65798739D01*
X79972860Y-65789210D01*
X80014185Y-65704680D01*
X80167642Y-65390777D01*
X80172597Y-65381621D01*
X80228838Y-65287237D01*
X80368841Y-65052280D01*
X80399611Y-65000641D01*
X80405307Y-64991922D01*
X80663010Y-64630988D01*
X80669406Y-64622770D01*
X80956045Y-64284335D01*
X80963099Y-64276674D01*
X81276674Y-63963099D01*
X81284335Y-63956045D01*
X81622770Y-63669406D01*
X81630988Y-63663010D01*
X81991922Y-63405307D01*
X82000641Y-63399611D01*
X82223979Y-63266531D01*
X82292737Y-63248844D01*
X82360142Y-63271138D01*
X82404794Y-63326335D01*
X82412516Y-63396911D01*
X82380856Y-63460457D01*
X82360656Y-63478048D01*
X82091676Y-63666040D01*
X82069820Y-63681315D01*
X81741961Y-63956909D01*
X81439899Y-64260557D01*
X81166025Y-64589855D01*
X81164431Y-64592162D01*
X81164429Y-64592164D01*
X80967374Y-64877279D01*
X80922508Y-64942194D01*
X80711276Y-65314786D01*
X80534002Y-65704680D01*
X80533080Y-65707306D01*
X80533075Y-65707318D01*
X80504317Y-65789210D01*
X80392089Y-66108790D01*
X80286661Y-66523914D01*
X80218552Y-66946768D01*
X80188302Y-67374001D01*
X80196151Y-67802233D01*
X80242036Y-68228071D01*
X80242582Y-68230817D01*
X80242583Y-68230822D01*
X80256612Y-68301351D01*
X80325594Y-68648144D01*
X80446163Y-69059127D01*
X80447190Y-69061740D01*
X80447190Y-69061741D01*
X80585651Y-69414145D01*
X80602789Y-69457765D01*
X80604044Y-69460276D01*
X80778827Y-69810072D01*
X80794231Y-69840901D01*
X81018974Y-70205502D01*
X81275239Y-70548682D01*
X81277100Y-70550760D01*
X81277101Y-70550761D01*
X81559127Y-70865637D01*
X81559133Y-70865643D01*
X81560995Y-70867722D01*
X81873981Y-71160098D01*
X82211719Y-71423493D01*
X82571533Y-71655822D01*
X82574012Y-71657126D01*
X82574015Y-71657128D01*
X82948077Y-71853932D01*
X82948083Y-71853935D01*
X82950577Y-71855247D01*
X82953175Y-71856331D01*
X82953179Y-71856333D01*
X83343263Y-72019109D01*
X83343268Y-72019111D01*
X83345847Y-72020187D01*
X83348512Y-72021030D01*
X83348518Y-72021032D01*
X83570561Y-72091254D01*
X83754214Y-72149336D01*
X84172446Y-72241673D01*
X84175220Y-72242031D01*
X84175221Y-72242031D01*
X84594460Y-72296109D01*
X84594467Y-72296110D01*
X84597230Y-72296466D01*
X84600017Y-72296576D01*
X84600023Y-72296576D01*
X84848238Y-72306328D01*
X85025203Y-72313281D01*
X85027995Y-72313142D01*
X85028000Y-72313142D01*
X85450172Y-72292125D01*
X85450181Y-72292124D01*
X85452976Y-72291985D01*
X85455753Y-72291597D01*
X85455755Y-72291597D01*
X85530066Y-72281219D01*
X85877163Y-72232747D01*
X86294404Y-72136036D01*
X86508307Y-72065915D01*
X86698744Y-72003487D01*
X86698750Y-72003485D01*
X86701397Y-72002617D01*
X87094918Y-71833547D01*
X87471852Y-71630164D01*
X87829214Y-71394080D01*
X88164175Y-71127162D01*
X88474082Y-70831525D01*
X88475919Y-70829431D01*
X88475927Y-70829422D01*
X88754635Y-70511616D01*
X88756482Y-70509510D01*
X89009139Y-70163666D01*
X89103722Y-70006565D01*
X89107674Y-70000000D01*
X116336496Y-70000000D01*
X116356458Y-70189928D01*
X116415473Y-70371556D01*
X116510960Y-70536944D01*
X116638747Y-70678866D01*
X116793248Y-70791118D01*
X116799276Y-70793802D01*
X116799278Y-70793803D01*
X116884004Y-70831525D01*
X116967712Y-70868794D01*
X117061113Y-70888647D01*
X117148056Y-70907128D01*
X117148061Y-70907128D01*
X117154513Y-70908500D01*
X117345487Y-70908500D01*
X117351939Y-70907128D01*
X117351944Y-70907128D01*
X117438887Y-70888647D01*
X117532288Y-70868794D01*
X117615996Y-70831525D01*
X117700722Y-70793803D01*
X117700724Y-70793802D01*
X117706752Y-70791118D01*
X117861253Y-70678866D01*
X117989040Y-70536944D01*
X118084527Y-70371556D01*
X118143542Y-70189928D01*
X118163504Y-70000000D01*
X118143542Y-69810072D01*
X118084527Y-69628444D01*
X117989040Y-69463056D01*
X117945001Y-69414145D01*
X117865675Y-69326045D01*
X117865674Y-69326044D01*
X117861253Y-69321134D01*
X117706752Y-69208882D01*
X117700724Y-69206198D01*
X117700722Y-69206197D01*
X117538319Y-69133891D01*
X117538318Y-69133891D01*
X117532288Y-69131206D01*
X117438888Y-69111353D01*
X117351944Y-69092872D01*
X117351939Y-69092872D01*
X117345487Y-69091500D01*
X117154513Y-69091500D01*
X117148061Y-69092872D01*
X117148056Y-69092872D01*
X117061112Y-69111353D01*
X116967712Y-69131206D01*
X116961682Y-69133891D01*
X116961681Y-69133891D01*
X116799278Y-69206197D01*
X116799276Y-69206198D01*
X116793248Y-69208882D01*
X116638747Y-69321134D01*
X116634326Y-69326044D01*
X116634325Y-69326045D01*
X116555000Y-69414145D01*
X116510960Y-69463056D01*
X116415473Y-69628444D01*
X116356458Y-69810072D01*
X116336496Y-70000000D01*
X89107674Y-70000000D01*
X89228601Y-69799142D01*
X89228606Y-69799133D01*
X89230052Y-69796731D01*
X89417471Y-69411611D01*
X89502826Y-69187502D01*
X89568918Y-69013971D01*
X89568920Y-69013964D01*
X89569914Y-69011355D01*
X89686173Y-68599132D01*
X89708345Y-68481226D01*
X89764811Y-68180954D01*
X89764813Y-68180942D01*
X89765327Y-68178207D01*
X89782876Y-67997610D01*
X94716500Y-67997610D01*
X94731458Y-68139928D01*
X94790473Y-68321556D01*
X94885960Y-68486944D01*
X94890378Y-68491851D01*
X94890379Y-68491852D01*
X94986974Y-68599132D01*
X95013747Y-68628866D01*
X95168248Y-68741118D01*
X95174276Y-68743802D01*
X95174278Y-68743803D01*
X95291693Y-68796079D01*
X95342712Y-68818794D01*
X95436113Y-68838647D01*
X95523056Y-68857128D01*
X95523061Y-68857128D01*
X95529513Y-68858500D01*
X95720487Y-68858500D01*
X95726939Y-68857128D01*
X95726944Y-68857128D01*
X95813887Y-68838647D01*
X95907288Y-68818794D01*
X95958307Y-68796079D01*
X96075722Y-68743803D01*
X96075724Y-68743802D01*
X96081752Y-68741118D01*
X96175939Y-68672687D01*
X96242807Y-68648828D01*
X96311958Y-68664909D01*
X96324061Y-68672687D01*
X96418248Y-68741118D01*
X96424276Y-68743802D01*
X96424278Y-68743803D01*
X96541693Y-68796079D01*
X96592712Y-68818794D01*
X96686113Y-68838647D01*
X96773056Y-68857128D01*
X96773061Y-68857128D01*
X96779513Y-68858500D01*
X96970487Y-68858500D01*
X96976939Y-68857128D01*
X96976944Y-68857128D01*
X97063887Y-68838647D01*
X97157288Y-68818794D01*
X97208307Y-68796079D01*
X97325722Y-68743803D01*
X97325724Y-68743802D01*
X97331752Y-68741118D01*
X97425939Y-68672687D01*
X97492807Y-68648828D01*
X97561958Y-68664909D01*
X97574061Y-68672687D01*
X97668248Y-68741118D01*
X97674276Y-68743802D01*
X97674278Y-68743803D01*
X97791693Y-68796079D01*
X97842712Y-68818794D01*
X97936113Y-68838647D01*
X98023056Y-68857128D01*
X98023061Y-68857128D01*
X98029513Y-68858500D01*
X98220487Y-68858500D01*
X98226939Y-68857128D01*
X98226944Y-68857128D01*
X98313887Y-68838647D01*
X98407288Y-68818794D01*
X98458307Y-68796079D01*
X98575722Y-68743803D01*
X98575724Y-68743802D01*
X98581752Y-68741118D01*
X98606089Y-68723436D01*
X98672956Y-68699578D01*
X98745422Y-68717596D01*
X98875012Y-68796079D01*
X98888757Y-68802285D01*
X99038644Y-68849256D01*
X99051694Y-68851869D01*
X99106586Y-68856913D01*
X99118124Y-68853525D01*
X99119329Y-68852135D01*
X99121000Y-68844452D01*
X99121000Y-68839884D01*
X99629000Y-68839884D01*
X99633475Y-68855123D01*
X99634865Y-68856328D01*
X99639294Y-68857291D01*
X99698315Y-68851868D01*
X99711351Y-68849257D01*
X99861243Y-68802285D01*
X99874988Y-68796079D01*
X100008574Y-68715176D01*
X100020443Y-68705869D01*
X100130869Y-68595443D01*
X100140176Y-68583574D01*
X100221079Y-68449988D01*
X100227285Y-68436243D01*
X100274256Y-68286356D01*
X100276869Y-68273306D01*
X100282734Y-68209479D01*
X100283000Y-68203691D01*
X100283000Y-67972115D01*
X100278525Y-67956876D01*
X100277135Y-67955671D01*
X100269452Y-67954000D01*
X99647115Y-67954000D01*
X99631876Y-67958475D01*
X99630671Y-67959865D01*
X99629000Y-67967548D01*
X99629000Y-68839884D01*
X99121000Y-68839884D01*
X99121000Y-67427885D01*
X99629000Y-67427885D01*
X99633475Y-67443124D01*
X99634865Y-67444329D01*
X99642548Y-67446000D01*
X100264884Y-67446000D01*
X100280123Y-67441525D01*
X100281328Y-67440135D01*
X100282999Y-67432452D01*
X100282999Y-67196295D01*
X100282736Y-67190546D01*
X100276868Y-67126685D01*
X100274257Y-67113649D01*
X100227285Y-66963757D01*
X100221079Y-66950012D01*
X100140176Y-66816426D01*
X100130869Y-66804557D01*
X100020443Y-66694131D01*
X100008574Y-66684824D01*
X99874988Y-66603921D01*
X99861243Y-66597715D01*
X99711356Y-66550744D01*
X99698306Y-66548131D01*
X99643414Y-66543087D01*
X99631876Y-66546475D01*
X99630671Y-66547865D01*
X99629000Y-66555548D01*
X99629000Y-67427885D01*
X99121000Y-67427885D01*
X99121000Y-66560116D01*
X99116525Y-66544877D01*
X99115135Y-66543672D01*
X99110706Y-66542709D01*
X99051685Y-66548132D01*
X99038649Y-66550743D01*
X98888757Y-66597715D01*
X98875012Y-66603921D01*
X98745422Y-66682404D01*
X98676792Y-66700583D01*
X98606089Y-66676564D01*
X98587094Y-66662763D01*
X98587093Y-66662762D01*
X98581752Y-66658882D01*
X98575724Y-66656198D01*
X98575722Y-66656197D01*
X98413319Y-66583891D01*
X98413318Y-66583891D01*
X98407288Y-66581206D01*
X98308068Y-66560116D01*
X98226944Y-66542872D01*
X98226939Y-66542872D01*
X98220487Y-66541500D01*
X98029513Y-66541500D01*
X98023061Y-66542872D01*
X98023056Y-66542872D01*
X97941932Y-66560116D01*
X97842712Y-66581206D01*
X97836682Y-66583891D01*
X97836681Y-66583891D01*
X97674278Y-66656197D01*
X97674276Y-66656198D01*
X97668248Y-66658882D01*
X97662907Y-66662762D01*
X97662906Y-66662763D01*
X97574061Y-66727313D01*
X97507193Y-66751172D01*
X97438042Y-66735091D01*
X97425939Y-66727313D01*
X97337094Y-66662763D01*
X97337093Y-66662762D01*
X97331752Y-66658882D01*
X97325724Y-66656198D01*
X97325722Y-66656197D01*
X97163319Y-66583891D01*
X97163318Y-66583891D01*
X97157288Y-66581206D01*
X97058068Y-66560116D01*
X96976944Y-66542872D01*
X96976939Y-66542872D01*
X96970487Y-66541500D01*
X96779513Y-66541500D01*
X96773061Y-66542872D01*
X96773056Y-66542872D01*
X96691932Y-66560116D01*
X96592712Y-66581206D01*
X96586682Y-66583891D01*
X96586681Y-66583891D01*
X96424278Y-66656197D01*
X96424276Y-66656198D01*
X96418248Y-66658882D01*
X96412907Y-66662762D01*
X96412906Y-66662763D01*
X96324061Y-66727313D01*
X96257193Y-66751172D01*
X96188042Y-66735091D01*
X96175939Y-66727313D01*
X96087094Y-66662763D01*
X96087093Y-66662762D01*
X96081752Y-66658882D01*
X96075724Y-66656198D01*
X96075722Y-66656197D01*
X95913319Y-66583891D01*
X95913318Y-66583891D01*
X95907288Y-66581206D01*
X95808068Y-66560116D01*
X95726944Y-66542872D01*
X95726939Y-66542872D01*
X95720487Y-66541500D01*
X95529513Y-66541500D01*
X95523061Y-66542872D01*
X95523056Y-66542872D01*
X95441932Y-66560116D01*
X95342712Y-66581206D01*
X95336682Y-66583891D01*
X95336681Y-66583891D01*
X95174278Y-66656197D01*
X95174276Y-66656198D01*
X95168248Y-66658882D01*
X95013747Y-66771134D01*
X94885960Y-66913056D01*
X94856688Y-66963757D01*
X94794124Y-67072121D01*
X94790473Y-67078444D01*
X94731458Y-67260072D01*
X94716500Y-67402390D01*
X94716500Y-67997610D01*
X89782876Y-67997610D01*
X89806750Y-67751911D01*
X89812130Y-67546474D01*
X89813289Y-67502234D01*
X89813289Y-67502220D01*
X89813347Y-67500000D01*
X89794291Y-67072121D01*
X89737275Y-66647630D01*
X89725981Y-66597715D01*
X89643368Y-66232618D01*
X89643368Y-66232617D01*
X89642750Y-66229887D01*
X89511463Y-65822202D01*
X89344456Y-65427801D01*
X89143050Y-65049807D01*
X89141516Y-65047458D01*
X88910381Y-64693573D01*
X88910378Y-64693569D01*
X88908840Y-64691214D01*
X88758099Y-64500000D01*
X105586496Y-64500000D01*
X105606458Y-64689928D01*
X105665473Y-64871556D01*
X105760960Y-65036944D01*
X105765378Y-65041851D01*
X105765379Y-65041852D01*
X105875000Y-65163598D01*
X105888747Y-65178866D01*
X106043248Y-65291118D01*
X106049276Y-65293802D01*
X106049278Y-65293803D01*
X106211681Y-65366109D01*
X106217712Y-65368794D01*
X106299116Y-65386097D01*
X106398056Y-65407128D01*
X106398061Y-65407128D01*
X106404513Y-65408500D01*
X106595487Y-65408500D01*
X106601939Y-65407128D01*
X106601944Y-65407128D01*
X106700884Y-65386097D01*
X106782288Y-65368794D01*
X106788319Y-65366109D01*
X106950722Y-65293803D01*
X106950724Y-65293802D01*
X106956752Y-65291118D01*
X107111253Y-65178866D01*
X107125000Y-65163598D01*
X107234621Y-65041852D01*
X107234622Y-65041851D01*
X107239040Y-65036944D01*
X107334527Y-64871556D01*
X107393542Y-64689928D01*
X107413504Y-64500000D01*
X108086496Y-64500000D01*
X108106458Y-64689928D01*
X108165473Y-64871556D01*
X108260960Y-65036944D01*
X108265378Y-65041851D01*
X108265379Y-65041852D01*
X108375000Y-65163598D01*
X108388747Y-65178866D01*
X108543248Y-65291118D01*
X108549276Y-65293802D01*
X108549278Y-65293803D01*
X108711681Y-65366109D01*
X108717712Y-65368794D01*
X108799116Y-65386097D01*
X108898056Y-65407128D01*
X108898061Y-65407128D01*
X108904513Y-65408500D01*
X109095487Y-65408500D01*
X109101939Y-65407128D01*
X109101944Y-65407128D01*
X109200884Y-65386097D01*
X109282288Y-65368794D01*
X109288319Y-65366109D01*
X109450722Y-65293803D01*
X109450724Y-65293802D01*
X109456752Y-65291118D01*
X109550939Y-65222687D01*
X109617807Y-65198828D01*
X109686958Y-65214909D01*
X109699061Y-65222687D01*
X109793248Y-65291118D01*
X109799276Y-65293802D01*
X109799278Y-65293803D01*
X109961681Y-65366109D01*
X109967712Y-65368794D01*
X110049116Y-65386097D01*
X110148056Y-65407128D01*
X110148061Y-65407128D01*
X110154513Y-65408500D01*
X110345487Y-65408500D01*
X110351939Y-65407128D01*
X110351944Y-65407128D01*
X110450884Y-65386097D01*
X110532288Y-65368794D01*
X110538319Y-65366109D01*
X110700722Y-65293803D01*
X110700724Y-65293802D01*
X110706752Y-65291118D01*
X110861253Y-65178866D01*
X110875000Y-65163598D01*
X110984621Y-65041852D01*
X110984622Y-65041851D01*
X110989040Y-65036944D01*
X111084527Y-64871556D01*
X111143542Y-64689928D01*
X111163504Y-64500000D01*
X111148480Y-64357053D01*
X111144232Y-64316635D01*
X111144232Y-64316633D01*
X111143542Y-64310072D01*
X111084527Y-64128444D01*
X110989040Y-63963056D01*
X110861253Y-63821134D01*
X110706752Y-63708882D01*
X110700724Y-63706198D01*
X110700722Y-63706197D01*
X110538319Y-63633891D01*
X110538318Y-63633891D01*
X110532288Y-63631206D01*
X110438888Y-63611353D01*
X110351944Y-63592872D01*
X110351939Y-63592872D01*
X110345487Y-63591500D01*
X110154513Y-63591500D01*
X110148061Y-63592872D01*
X110148056Y-63592872D01*
X110061112Y-63611353D01*
X109967712Y-63631206D01*
X109961682Y-63633891D01*
X109961681Y-63633891D01*
X109799278Y-63706197D01*
X109799276Y-63706198D01*
X109793248Y-63708882D01*
X109787907Y-63712762D01*
X109787906Y-63712763D01*
X109699061Y-63777313D01*
X109632193Y-63801172D01*
X109563042Y-63785091D01*
X109550939Y-63777313D01*
X109462094Y-63712763D01*
X109462093Y-63712762D01*
X109456752Y-63708882D01*
X109450724Y-63706198D01*
X109450722Y-63706197D01*
X109288319Y-63633891D01*
X109288318Y-63633891D01*
X109282288Y-63631206D01*
X109188888Y-63611353D01*
X109101944Y-63592872D01*
X109101939Y-63592872D01*
X109095487Y-63591500D01*
X108904513Y-63591500D01*
X108898061Y-63592872D01*
X108898056Y-63592872D01*
X108811112Y-63611353D01*
X108717712Y-63631206D01*
X108711682Y-63633891D01*
X108711681Y-63633891D01*
X108549278Y-63706197D01*
X108549276Y-63706198D01*
X108543248Y-63708882D01*
X108388747Y-63821134D01*
X108260960Y-63963056D01*
X108165473Y-64128444D01*
X108106458Y-64310072D01*
X108105768Y-64316633D01*
X108105768Y-64316635D01*
X108101520Y-64357053D01*
X108086496Y-64500000D01*
X107413504Y-64500000D01*
X107398480Y-64357053D01*
X107394232Y-64316635D01*
X107394232Y-64316633D01*
X107393542Y-64310072D01*
X107334527Y-64128444D01*
X107239040Y-63963056D01*
X107111253Y-63821134D01*
X106956752Y-63708882D01*
X106950724Y-63706198D01*
X106950722Y-63706197D01*
X106788319Y-63633891D01*
X106788318Y-63633891D01*
X106782288Y-63631206D01*
X106688888Y-63611353D01*
X106601944Y-63592872D01*
X106601939Y-63592872D01*
X106595487Y-63591500D01*
X106404513Y-63591500D01*
X106398061Y-63592872D01*
X106398056Y-63592872D01*
X106311112Y-63611353D01*
X106217712Y-63631206D01*
X106211682Y-63633891D01*
X106211681Y-63633891D01*
X106049278Y-63706197D01*
X106049276Y-63706198D01*
X106043248Y-63708882D01*
X105888747Y-63821134D01*
X105760960Y-63963056D01*
X105665473Y-64128444D01*
X105606458Y-64310072D01*
X105605768Y-64316633D01*
X105605768Y-64316635D01*
X105601520Y-64357053D01*
X105586496Y-64500000D01*
X88758099Y-64500000D01*
X88643680Y-64354860D01*
X88349670Y-64043409D01*
X88347579Y-64041556D01*
X88347571Y-64041548D01*
X88031237Y-63761188D01*
X88031235Y-63761186D01*
X88029137Y-63759327D01*
X87684621Y-63504863D01*
X87391571Y-63326335D01*
X87321237Y-63283487D01*
X87321230Y-63283483D01*
X87318848Y-63282032D01*
X87296758Y-63271138D01*
X86937228Y-63093838D01*
X86934714Y-63092598D01*
X86535262Y-62938062D01*
X86288678Y-62867122D01*
X86126335Y-62820417D01*
X86126329Y-62820415D01*
X86123654Y-62819646D01*
X86120917Y-62819117D01*
X86120911Y-62819115D01*
X85803508Y-62757706D01*
X85740427Y-62725128D01*
X85704973Y-62663618D01*
X85708401Y-62592704D01*
X85749625Y-62534902D01*
X85815554Y-62508562D01*
X85827442Y-62508000D01*
X129680104Y-62508000D01*
X129748225Y-62528002D01*
G37*
%TD.AperFunction*%
%TD*%
M02*
