%TF.GenerationSoftware,KiCad,Pcbnew,(6.0.1)*%
%TF.CreationDate,2022-05-20T16:10:24+03:00*%
%TF.ProjectId,STM32_based_project,53544d33-325f-4626-9173-65645f70726f,rev?*%
%TF.SameCoordinates,Original*%
%TF.FileFunction,Legend,Top*%
%TF.FilePolarity,Positive*%
%FSLAX46Y46*%
G04 Gerber Fmt 4.6, Leading zero omitted, Abs format (unit mm)*
G04 Created by KiCad (PCBNEW (6.0.1)) date 2022-05-20 16:10:24*
%MOMM*%
%LPD*%
G01*
G04 APERTURE LIST*
%ADD10C,0.150000*%
%ADD11C,0.120000*%
G04 APERTURE END LIST*
D10*
X116000001Y-98000000D02*
G75*
G03*
X116000001Y-98000000I-1J0D01*
G01*
X90750001Y-88250000D02*
G75*
G03*
X90750001Y-88250000I-1J0D01*
G01*
X124750001Y-86000000D02*
G75*
G03*
X124750001Y-86000000I-1J0D01*
G01*
X128000001Y-79000000D02*
G75*
G03*
X128000001Y-79000000I-1J0D01*
G01*
X112750000Y-64500000D02*
G75*
G03*
X112750000Y-64500000I-250000J0D01*
G01*
X90884047Y-97071428D02*
X91645952Y-97071428D01*
X91265000Y-97452380D02*
X91265000Y-96690476D01*
X128440476Y-86702380D02*
X128440476Y-85702380D01*
X128821428Y-85702380D01*
X128916666Y-85750000D01*
X128964285Y-85797619D01*
X129011904Y-85892857D01*
X129011904Y-86035714D01*
X128964285Y-86130952D01*
X128916666Y-86178571D01*
X128821428Y-86226190D01*
X128440476Y-86226190D01*
X129630952Y-85702380D02*
X129821428Y-85702380D01*
X129916666Y-85750000D01*
X130011904Y-85845238D01*
X130059523Y-86035714D01*
X130059523Y-86369047D01*
X130011904Y-86559523D01*
X129916666Y-86654761D01*
X129821428Y-86702380D01*
X129630952Y-86702380D01*
X129535714Y-86654761D01*
X129440476Y-86559523D01*
X129392857Y-86369047D01*
X129392857Y-86035714D01*
X129440476Y-85845238D01*
X129535714Y-85750000D01*
X129630952Y-85702380D01*
X130392857Y-85702380D02*
X130630952Y-86702380D01*
X130821428Y-85988095D01*
X131011904Y-86702380D01*
X131250000Y-85702380D01*
X131630952Y-86178571D02*
X131964285Y-86178571D01*
X132107142Y-86702380D02*
X131630952Y-86702380D01*
X131630952Y-85702380D01*
X132107142Y-85702380D01*
X133107142Y-86702380D02*
X132773809Y-86226190D01*
X132535714Y-86702380D02*
X132535714Y-85702380D01*
X132916666Y-85702380D01*
X133011904Y-85750000D01*
X133059523Y-85797619D01*
X133107142Y-85892857D01*
X133107142Y-86035714D01*
X133059523Y-86130952D01*
X133011904Y-86178571D01*
X132916666Y-86226190D01*
X132535714Y-86226190D01*
X96523809Y-70452380D02*
X96523809Y-69452380D01*
X96952380Y-69547619D02*
X97000000Y-69500000D01*
X97095238Y-69452380D01*
X97333333Y-69452380D01*
X97428571Y-69500000D01*
X97476190Y-69547619D01*
X97523809Y-69642857D01*
X97523809Y-69738095D01*
X97476190Y-69880952D01*
X96904761Y-70452380D01*
X97523809Y-70452380D01*
X98523809Y-70357142D02*
X98476190Y-70404761D01*
X98333333Y-70452380D01*
X98238095Y-70452380D01*
X98095238Y-70404761D01*
X98000000Y-70309523D01*
X97952380Y-70214285D01*
X97904761Y-70023809D01*
X97904761Y-69880952D01*
X97952380Y-69690476D01*
X98000000Y-69595238D01*
X98095238Y-69500000D01*
X98238095Y-69452380D01*
X98333333Y-69452380D01*
X98476190Y-69500000D01*
X98523809Y-69547619D01*
X85392857Y-75178571D02*
X85535714Y-75226190D01*
X85583333Y-75273809D01*
X85630952Y-75369047D01*
X85630952Y-75511904D01*
X85583333Y-75607142D01*
X85535714Y-75654761D01*
X85440476Y-75702380D01*
X85059523Y-75702380D01*
X85059523Y-74702380D01*
X85392857Y-74702380D01*
X85488095Y-74750000D01*
X85535714Y-74797619D01*
X85583333Y-74892857D01*
X85583333Y-74988095D01*
X85535714Y-75083333D01*
X85488095Y-75130952D01*
X85392857Y-75178571D01*
X85059523Y-75178571D01*
X86250000Y-74702380D02*
X86440476Y-74702380D01*
X86535714Y-74750000D01*
X86630952Y-74845238D01*
X86678571Y-75035714D01*
X86678571Y-75369047D01*
X86630952Y-75559523D01*
X86535714Y-75654761D01*
X86440476Y-75702380D01*
X86250000Y-75702380D01*
X86154761Y-75654761D01*
X86059523Y-75559523D01*
X86011904Y-75369047D01*
X86011904Y-75035714D01*
X86059523Y-74845238D01*
X86154761Y-74750000D01*
X86250000Y-74702380D01*
X87297619Y-74702380D02*
X87488095Y-74702380D01*
X87583333Y-74750000D01*
X87678571Y-74845238D01*
X87726190Y-75035714D01*
X87726190Y-75369047D01*
X87678571Y-75559523D01*
X87583333Y-75654761D01*
X87488095Y-75702380D01*
X87297619Y-75702380D01*
X87202380Y-75654761D01*
X87107142Y-75559523D01*
X87059523Y-75369047D01*
X87059523Y-75035714D01*
X87107142Y-74845238D01*
X87202380Y-74750000D01*
X87297619Y-74702380D01*
X88011904Y-74702380D02*
X88583333Y-74702380D01*
X88297619Y-75702380D02*
X88297619Y-74702380D01*
X112869047Y-90321428D02*
X113630952Y-90321428D01*
X113250000Y-90702380D02*
X113250000Y-89940476D01*
X116619047Y-67071428D02*
X117380952Y-67071428D01*
X117000000Y-67452380D02*
X117000000Y-66690476D01*
X132238095Y-82952380D02*
X132238095Y-83761904D01*
X132285714Y-83857142D01*
X132333333Y-83904761D01*
X132428571Y-83952380D01*
X132619047Y-83952380D01*
X132714285Y-83904761D01*
X132761904Y-83857142D01*
X132809523Y-83761904D01*
X132809523Y-82952380D01*
X133238095Y-83904761D02*
X133380952Y-83952380D01*
X133619047Y-83952380D01*
X133714285Y-83904761D01*
X133761904Y-83857142D01*
X133809523Y-83761904D01*
X133809523Y-83666666D01*
X133761904Y-83571428D01*
X133714285Y-83523809D01*
X133619047Y-83476190D01*
X133428571Y-83428571D01*
X133333333Y-83380952D01*
X133285714Y-83333333D01*
X133238095Y-83238095D01*
X133238095Y-83142857D01*
X133285714Y-83047619D01*
X133333333Y-83000000D01*
X133428571Y-82952380D01*
X133666666Y-82952380D01*
X133809523Y-83000000D01*
X134571428Y-83428571D02*
X134714285Y-83476190D01*
X134761904Y-83523809D01*
X134809523Y-83619047D01*
X134809523Y-83761904D01*
X134761904Y-83857142D01*
X134714285Y-83904761D01*
X134619047Y-83952380D01*
X134238095Y-83952380D01*
X134238095Y-82952380D01*
X134571428Y-82952380D01*
X134666666Y-83000000D01*
X134714285Y-83047619D01*
X134761904Y-83142857D01*
X134761904Y-83238095D01*
X134714285Y-83333333D01*
X134666666Y-83380952D01*
X134571428Y-83428571D01*
X134238095Y-83428571D01*
X101261904Y-73202380D02*
X101261904Y-72202380D01*
X101500000Y-72202380D01*
X101642857Y-72250000D01*
X101738095Y-72345238D01*
X101785714Y-72440476D01*
X101833333Y-72630952D01*
X101833333Y-72773809D01*
X101785714Y-72964285D01*
X101738095Y-73059523D01*
X101642857Y-73154761D01*
X101500000Y-73202380D01*
X101261904Y-73202380D01*
X102261904Y-72678571D02*
X102595238Y-72678571D01*
X102738095Y-73202380D02*
X102261904Y-73202380D01*
X102261904Y-72202380D01*
X102738095Y-72202380D01*
X103500000Y-72678571D02*
X103642857Y-72726190D01*
X103690476Y-72773809D01*
X103738095Y-72869047D01*
X103738095Y-73011904D01*
X103690476Y-73107142D01*
X103642857Y-73154761D01*
X103547619Y-73202380D01*
X103166666Y-73202380D01*
X103166666Y-72202380D01*
X103500000Y-72202380D01*
X103595238Y-72250000D01*
X103642857Y-72297619D01*
X103690476Y-72392857D01*
X103690476Y-72488095D01*
X103642857Y-72583333D01*
X103595238Y-72630952D01*
X103500000Y-72678571D01*
X103166666Y-72678571D01*
X104166666Y-72202380D02*
X104166666Y-73011904D01*
X104214285Y-73107142D01*
X104261904Y-73154761D01*
X104357142Y-73202380D01*
X104547619Y-73202380D01*
X104642857Y-73154761D01*
X104690476Y-73107142D01*
X104738095Y-73011904D01*
X104738095Y-72202380D01*
X105738095Y-72250000D02*
X105642857Y-72202380D01*
X105500000Y-72202380D01*
X105357142Y-72250000D01*
X105261904Y-72345238D01*
X105214285Y-72440476D01*
X105166666Y-72630952D01*
X105166666Y-72773809D01*
X105214285Y-72964285D01*
X105261904Y-73059523D01*
X105357142Y-73154761D01*
X105500000Y-73202380D01*
X105595238Y-73202380D01*
X105738095Y-73154761D01*
X105785714Y-73107142D01*
X105785714Y-72773809D01*
X105595238Y-72773809D01*
X95904761Y-104952380D02*
X95904761Y-105761904D01*
X95952380Y-105857142D01*
X96000000Y-105904761D01*
X96095238Y-105952380D01*
X96285714Y-105952380D01*
X96380952Y-105904761D01*
X96428571Y-105857142D01*
X96476190Y-105761904D01*
X96476190Y-104952380D01*
X96904761Y-105666666D02*
X97380952Y-105666666D01*
X96809523Y-105952380D02*
X97142857Y-104952380D01*
X97476190Y-105952380D01*
X98380952Y-105952380D02*
X98047619Y-105476190D01*
X97809523Y-105952380D02*
X97809523Y-104952380D01*
X98190476Y-104952380D01*
X98285714Y-105000000D01*
X98333333Y-105047619D01*
X98380952Y-105142857D01*
X98380952Y-105285714D01*
X98333333Y-105380952D01*
X98285714Y-105428571D01*
X98190476Y-105476190D01*
X97809523Y-105476190D01*
X98666666Y-104952380D02*
X99238095Y-104952380D01*
X98952380Y-105952380D02*
X98952380Y-104952380D01*
X88523809Y-102154761D02*
X88666666Y-102202380D01*
X88904761Y-102202380D01*
X89000000Y-102154761D01*
X89047619Y-102107142D01*
X89095238Y-102011904D01*
X89095238Y-101916666D01*
X89047619Y-101821428D01*
X89000000Y-101773809D01*
X88904761Y-101726190D01*
X88714285Y-101678571D01*
X88619047Y-101630952D01*
X88571428Y-101583333D01*
X88523809Y-101488095D01*
X88523809Y-101392857D01*
X88571428Y-101297619D01*
X88619047Y-101250000D01*
X88714285Y-101202380D01*
X88952380Y-101202380D01*
X89095238Y-101250000D01*
X89380952Y-101202380D02*
X89952380Y-101202380D01*
X89666666Y-102202380D02*
X89666666Y-101202380D01*
X90238095Y-101916666D02*
X90714285Y-101916666D01*
X90142857Y-102202380D02*
X90476190Y-101202380D01*
X90809523Y-102202380D01*
X91000000Y-101202380D02*
X91571428Y-101202380D01*
X91285714Y-102202380D02*
X91285714Y-101202380D01*
X91904761Y-101202380D02*
X91904761Y-102011904D01*
X91952380Y-102107142D01*
X92000000Y-102154761D01*
X92095238Y-102202380D01*
X92285714Y-102202380D01*
X92380952Y-102154761D01*
X92428571Y-102107142D01*
X92476190Y-102011904D01*
X92476190Y-101202380D01*
X92904761Y-102154761D02*
X93047619Y-102202380D01*
X93285714Y-102202380D01*
X93380952Y-102154761D01*
X93428571Y-102107142D01*
X93476190Y-102011904D01*
X93476190Y-101916666D01*
X93428571Y-101821428D01*
X93380952Y-101773809D01*
X93285714Y-101726190D01*
X93095238Y-101678571D01*
X93000000Y-101630952D01*
X92952380Y-101583333D01*
X92904761Y-101488095D01*
X92904761Y-101392857D01*
X92952380Y-101297619D01*
X93000000Y-101250000D01*
X93095238Y-101202380D01*
X93333333Y-101202380D01*
X93476190Y-101250000D01*
X130369047Y-95571428D02*
X131130952Y-95571428D01*
X130750000Y-95952380D02*
X130750000Y-95190476D01*
X86011904Y-83452380D02*
X85678571Y-82976190D01*
X85440476Y-83452380D02*
X85440476Y-82452380D01*
X85821428Y-82452380D01*
X85916666Y-82500000D01*
X85964285Y-82547619D01*
X86011904Y-82642857D01*
X86011904Y-82785714D01*
X85964285Y-82880952D01*
X85916666Y-82928571D01*
X85821428Y-82976190D01*
X85440476Y-82976190D01*
X86440476Y-82452380D02*
X86440476Y-83261904D01*
X86488095Y-83357142D01*
X86535714Y-83404761D01*
X86630952Y-83452380D01*
X86821428Y-83452380D01*
X86916666Y-83404761D01*
X86964285Y-83357142D01*
X87011904Y-83261904D01*
X87011904Y-82452380D01*
X87488095Y-83452380D02*
X87488095Y-82452380D01*
X88059523Y-83452380D01*
X88059523Y-82452380D01*
X126119047Y-85321428D02*
X126880952Y-85321428D01*
X126500000Y-85702380D02*
X126500000Y-84940476D01*
%TO.C,U2*%
X97238095Y-84052380D02*
X97238095Y-84861904D01*
X97285714Y-84957142D01*
X97333333Y-85004761D01*
X97428571Y-85052380D01*
X97619047Y-85052380D01*
X97714285Y-85004761D01*
X97761904Y-84957142D01*
X97809523Y-84861904D01*
X97809523Y-84052380D01*
X98238095Y-84147619D02*
X98285714Y-84100000D01*
X98380952Y-84052380D01*
X98619047Y-84052380D01*
X98714285Y-84100000D01*
X98761904Y-84147619D01*
X98809523Y-84242857D01*
X98809523Y-84338095D01*
X98761904Y-84480952D01*
X98190476Y-85052380D01*
X98809523Y-85052380D01*
D11*
%TO.C,C7*%
X95107836Y-100360000D02*
X94892164Y-100360000D01*
X95107836Y-99640000D02*
X94892164Y-99640000D01*
%TO.C,R9*%
X90522500Y-98762742D02*
X90522500Y-99237258D01*
X89477500Y-98762742D02*
X89477500Y-99237258D01*
%TO.C,SW1*%
X80270000Y-76150000D02*
X80270000Y-81850000D01*
X82070000Y-75550000D02*
X81280000Y-75550000D01*
X78980000Y-77600000D02*
X78770000Y-77800000D01*
X78770000Y-77800000D02*
X78770000Y-78700000D01*
X83120000Y-77400000D02*
X83120000Y-79100000D01*
X83120000Y-80400000D02*
X83120000Y-80600000D01*
X80270000Y-77600000D02*
X78980000Y-77600000D01*
X78980000Y-78900000D02*
X80270000Y-78900000D01*
X81280000Y-82450000D02*
X82070000Y-82450000D01*
X78980000Y-78900000D02*
X78770000Y-78700000D01*
%TO.C,D3*%
X91265000Y-98200000D02*
X91265000Y-100485000D01*
X91265000Y-100485000D02*
X92735000Y-100485000D01*
X92735000Y-100485000D02*
X92735000Y-98200000D01*
%TO.C,FB1*%
X117560000Y-87600378D02*
X117560000Y-88399622D01*
X116440000Y-87600378D02*
X116440000Y-88399622D01*
%TO.C,C11*%
X88640000Y-94107836D02*
X88640000Y-93892164D01*
X89360000Y-94107836D02*
X89360000Y-93892164D01*
%TO.C,C6*%
X89640000Y-88107836D02*
X89640000Y-87892164D01*
X90360000Y-88107836D02*
X90360000Y-87892164D01*
%TO.C,R8*%
X89846359Y-90620000D02*
X90153641Y-90620000D01*
X89846359Y-91380000D02*
X90153641Y-91380000D01*
%TO.C,R11*%
X96658641Y-80615000D02*
X96351359Y-80615000D01*
X96658641Y-81375000D02*
X96351359Y-81375000D01*
%TO.C,U1*%
X115440000Y-96062500D02*
X115440000Y-95262500D01*
X118560000Y-96062500D02*
X118560000Y-95262500D01*
X118560000Y-96062500D02*
X118560000Y-96862500D01*
X115440000Y-96062500D02*
X115440000Y-97862500D01*
%TO.C,R1*%
X122522500Y-94237258D02*
X122522500Y-93762742D01*
X121477500Y-94237258D02*
X121477500Y-93762742D01*
%TO.C,J4*%
X97500000Y-68560000D02*
X99915000Y-68560000D01*
X99625000Y-69150000D02*
X100125000Y-69150000D01*
X95085000Y-68560000D02*
X95085000Y-68860000D01*
X100985000Y-68860000D02*
X100985000Y-63140000D01*
X100985000Y-63140000D02*
X97500000Y-63140000D01*
X94015000Y-68860000D02*
X94015000Y-63140000D01*
X99625000Y-68850000D02*
X99625000Y-69150000D01*
X99915000Y-68860000D02*
X100985000Y-68860000D01*
X97500000Y-68560000D02*
X95085000Y-68560000D01*
X99915000Y-68560000D02*
X99915000Y-68860000D01*
X95085000Y-68860000D02*
X94015000Y-68860000D01*
X94015000Y-63140000D02*
X97500000Y-63140000D01*
%TO.C,D4*%
X120485000Y-68735000D02*
X120485000Y-67265000D01*
X120485000Y-67265000D02*
X118200000Y-67265000D01*
X118200000Y-68735000D02*
X120485000Y-68735000D01*
%TO.C,R3*%
X121522500Y-97762742D02*
X121522500Y-98237258D01*
X120477500Y-97762742D02*
X120477500Y-98237258D01*
%TO.C,C16*%
X86257836Y-93540000D02*
X86042164Y-93540000D01*
X86257836Y-94260000D02*
X86042164Y-94260000D01*
%TO.C,C4*%
X114510000Y-96140580D02*
X114510000Y-95859420D01*
X113490000Y-96140580D02*
X113490000Y-95859420D01*
%TO.C,C14*%
X105490000Y-87140580D02*
X105490000Y-86859420D01*
X106510000Y-87140580D02*
X106510000Y-86859420D01*
%TO.C,R4*%
X122652500Y-98237258D02*
X122652500Y-97762742D01*
X123697500Y-98237258D02*
X123697500Y-97762742D01*
%TO.C,J1*%
X133800000Y-94560000D02*
X133800000Y-87440000D01*
X127640000Y-94560000D02*
X127640000Y-87440000D01*
X129731000Y-87975000D02*
X129859000Y-88104000D01*
X135360000Y-94560000D02*
X135360000Y-87440000D01*
X131981000Y-90225000D02*
X132074000Y-90319000D01*
X134900000Y-94560000D02*
X134900000Y-87440000D01*
X134960000Y-94800000D02*
X135600000Y-94800000D01*
X127640000Y-94560000D02*
X135360000Y-94560000D01*
X135600000Y-94800000D02*
X135600000Y-94400000D01*
X129525000Y-88180000D02*
X129619000Y-88274000D01*
X131741000Y-90395000D02*
X131869000Y-90524000D01*
X127640000Y-87440000D02*
X135360000Y-87440000D01*
X129934000Y-94190001D02*
G75*
G03*
X131689894Y-94175358I866000J1439999D01*
G01*
X132480000Y-92750000D02*
G75*
G03*
X132224721Y-91859736I-1679990J3D01*
G01*
X129359999Y-91884000D02*
G75*
G03*
X129374642Y-93639894I1439999J-866000D01*
G01*
X132240000Y-93616000D02*
G75*
G03*
X132480099Y-92721326I-1440014J866003D01*
G01*
X131691000Y-91325000D02*
G75*
G03*
X129909807Y-91324496I-891000J-1425003D01*
G01*
X132480000Y-89250000D02*
G75*
G03*
X132480000Y-89250000I-1680000J0D01*
G01*
%TO.C,L1*%
X112200000Y-101362500D02*
X110500000Y-101362500D01*
X110500000Y-94762500D02*
X112200000Y-94762500D01*
X105800000Y-101362500D02*
X105800000Y-94762500D01*
X112200000Y-94762500D02*
X112200000Y-101362500D01*
X105800000Y-94762500D02*
X107500000Y-94762500D01*
X107500000Y-101362500D02*
X105800000Y-101362500D01*
%TO.C,J3*%
X95375000Y-106550000D02*
X94875000Y-106550000D01*
X95085000Y-106840000D02*
X94015000Y-106840000D01*
X99915000Y-107140000D02*
X99915000Y-106840000D01*
X99915000Y-106840000D02*
X100985000Y-106840000D01*
X95375000Y-106850000D02*
X95375000Y-106550000D01*
X94015000Y-106840000D02*
X94015000Y-112560000D01*
X97500000Y-107140000D02*
X95085000Y-107140000D01*
X95085000Y-107140000D02*
X95085000Y-106840000D01*
X97500000Y-107140000D02*
X99915000Y-107140000D01*
X100985000Y-112560000D02*
X97500000Y-112560000D01*
X100985000Y-106840000D02*
X100985000Y-112560000D01*
X94015000Y-112560000D02*
X97500000Y-112560000D01*
%TO.C,C13*%
X102859420Y-100510000D02*
X103140580Y-100510000D01*
X102859420Y-99490000D02*
X103140580Y-99490000D01*
%TO.C,U3*%
X126000000Y-80060000D02*
X127800000Y-80060000D01*
X126000000Y-76940000D02*
X126800000Y-76940000D01*
X126000000Y-76940000D02*
X125200000Y-76940000D01*
X126000000Y-80060000D02*
X125200000Y-80060000D01*
%TO.C,F1*%
X118602064Y-84910000D02*
X117397936Y-84910000D01*
X118602064Y-83090000D02*
X117397936Y-83090000D01*
%TO.C,D2*%
X109225000Y-91000000D02*
X113125000Y-91000000D01*
X109225000Y-91000000D02*
X109225000Y-93000000D01*
X109225000Y-93000000D02*
X113125000Y-93000000D01*
%TO.C,J2*%
X112170000Y-65160000D02*
X112170000Y-66485000D01*
X112235000Y-70015000D02*
X112170000Y-70015000D01*
X105765000Y-66485000D02*
X105765000Y-70015000D01*
X105830000Y-66485000D02*
X105765000Y-66485000D01*
X112235000Y-66485000D02*
X112170000Y-66485000D01*
X105830000Y-70015000D02*
X105765000Y-70015000D01*
X112235000Y-66485000D02*
X112235000Y-70015000D01*
%TO.C,Q1*%
X124560000Y-88000000D02*
X124560000Y-88650000D01*
X121440000Y-88000000D02*
X121440000Y-88650000D01*
X121440000Y-88000000D02*
X121440000Y-87350000D01*
X124560000Y-88000000D02*
X124560000Y-86325000D01*
%TO.C,C8*%
X103892164Y-98360000D02*
X104107836Y-98360000D01*
X103892164Y-97640000D02*
X104107836Y-97640000D01*
%TO.C,R2*%
X123477500Y-93762742D02*
X123477500Y-94237258D01*
X124522500Y-93762742D02*
X124522500Y-94237258D01*
%TO.C,C10*%
X93892164Y-84360000D02*
X94107836Y-84360000D01*
X93892164Y-83640000D02*
X94107836Y-83640000D01*
%TO.C,D1*%
X121750000Y-83000000D02*
X125650000Y-83000000D01*
X121750000Y-83000000D02*
X121750000Y-85000000D01*
X121750000Y-85000000D02*
X125650000Y-85000000D01*
%TO.C,C3*%
X111711252Y-106090000D02*
X110288748Y-106090000D01*
X111711252Y-107910000D02*
X110288748Y-107910000D01*
%TO.C,C12*%
X90360000Y-94107836D02*
X90360000Y-93892164D01*
X89640000Y-94107836D02*
X89640000Y-93892164D01*
%TO.C,R7*%
X87153641Y-80380000D02*
X86846359Y-80380000D01*
X87153641Y-79620000D02*
X86846359Y-79620000D01*
%TO.C,J5*%
X135300000Y-81985000D02*
X135040000Y-81985000D01*
X130990000Y-74365000D02*
X130990000Y-74745000D01*
X132760000Y-81985000D02*
X130990000Y-81985000D01*
X130990000Y-74365000D02*
X132760000Y-74365000D01*
X130990000Y-81985000D02*
X130990000Y-81605000D01*
X135040000Y-74365000D02*
X135300000Y-74365000D01*
%TO.C,C9*%
X104860000Y-86107836D02*
X104860000Y-85892164D01*
X104140000Y-86107836D02*
X104140000Y-85892164D01*
%TO.C,C2*%
X111711252Y-103090000D02*
X110288748Y-103090000D01*
X111711252Y-104910000D02*
X110288748Y-104910000D01*
%TO.C,R6*%
X118762742Y-70522500D02*
X119237258Y-70522500D01*
X118762742Y-69477500D02*
X119237258Y-69477500D01*
%TO.C,C15*%
X86042164Y-88260000D02*
X86257836Y-88260000D01*
X86042164Y-87540000D02*
X86257836Y-87540000D01*
%TO.C,C5*%
X91140580Y-84510000D02*
X90859420Y-84510000D01*
X91140580Y-83490000D02*
X90859420Y-83490000D01*
%TO.C,R10*%
X98851359Y-81375000D02*
X99158641Y-81375000D01*
X98851359Y-80615000D02*
X99158641Y-80615000D01*
%TO.C,R5*%
X124477500Y-97762742D02*
X124477500Y-98237258D01*
X125522500Y-97762742D02*
X125522500Y-98237258D01*
%TO.C,Y1*%
X84500000Y-88900000D02*
X84500000Y-92900000D01*
X87800000Y-88900000D02*
X84500000Y-88900000D01*
%TO.C,C1*%
X117788748Y-90590000D02*
X119211252Y-90590000D01*
X117788748Y-92410000D02*
X119211252Y-92410000D01*
%TO.C,U2*%
X103110000Y-86890000D02*
X103110000Y-87840000D01*
X102160000Y-97110000D02*
X103110000Y-97110000D01*
X93840000Y-97110000D02*
X92890000Y-97110000D01*
X93840000Y-86890000D02*
X92890000Y-86890000D01*
X103110000Y-97110000D02*
X103110000Y-96160000D01*
X102160000Y-86890000D02*
X103110000Y-86890000D01*
X92890000Y-97110000D02*
X92890000Y-96160000D01*
X92890000Y-87840000D02*
X91550000Y-87840000D01*
X92890000Y-86890000D02*
X92890000Y-87840000D01*
%TD*%
M02*
