%TF.GenerationSoftware,KiCad,Pcbnew,(6.0.1)*%
%TF.CreationDate,2022-05-20T16:10:24+03:00*%
%TF.ProjectId,STM32_based_project,53544d33-325f-4626-9173-65645f70726f,rev?*%
%TF.SameCoordinates,Original*%
%TF.FileFunction,Copper,L2,Inr*%
%TF.FilePolarity,Positive*%
%FSLAX46Y46*%
G04 Gerber Fmt 4.6, Leading zero omitted, Abs format (unit mm)*
G04 Created by KiCad (PCBNEW (6.0.1)) date 2022-05-20 16:10:24*
%MOMM*%
%LPD*%
G01*
G04 APERTURE LIST*
G04 Aperture macros list*
%AMRoundRect*
0 Rectangle with rounded corners*
0 $1 Rounding radius*
0 $2 $3 $4 $5 $6 $7 $8 $9 X,Y pos of 4 corners*
0 Add a 4 corners polygon primitive as box body*
4,1,4,$2,$3,$4,$5,$6,$7,$8,$9,$2,$3,0*
0 Add four circle primitives for the rounded corners*
1,1,$1+$1,$2,$3*
1,1,$1+$1,$4,$5*
1,1,$1+$1,$6,$7*
1,1,$1+$1,$8,$9*
0 Add four rect primitives between the rounded corners*
20,1,$1+$1,$2,$3,$4,$5,0*
20,1,$1+$1,$4,$5,$6,$7,0*
20,1,$1+$1,$6,$7,$8,$9,0*
20,1,$1+$1,$8,$9,$2,$3,0*%
G04 Aperture macros list end*
%TA.AperFunction,ComponentPad*%
%ADD10C,0.900000*%
%TD*%
%TA.AperFunction,ComponentPad*%
%ADD11C,8.600000*%
%TD*%
%TA.AperFunction,ComponentPad*%
%ADD12RoundRect,0.200000X0.200000X0.450000X-0.200000X0.450000X-0.200000X-0.450000X0.200000X-0.450000X0*%
%TD*%
%TA.AperFunction,ComponentPad*%
%ADD13O,0.800000X1.300000*%
%TD*%
%TA.AperFunction,ComponentPad*%
%ADD14R,2.400000X2.400000*%
%TD*%
%TA.AperFunction,ComponentPad*%
%ADD15C,2.400000*%
%TD*%
%TA.AperFunction,ComponentPad*%
%ADD16RoundRect,0.200000X-0.200000X-0.450000X0.200000X-0.450000X0.200000X0.450000X-0.200000X0.450000X0*%
%TD*%
%TA.AperFunction,ViaPad*%
%ADD17C,0.800000*%
%TD*%
G04 APERTURE END LIST*
D10*
%TO.N,GND*%
%TO.C,H2*%
X132780419Y-69780419D03*
X133725000Y-67500000D03*
X128219581Y-69780419D03*
D11*
X130500000Y-67500000D03*
D10*
X130500000Y-70725000D03*
X132780419Y-65219581D03*
X128219581Y-65219581D03*
X127275000Y-67500000D03*
X130500000Y-64275000D03*
%TD*%
D11*
%TO.N,GND*%
%TO.C,H3*%
X85000000Y-67500000D03*
D10*
X82719581Y-65219581D03*
X85000000Y-70725000D03*
X87280419Y-65219581D03*
X81775000Y-67500000D03*
X88225000Y-67500000D03*
X87280419Y-69780419D03*
X82719581Y-69780419D03*
X85000000Y-64275000D03*
%TD*%
%TO.N,GND*%
%TO.C,H1*%
X82719581Y-110280419D03*
X87280419Y-110280419D03*
X85000000Y-104775000D03*
X81775000Y-108000000D03*
D11*
X85000000Y-108000000D03*
D10*
X87280419Y-105719581D03*
X82719581Y-105719581D03*
X85000000Y-111225000D03*
X88225000Y-108000000D03*
%TD*%
D11*
%TO.N,GND*%
%TO.C,H4*%
X130500000Y-108500000D03*
D10*
X132780419Y-110780419D03*
X130500000Y-105275000D03*
X128219581Y-106219581D03*
X130500000Y-111725000D03*
X133725000Y-108500000D03*
X128219581Y-110780419D03*
X132780419Y-106219581D03*
X127275000Y-108500000D03*
%TD*%
D12*
%TO.N,+3V3*%
%TO.C,J4*%
X99375000Y-67700000D03*
D13*
%TO.N,I2C1_SCL*%
X98125000Y-67700000D03*
%TO.N,I2C1_SDA*%
X96875000Y-67700000D03*
%TO.N,GND*%
X95625000Y-67700000D03*
%TD*%
D14*
%TO.N,+12V*%
%TO.C,J1*%
X130800000Y-92750000D03*
D15*
%TO.N,GND*%
X130800000Y-89250000D03*
%TD*%
D16*
%TO.N,+3V3*%
%TO.C,J3*%
X95625000Y-108000000D03*
D13*
%TO.N,UART3_TX*%
X96875000Y-108000000D03*
%TO.N,UART3_RX*%
X98125000Y-108000000D03*
%TO.N,GND*%
X99375000Y-108000000D03*
%TD*%
D17*
%TO.N,GND*%
X114000000Y-92500000D03*
X113500000Y-104500000D03*
X129750000Y-76000000D03*
X113500000Y-103250000D03*
X104750000Y-100000000D03*
X84000000Y-92000000D03*
X124000000Y-92250000D03*
X93750000Y-100000000D03*
X90000000Y-86800000D03*
X121000000Y-91500000D03*
X106000000Y-85250000D03*
X128742714Y-76988615D03*
X89000000Y-92750000D03*
X114000000Y-91500000D03*
X90000000Y-92750000D03*
X113500000Y-107750000D03*
X124000000Y-85750000D03*
X84750000Y-81250000D03*
X129750000Y-77000000D03*
X126000000Y-97250000D03*
X110250000Y-64500000D03*
X128750000Y-76000000D03*
X119000000Y-91500000D03*
X109000000Y-64500000D03*
X125000000Y-96250000D03*
X126000000Y-76250000D03*
X124000000Y-88250000D03*
X113500000Y-106000000D03*
X95250000Y-84000000D03*
X85000000Y-94000000D03*
X106500000Y-64500000D03*
X87500000Y-87750000D03*
X90000000Y-97250000D03*
X88250000Y-89500000D03*
X105250000Y-98000000D03*
X117250000Y-70000000D03*
X117000000Y-96200000D03*
X116996508Y-99496002D03*
X117000000Y-98500000D03*
X89250000Y-84000000D03*
X105000000Y-84750000D03*
X125000000Y-93250000D03*
%TO.N,+3V3*%
X95250000Y-81000000D03*
X110750000Y-107000000D03*
X107250000Y-100250000D03*
X117250000Y-68000000D03*
X108500000Y-107000000D03*
X110750000Y-104000000D03*
X91750000Y-83000000D03*
X103750000Y-86500000D03*
X87500000Y-96750000D03*
X107250000Y-101250000D03*
X93500000Y-83250000D03*
X120000000Y-98750000D03*
X111500000Y-64500000D03*
X110750000Y-100250000D03*
X96250000Y-100000000D03*
X108500000Y-104000000D03*
X87500000Y-95250000D03*
X110750000Y-101250000D03*
X103000000Y-98750000D03*
X84750000Y-76750000D03*
X90000000Y-89250000D03*
X100500000Y-81000000D03*
X121000000Y-99750000D03*
%TO.N,NRST*%
X101500000Y-80250000D03*
X100750000Y-88250000D03*
%TD*%
%TA.AperFunction,Conductor*%
%TO.N,GND*%
G36*
X129751276Y-62528002D02*
G01*
X129797769Y-62581658D01*
X129807873Y-62651932D01*
X129778379Y-62716512D01*
X129718653Y-62754896D01*
X129703842Y-62758290D01*
X129502128Y-62791864D01*
X129496631Y-62793032D01*
X129087547Y-62899209D01*
X129082181Y-62900861D01*
X128684153Y-63042983D01*
X128678965Y-63045100D01*
X128295133Y-63222050D01*
X128290164Y-63224614D01*
X127923581Y-63434984D01*
X127918848Y-63437987D01*
X127572420Y-63680109D01*
X127567979Y-63683517D01*
X127296476Y-63911739D01*
X127288031Y-63924456D01*
X127294139Y-63934929D01*
X127693493Y-64334283D01*
X128219580Y-64860371D01*
X129104878Y-65745668D01*
X132780419Y-69421209D01*
X133665717Y-70306506D01*
X134062145Y-70702934D01*
X134075903Y-70710446D01*
X134085263Y-70703989D01*
X134254244Y-70511303D01*
X134257744Y-70506935D01*
X134507073Y-70165645D01*
X134510168Y-70160987D01*
X134728160Y-69798903D01*
X134730841Y-69793964D01*
X134915779Y-69413946D01*
X134918014Y-69408780D01*
X135068442Y-69013815D01*
X135070201Y-69008496D01*
X135184921Y-68601728D01*
X135186204Y-68596259D01*
X135242170Y-68298642D01*
X135274417Y-68235391D01*
X135335741Y-68199615D01*
X135406672Y-68202673D01*
X135464689Y-68243593D01*
X135491374Y-68309384D01*
X135492000Y-68321928D01*
X135492000Y-107663249D01*
X135471998Y-107731370D01*
X135418342Y-107777863D01*
X135348068Y-107787967D01*
X135283488Y-107758473D01*
X135245104Y-107698747D01*
X135241121Y-107680022D01*
X135237155Y-107650499D01*
X135236162Y-107644976D01*
X135142883Y-107232748D01*
X135141410Y-107227361D01*
X135011847Y-106825025D01*
X135009910Y-106819815D01*
X134845098Y-106430599D01*
X134842683Y-106425536D01*
X134643936Y-106052535D01*
X134641085Y-106047713D01*
X134409974Y-105693865D01*
X134406692Y-105689297D01*
X134145030Y-105357380D01*
X134141382Y-105353155D01*
X134088103Y-105296715D01*
X134074389Y-105288705D01*
X134073517Y-105288742D01*
X134065438Y-105293772D01*
X133665717Y-105693493D01*
X132780419Y-106578790D01*
X132254332Y-107104878D01*
X129104879Y-110254331D01*
X128219581Y-111139628D01*
X127693494Y-111665716D01*
X127296736Y-112062474D01*
X127289122Y-112076418D01*
X127289171Y-112077110D01*
X127294617Y-112085274D01*
X127372268Y-112157812D01*
X127376507Y-112161433D01*
X127709802Y-112421363D01*
X127714359Y-112424602D01*
X128069448Y-112653880D01*
X128074250Y-112656686D01*
X128448316Y-112853491D01*
X128453374Y-112855871D01*
X128843435Y-113018638D01*
X128848690Y-113020561D01*
X129251676Y-113148008D01*
X129257075Y-113149455D01*
X129669796Y-113240575D01*
X129677255Y-113241877D01*
X129740921Y-113273295D01*
X129777495Y-113334146D01*
X129775364Y-113405111D01*
X129735205Y-113463658D01*
X129669768Y-113491200D01*
X129655588Y-113492000D01*
X85049328Y-113492000D01*
X85029943Y-113490500D01*
X85015142Y-113488195D01*
X85015139Y-113488195D01*
X85006270Y-113486814D01*
X84985361Y-113489548D01*
X84963824Y-113490504D01*
X84774907Y-113482690D01*
X84551680Y-113473457D01*
X84541302Y-113472597D01*
X84265547Y-113438224D01*
X84101215Y-113417740D01*
X84090950Y-113416028D01*
X83923539Y-113380925D01*
X83656899Y-113325016D01*
X83646804Y-113322460D01*
X83221740Y-113195914D01*
X83211890Y-113192532D01*
X82953531Y-113091720D01*
X82798739Y-113031319D01*
X82789218Y-113027144D01*
X82390777Y-112832358D01*
X82381621Y-112827403D01*
X82000641Y-112600389D01*
X81991922Y-112594693D01*
X81630988Y-112336990D01*
X81622770Y-112330594D01*
X81284335Y-112043955D01*
X81276674Y-112036901D01*
X80963099Y-111723326D01*
X80956045Y-111715665D01*
X80838109Y-111576418D01*
X81789122Y-111576418D01*
X81789171Y-111577110D01*
X81794617Y-111585274D01*
X81872268Y-111657812D01*
X81876507Y-111661433D01*
X82209802Y-111921363D01*
X82214359Y-111924602D01*
X82569448Y-112153880D01*
X82574250Y-112156686D01*
X82948316Y-112353491D01*
X82953374Y-112355871D01*
X83343435Y-112518638D01*
X83348690Y-112520561D01*
X83751676Y-112648008D01*
X83757075Y-112649455D01*
X84169796Y-112740575D01*
X84175307Y-112741537D01*
X84594501Y-112795610D01*
X84600064Y-112796077D01*
X85022405Y-112812670D01*
X85027997Y-112812641D01*
X85450125Y-112791626D01*
X85455708Y-112791098D01*
X85874305Y-112732640D01*
X85879792Y-112731623D01*
X86291543Y-112636185D01*
X86296929Y-112634681D01*
X86698567Y-112503018D01*
X86703784Y-112501046D01*
X87092126Y-112334202D01*
X87097169Y-112331764D01*
X87469131Y-112131063D01*
X87473935Y-112128188D01*
X87826563Y-111895231D01*
X87831126Y-111891916D01*
X88161658Y-111628529D01*
X88165873Y-111624852D01*
X88203823Y-111588649D01*
X88211763Y-111574890D01*
X88211713Y-111573843D01*
X88206822Y-111566032D01*
X87806507Y-111165717D01*
X86921210Y-110280419D01*
X86395122Y-109754332D01*
X85012812Y-108372022D01*
X84998868Y-108364408D01*
X84997035Y-108364539D01*
X84990420Y-108368790D01*
X83604879Y-109754331D01*
X82719581Y-110639628D01*
X82193494Y-111165716D01*
X81796736Y-111562474D01*
X81789122Y-111576418D01*
X80838109Y-111576418D01*
X80669406Y-111377230D01*
X80663010Y-111369012D01*
X80405307Y-111008078D01*
X80399611Y-110999359D01*
X80225683Y-110707469D01*
X80172596Y-110618377D01*
X80167641Y-110609221D01*
X80055241Y-110379303D01*
X79972856Y-110210782D01*
X79968677Y-110201253D01*
X79807468Y-109788110D01*
X79804086Y-109778260D01*
X79677540Y-109353196D01*
X79674984Y-109343101D01*
X79592313Y-108948828D01*
X79583972Y-108909050D01*
X79582259Y-108898781D01*
X79569873Y-108799410D01*
X79542531Y-108580062D01*
X79527403Y-108458698D01*
X79526543Y-108448320D01*
X79509805Y-108043639D01*
X79511197Y-108019049D01*
X79511804Y-108015147D01*
X79511804Y-108015145D01*
X79513186Y-108006270D01*
X79511979Y-107997035D01*
X79509064Y-107974749D01*
X79508000Y-107958411D01*
X79508000Y-107876825D01*
X80188855Y-107876825D01*
X80196600Y-108299410D01*
X80196950Y-108304976D01*
X80242231Y-108725208D01*
X80243078Y-108730746D01*
X80325535Y-109145286D01*
X80326864Y-109150698D01*
X80445852Y-109556289D01*
X80447658Y-109561564D01*
X80602219Y-109954948D01*
X80604501Y-109960072D01*
X80793416Y-110338150D01*
X80796140Y-110343043D01*
X81017917Y-110702833D01*
X81021068Y-110707469D01*
X81273955Y-111046127D01*
X81277488Y-111050444D01*
X81413222Y-111201988D01*
X81426717Y-111210351D01*
X81436128Y-111204662D01*
X81834283Y-110806507D01*
X82719581Y-109921210D01*
X82745669Y-109895122D01*
X83245668Y-109395122D01*
X84627978Y-108012812D01*
X84634356Y-108001132D01*
X85364408Y-108001132D01*
X85364539Y-108002965D01*
X85368790Y-108009580D01*
X86754331Y-109395121D01*
X87254330Y-109895121D01*
X87280418Y-109921209D01*
X88165716Y-110806506D01*
X88562142Y-111202932D01*
X88575903Y-111210446D01*
X88585263Y-111203989D01*
X88754244Y-111011303D01*
X88757744Y-111006935D01*
X89007073Y-110665645D01*
X89010168Y-110660987D01*
X89228160Y-110298903D01*
X89230841Y-110293964D01*
X89415779Y-109913946D01*
X89418014Y-109908780D01*
X89568442Y-109513815D01*
X89570201Y-109508496D01*
X89684920Y-109101730D01*
X89686204Y-109096259D01*
X89764315Y-108680883D01*
X89765102Y-108675346D01*
X89806035Y-108254102D01*
X89806308Y-108249665D01*
X89812788Y-108002233D01*
X89812746Y-107997762D01*
X89793917Y-107574973D01*
X89793419Y-107569386D01*
X89783597Y-107496263D01*
X94716500Y-107496263D01*
X94716501Y-108001132D01*
X94716501Y-108506634D01*
X94716764Y-108509492D01*
X94716764Y-108509501D01*
X94720026Y-108545004D01*
X94723247Y-108580062D01*
X94725246Y-108586440D01*
X94725246Y-108586441D01*
X94770469Y-108730746D01*
X94774528Y-108743699D01*
X94863361Y-108890381D01*
X94984619Y-109011639D01*
X95131301Y-109100472D01*
X95138548Y-109102743D01*
X95138550Y-109102744D01*
X95181198Y-109116109D01*
X95294938Y-109151753D01*
X95368365Y-109158500D01*
X95371263Y-109158500D01*
X95625665Y-109158499D01*
X95881634Y-109158499D01*
X95884492Y-109158236D01*
X95884501Y-109158236D01*
X95920004Y-109154974D01*
X95955062Y-109151753D01*
X95975698Y-109145286D01*
X96111450Y-109102744D01*
X96111452Y-109102743D01*
X96118699Y-109100472D01*
X96255018Y-109017915D01*
X96323648Y-108999736D01*
X96394350Y-109023755D01*
X96412308Y-109036802D01*
X96418248Y-109041118D01*
X96424276Y-109043802D01*
X96424278Y-109043803D01*
X96571844Y-109109503D01*
X96592712Y-109118794D01*
X96686112Y-109138647D01*
X96773056Y-109157128D01*
X96773061Y-109157128D01*
X96779513Y-109158500D01*
X96970487Y-109158500D01*
X96976939Y-109157128D01*
X96976944Y-109157128D01*
X97063888Y-109138647D01*
X97157288Y-109118794D01*
X97178156Y-109109503D01*
X97325722Y-109043803D01*
X97325724Y-109043802D01*
X97331752Y-109041118D01*
X97337693Y-109036802D01*
X97425939Y-108972687D01*
X97492807Y-108948828D01*
X97561958Y-108964909D01*
X97574061Y-108972687D01*
X97662308Y-109036802D01*
X97668248Y-109041118D01*
X97674276Y-109043802D01*
X97674278Y-109043803D01*
X97821844Y-109109503D01*
X97842712Y-109118794D01*
X97936112Y-109138647D01*
X98023056Y-109157128D01*
X98023061Y-109157128D01*
X98029513Y-109158500D01*
X98220487Y-109158500D01*
X98226939Y-109157128D01*
X98226944Y-109157128D01*
X98313888Y-109138647D01*
X98407288Y-109118794D01*
X98428156Y-109109503D01*
X98575722Y-109043803D01*
X98575724Y-109043802D01*
X98581752Y-109041118D01*
X98676366Y-108972377D01*
X98743230Y-108948520D01*
X98812382Y-108964600D01*
X98824485Y-108972378D01*
X98913157Y-109036802D01*
X98924529Y-109043368D01*
X99086839Y-109115633D01*
X99099325Y-109119690D01*
X99103278Y-109120530D01*
X99117341Y-109119457D01*
X99121000Y-109109503D01*
X99121000Y-109106182D01*
X99629000Y-109106182D01*
X99632973Y-109119713D01*
X99643468Y-109121222D01*
X99650675Y-109119690D01*
X99663161Y-109115633D01*
X99825471Y-109043368D01*
X99836843Y-109036802D01*
X99980574Y-108932376D01*
X99990337Y-108923585D01*
X100109214Y-108791558D01*
X100116938Y-108780927D01*
X100205765Y-108627074D01*
X100211111Y-108615066D01*
X100266011Y-108446102D01*
X100268741Y-108433261D01*
X100274672Y-108376825D01*
X125688855Y-108376825D01*
X125696600Y-108799410D01*
X125696950Y-108804976D01*
X125742231Y-109225208D01*
X125743078Y-109230746D01*
X125825535Y-109645286D01*
X125826864Y-109650698D01*
X125945852Y-110056289D01*
X125947658Y-110061564D01*
X126102219Y-110454948D01*
X126104501Y-110460072D01*
X126293416Y-110838150D01*
X126296140Y-110843043D01*
X126517917Y-111202833D01*
X126521068Y-111207469D01*
X126773955Y-111546127D01*
X126777488Y-111550444D01*
X126913222Y-111701988D01*
X126926717Y-111710351D01*
X126936128Y-111704662D01*
X127334283Y-111306507D01*
X128219581Y-110421210D01*
X128300133Y-110340658D01*
X128745668Y-109895122D01*
X130127978Y-108512812D01*
X130135592Y-108498868D01*
X130135461Y-108497035D01*
X130131210Y-108490420D01*
X128745669Y-107104879D01*
X127860372Y-106219581D01*
X127334284Y-105693494D01*
X126935561Y-105294771D01*
X126922253Y-105287504D01*
X126912214Y-105294626D01*
X126668223Y-105587994D01*
X126664828Y-105592467D01*
X126424528Y-105940152D01*
X126421549Y-105944902D01*
X126213106Y-106312575D01*
X126210562Y-106317568D01*
X126035629Y-106702312D01*
X126033538Y-106707511D01*
X125893498Y-107106290D01*
X125891877Y-107111659D01*
X125787840Y-107521303D01*
X125786706Y-107526776D01*
X125719496Y-107944054D01*
X125718851Y-107949632D01*
X125689002Y-108371204D01*
X125688855Y-108376825D01*
X100274672Y-108376825D01*
X100282656Y-108300862D01*
X100283000Y-108294302D01*
X100283000Y-108272115D01*
X100278525Y-108256876D01*
X100277135Y-108255671D01*
X100269452Y-108254000D01*
X99647115Y-108254000D01*
X99631876Y-108258475D01*
X99630671Y-108259865D01*
X99629000Y-108267548D01*
X99629000Y-109106182D01*
X99121000Y-109106182D01*
X99121000Y-107727885D01*
X99629000Y-107727885D01*
X99633475Y-107743124D01*
X99634865Y-107744329D01*
X99642548Y-107746000D01*
X100264885Y-107746000D01*
X100280124Y-107741525D01*
X100281329Y-107740135D01*
X100283000Y-107732452D01*
X100283000Y-107705698D01*
X100282656Y-107699138D01*
X100268741Y-107566739D01*
X100266011Y-107553898D01*
X100211111Y-107384934D01*
X100205765Y-107372926D01*
X100116938Y-107219073D01*
X100109214Y-107208442D01*
X99990337Y-107076415D01*
X99980574Y-107067624D01*
X99887497Y-107000000D01*
X107586496Y-107000000D01*
X107587186Y-107006565D01*
X107598701Y-107116120D01*
X107606458Y-107189928D01*
X107665473Y-107371556D01*
X107760960Y-107536944D01*
X107765378Y-107541851D01*
X107765379Y-107541852D01*
X107790171Y-107569386D01*
X107888747Y-107678866D01*
X108043248Y-107791118D01*
X108049276Y-107793802D01*
X108049278Y-107793803D01*
X108211681Y-107866109D01*
X108217712Y-107868794D01*
X108311112Y-107888647D01*
X108398056Y-107907128D01*
X108398061Y-107907128D01*
X108404513Y-107908500D01*
X108595487Y-107908500D01*
X108601939Y-107907128D01*
X108601944Y-107907128D01*
X108688888Y-107888647D01*
X108782288Y-107868794D01*
X108788319Y-107866109D01*
X108950722Y-107793803D01*
X108950724Y-107793802D01*
X108956752Y-107791118D01*
X109111253Y-107678866D01*
X109209829Y-107569386D01*
X109234621Y-107541852D01*
X109234622Y-107541851D01*
X109239040Y-107536944D01*
X109334527Y-107371556D01*
X109393542Y-107189928D01*
X109401300Y-107116120D01*
X109412814Y-107006565D01*
X109413504Y-107000000D01*
X109836496Y-107000000D01*
X109837186Y-107006565D01*
X109848701Y-107116120D01*
X109856458Y-107189928D01*
X109915473Y-107371556D01*
X110010960Y-107536944D01*
X110015378Y-107541851D01*
X110015379Y-107541852D01*
X110040171Y-107569386D01*
X110138747Y-107678866D01*
X110293248Y-107791118D01*
X110299276Y-107793802D01*
X110299278Y-107793803D01*
X110461681Y-107866109D01*
X110467712Y-107868794D01*
X110561112Y-107888647D01*
X110648056Y-107907128D01*
X110648061Y-107907128D01*
X110654513Y-107908500D01*
X110845487Y-107908500D01*
X110851939Y-107907128D01*
X110851944Y-107907128D01*
X110938888Y-107888647D01*
X111032288Y-107868794D01*
X111038319Y-107866109D01*
X111200722Y-107793803D01*
X111200724Y-107793802D01*
X111206752Y-107791118D01*
X111361253Y-107678866D01*
X111459829Y-107569386D01*
X111484621Y-107541852D01*
X111484622Y-107541851D01*
X111489040Y-107536944D01*
X111584527Y-107371556D01*
X111643542Y-107189928D01*
X111651300Y-107116120D01*
X111662814Y-107006565D01*
X111663504Y-107000000D01*
X111651301Y-106883891D01*
X111644232Y-106816635D01*
X111644232Y-106816633D01*
X111643542Y-106810072D01*
X111584527Y-106628444D01*
X111489040Y-106463056D01*
X111361253Y-106321134D01*
X111206752Y-106208882D01*
X111200724Y-106206198D01*
X111200722Y-106206197D01*
X111038319Y-106133891D01*
X111038318Y-106133891D01*
X111032288Y-106131206D01*
X110938888Y-106111353D01*
X110851944Y-106092872D01*
X110851939Y-106092872D01*
X110845487Y-106091500D01*
X110654513Y-106091500D01*
X110648061Y-106092872D01*
X110648056Y-106092872D01*
X110561113Y-106111353D01*
X110467712Y-106131206D01*
X110461682Y-106133891D01*
X110461681Y-106133891D01*
X110299278Y-106206197D01*
X110299276Y-106206198D01*
X110293248Y-106208882D01*
X110138747Y-106321134D01*
X110010960Y-106463056D01*
X109915473Y-106628444D01*
X109856458Y-106810072D01*
X109855768Y-106816633D01*
X109855768Y-106816635D01*
X109848699Y-106883891D01*
X109836496Y-107000000D01*
X109413504Y-107000000D01*
X109401301Y-106883891D01*
X109394232Y-106816635D01*
X109394232Y-106816633D01*
X109393542Y-106810072D01*
X109334527Y-106628444D01*
X109239040Y-106463056D01*
X109111253Y-106321134D01*
X108956752Y-106208882D01*
X108950724Y-106206198D01*
X108950722Y-106206197D01*
X108788319Y-106133891D01*
X108788318Y-106133891D01*
X108782288Y-106131206D01*
X108688888Y-106111353D01*
X108601944Y-106092872D01*
X108601939Y-106092872D01*
X108595487Y-106091500D01*
X108404513Y-106091500D01*
X108398061Y-106092872D01*
X108398056Y-106092872D01*
X108311113Y-106111353D01*
X108217712Y-106131206D01*
X108211682Y-106133891D01*
X108211681Y-106133891D01*
X108049278Y-106206197D01*
X108049276Y-106206198D01*
X108043248Y-106208882D01*
X107888747Y-106321134D01*
X107760960Y-106463056D01*
X107665473Y-106628444D01*
X107606458Y-106810072D01*
X107605768Y-106816633D01*
X107605768Y-106816635D01*
X107598699Y-106883891D01*
X107586496Y-107000000D01*
X99887497Y-107000000D01*
X99836843Y-106963198D01*
X99825471Y-106956632D01*
X99663161Y-106884367D01*
X99650675Y-106880310D01*
X99646722Y-106879470D01*
X99632659Y-106880543D01*
X99629000Y-106890497D01*
X99629000Y-107727885D01*
X99121000Y-107727885D01*
X99121000Y-106893818D01*
X99117027Y-106880287D01*
X99106532Y-106878778D01*
X99099325Y-106880310D01*
X99086839Y-106884367D01*
X98924529Y-106956632D01*
X98913157Y-106963198D01*
X98824485Y-107027622D01*
X98757617Y-107051481D01*
X98688466Y-107035400D01*
X98676380Y-107027634D01*
X98581752Y-106958882D01*
X98575724Y-106956198D01*
X98575722Y-106956197D01*
X98413319Y-106883891D01*
X98413318Y-106883891D01*
X98407288Y-106881206D01*
X98313887Y-106861353D01*
X98226944Y-106842872D01*
X98226939Y-106842872D01*
X98220487Y-106841500D01*
X98029513Y-106841500D01*
X98023061Y-106842872D01*
X98023056Y-106842872D01*
X97936112Y-106861353D01*
X97842712Y-106881206D01*
X97836682Y-106883891D01*
X97836681Y-106883891D01*
X97674278Y-106956197D01*
X97674276Y-106956198D01*
X97668248Y-106958882D01*
X97662907Y-106962762D01*
X97662906Y-106962763D01*
X97574061Y-107027313D01*
X97507193Y-107051172D01*
X97438042Y-107035091D01*
X97425939Y-107027313D01*
X97337094Y-106962763D01*
X97337093Y-106962762D01*
X97331752Y-106958882D01*
X97325724Y-106956198D01*
X97325722Y-106956197D01*
X97163319Y-106883891D01*
X97163318Y-106883891D01*
X97157288Y-106881206D01*
X97063887Y-106861353D01*
X96976944Y-106842872D01*
X96976939Y-106842872D01*
X96970487Y-106841500D01*
X96779513Y-106841500D01*
X96773061Y-106842872D01*
X96773056Y-106842872D01*
X96686112Y-106861353D01*
X96592712Y-106881206D01*
X96586682Y-106883891D01*
X96586681Y-106883891D01*
X96424278Y-106956197D01*
X96424276Y-106956198D01*
X96418248Y-106958882D01*
X96412908Y-106962762D01*
X96412906Y-106962763D01*
X96394350Y-106976245D01*
X96327482Y-107000103D01*
X96255018Y-106982085D01*
X96245375Y-106976245D01*
X96118699Y-106899528D01*
X96111452Y-106897257D01*
X96111450Y-106897256D01*
X96045164Y-106876483D01*
X95955062Y-106848247D01*
X95881635Y-106841500D01*
X95878737Y-106841500D01*
X95624335Y-106841501D01*
X95368366Y-106841501D01*
X95365508Y-106841764D01*
X95365499Y-106841764D01*
X95329996Y-106845026D01*
X95294938Y-106848247D01*
X95288560Y-106850246D01*
X95288559Y-106850246D01*
X95138550Y-106897256D01*
X95138548Y-106897257D01*
X95131301Y-106899528D01*
X94984619Y-106988361D01*
X94863361Y-107109619D01*
X94774528Y-107256301D01*
X94723247Y-107419938D01*
X94716500Y-107493365D01*
X94716500Y-107496263D01*
X89783597Y-107496263D01*
X89737155Y-107150499D01*
X89736162Y-107144976D01*
X89642883Y-106732748D01*
X89641410Y-106727361D01*
X89511847Y-106325025D01*
X89509910Y-106319815D01*
X89345098Y-105930599D01*
X89342683Y-105925536D01*
X89143936Y-105552535D01*
X89141085Y-105547713D01*
X88909974Y-105193865D01*
X88906692Y-105189297D01*
X88697908Y-104924456D01*
X127288031Y-104924456D01*
X127294139Y-104934929D01*
X127693493Y-105334283D01*
X128174223Y-105815014D01*
X128219580Y-105860371D01*
X129104878Y-106745668D01*
X130487188Y-108127978D01*
X130501132Y-108135592D01*
X130502965Y-108135461D01*
X130509580Y-108131210D01*
X131895121Y-106745669D01*
X132780419Y-105860372D01*
X132825776Y-105815015D01*
X133306506Y-105334284D01*
X133702754Y-104938036D01*
X133710316Y-104924187D01*
X133703987Y-104914962D01*
X133530928Y-104761582D01*
X133526561Y-104758046D01*
X133186600Y-104506948D01*
X133181947Y-104503821D01*
X132820995Y-104283926D01*
X132816094Y-104281232D01*
X132437027Y-104094297D01*
X132431904Y-104092048D01*
X132037707Y-103939545D01*
X132032417Y-103937765D01*
X131626218Y-103820904D01*
X131620794Y-103819602D01*
X131205822Y-103739316D01*
X131200293Y-103738500D01*
X130779828Y-103695420D01*
X130774247Y-103695098D01*
X130351635Y-103689566D01*
X130346024Y-103689742D01*
X129924593Y-103721800D01*
X129919036Y-103722472D01*
X129502128Y-103791864D01*
X129496631Y-103793032D01*
X129087547Y-103899209D01*
X129082181Y-103900861D01*
X128684153Y-104042983D01*
X128678965Y-104045100D01*
X128295133Y-104222050D01*
X128290164Y-104224614D01*
X127923581Y-104434984D01*
X127918848Y-104437987D01*
X127572420Y-104680109D01*
X127567979Y-104683517D01*
X127296476Y-104911739D01*
X127288031Y-104924456D01*
X88697908Y-104924456D01*
X88645030Y-104857380D01*
X88641382Y-104853155D01*
X88588103Y-104796715D01*
X88574389Y-104788705D01*
X88573517Y-104788742D01*
X88565438Y-104793772D01*
X88165717Y-105193493D01*
X87280419Y-106078790D01*
X86754332Y-106604878D01*
X85372022Y-107987188D01*
X85364408Y-108001132D01*
X84634356Y-108001132D01*
X84635592Y-107998868D01*
X84635461Y-107997035D01*
X84631210Y-107990420D01*
X83245669Y-106604879D01*
X82360372Y-105719581D01*
X81834284Y-105193494D01*
X81435561Y-104794771D01*
X81422253Y-104787504D01*
X81412214Y-104794626D01*
X81168223Y-105087994D01*
X81164828Y-105092467D01*
X80924528Y-105440152D01*
X80921549Y-105444902D01*
X80713106Y-105812575D01*
X80710562Y-105817568D01*
X80535629Y-106202312D01*
X80533538Y-106207511D01*
X80393498Y-106606290D01*
X80391877Y-106611659D01*
X80287840Y-107021303D01*
X80286706Y-107026776D01*
X80219496Y-107444054D01*
X80218851Y-107449632D01*
X80189002Y-107871204D01*
X80188855Y-107876825D01*
X79508000Y-107876825D01*
X79508000Y-104424456D01*
X81788031Y-104424456D01*
X81794139Y-104434929D01*
X82193493Y-104834283D01*
X82693492Y-105334283D01*
X82719580Y-105360371D01*
X83604878Y-106245668D01*
X84987188Y-107627978D01*
X85001132Y-107635592D01*
X85002965Y-107635461D01*
X85009580Y-107631210D01*
X86395121Y-106245669D01*
X87280419Y-105360372D01*
X87306507Y-105334284D01*
X87806506Y-104834284D01*
X88202754Y-104438036D01*
X88210316Y-104424187D01*
X88203987Y-104414962D01*
X88030928Y-104261582D01*
X88026561Y-104258046D01*
X87686600Y-104006948D01*
X87681947Y-104003821D01*
X87675675Y-104000000D01*
X107586496Y-104000000D01*
X107587186Y-104006565D01*
X107596171Y-104092048D01*
X107606458Y-104189928D01*
X107665473Y-104371556D01*
X107668776Y-104377278D01*
X107668777Y-104377279D01*
X107695860Y-104424187D01*
X107760960Y-104536944D01*
X107888747Y-104678866D01*
X108043248Y-104791118D01*
X108049276Y-104793802D01*
X108049278Y-104793803D01*
X108211681Y-104866109D01*
X108217712Y-104868794D01*
X108311112Y-104888647D01*
X108398056Y-104907128D01*
X108398061Y-104907128D01*
X108404513Y-104908500D01*
X108595487Y-104908500D01*
X108601939Y-104907128D01*
X108601944Y-104907128D01*
X108688888Y-104888647D01*
X108782288Y-104868794D01*
X108788319Y-104866109D01*
X108950722Y-104793803D01*
X108950724Y-104793802D01*
X108956752Y-104791118D01*
X109111253Y-104678866D01*
X109239040Y-104536944D01*
X109304140Y-104424187D01*
X109331223Y-104377279D01*
X109331224Y-104377278D01*
X109334527Y-104371556D01*
X109393542Y-104189928D01*
X109403830Y-104092048D01*
X109412814Y-104006565D01*
X109413504Y-104000000D01*
X109836496Y-104000000D01*
X109837186Y-104006565D01*
X109846171Y-104092048D01*
X109856458Y-104189928D01*
X109915473Y-104371556D01*
X109918776Y-104377278D01*
X109918777Y-104377279D01*
X109945860Y-104424187D01*
X110010960Y-104536944D01*
X110138747Y-104678866D01*
X110293248Y-104791118D01*
X110299276Y-104793802D01*
X110299278Y-104793803D01*
X110461681Y-104866109D01*
X110467712Y-104868794D01*
X110561112Y-104888647D01*
X110648056Y-104907128D01*
X110648061Y-104907128D01*
X110654513Y-104908500D01*
X110845487Y-104908500D01*
X110851939Y-104907128D01*
X110851944Y-104907128D01*
X110938888Y-104888647D01*
X111032288Y-104868794D01*
X111038319Y-104866109D01*
X111200722Y-104793803D01*
X111200724Y-104793802D01*
X111206752Y-104791118D01*
X111361253Y-104678866D01*
X111489040Y-104536944D01*
X111554140Y-104424187D01*
X111581223Y-104377279D01*
X111581224Y-104377278D01*
X111584527Y-104371556D01*
X111643542Y-104189928D01*
X111653830Y-104092048D01*
X111662814Y-104006565D01*
X111663504Y-104000000D01*
X111652911Y-103899209D01*
X111644232Y-103816635D01*
X111644232Y-103816633D01*
X111643542Y-103810072D01*
X111584527Y-103628444D01*
X111489040Y-103463056D01*
X111433040Y-103400861D01*
X111365675Y-103326045D01*
X111365674Y-103326044D01*
X111361253Y-103321134D01*
X111206752Y-103208882D01*
X111200724Y-103206198D01*
X111200722Y-103206197D01*
X111038319Y-103133891D01*
X111038318Y-103133891D01*
X111032288Y-103131206D01*
X110938888Y-103111353D01*
X110851944Y-103092872D01*
X110851939Y-103092872D01*
X110845487Y-103091500D01*
X110654513Y-103091500D01*
X110648061Y-103092872D01*
X110648056Y-103092872D01*
X110561112Y-103111353D01*
X110467712Y-103131206D01*
X110461682Y-103133891D01*
X110461681Y-103133891D01*
X110299278Y-103206197D01*
X110299276Y-103206198D01*
X110293248Y-103208882D01*
X110138747Y-103321134D01*
X110134326Y-103326044D01*
X110134325Y-103326045D01*
X110066961Y-103400861D01*
X110010960Y-103463056D01*
X109915473Y-103628444D01*
X109856458Y-103810072D01*
X109855768Y-103816633D01*
X109855768Y-103816635D01*
X109847089Y-103899209D01*
X109836496Y-104000000D01*
X109413504Y-104000000D01*
X109402911Y-103899209D01*
X109394232Y-103816635D01*
X109394232Y-103816633D01*
X109393542Y-103810072D01*
X109334527Y-103628444D01*
X109239040Y-103463056D01*
X109183040Y-103400861D01*
X109115675Y-103326045D01*
X109115674Y-103326044D01*
X109111253Y-103321134D01*
X108956752Y-103208882D01*
X108950724Y-103206198D01*
X108950722Y-103206197D01*
X108788319Y-103133891D01*
X108788318Y-103133891D01*
X108782288Y-103131206D01*
X108688888Y-103111353D01*
X108601944Y-103092872D01*
X108601939Y-103092872D01*
X108595487Y-103091500D01*
X108404513Y-103091500D01*
X108398061Y-103092872D01*
X108398056Y-103092872D01*
X108311112Y-103111353D01*
X108217712Y-103131206D01*
X108211682Y-103133891D01*
X108211681Y-103133891D01*
X108049278Y-103206197D01*
X108049276Y-103206198D01*
X108043248Y-103208882D01*
X107888747Y-103321134D01*
X107884326Y-103326044D01*
X107884325Y-103326045D01*
X107816961Y-103400861D01*
X107760960Y-103463056D01*
X107665473Y-103628444D01*
X107606458Y-103810072D01*
X107605768Y-103816633D01*
X107605768Y-103816635D01*
X107597089Y-103899209D01*
X107586496Y-104000000D01*
X87675675Y-104000000D01*
X87320995Y-103783926D01*
X87316094Y-103781232D01*
X86937027Y-103594297D01*
X86931904Y-103592048D01*
X86537707Y-103439545D01*
X86532417Y-103437765D01*
X86126218Y-103320904D01*
X86120794Y-103319602D01*
X85705822Y-103239316D01*
X85700293Y-103238500D01*
X85279828Y-103195420D01*
X85274247Y-103195098D01*
X84851635Y-103189566D01*
X84846024Y-103189742D01*
X84424593Y-103221800D01*
X84419036Y-103222472D01*
X84002128Y-103291864D01*
X83996631Y-103293032D01*
X83587547Y-103399209D01*
X83582181Y-103400861D01*
X83184153Y-103542983D01*
X83178965Y-103545100D01*
X82795133Y-103722050D01*
X82790164Y-103724614D01*
X82423581Y-103934984D01*
X82418848Y-103937987D01*
X82072420Y-104180109D01*
X82067979Y-104183517D01*
X81796476Y-104411739D01*
X81788031Y-104424456D01*
X79508000Y-104424456D01*
X79508000Y-101250000D01*
X106336496Y-101250000D01*
X106356458Y-101439928D01*
X106415473Y-101621556D01*
X106510960Y-101786944D01*
X106638747Y-101928866D01*
X106793248Y-102041118D01*
X106799276Y-102043802D01*
X106799278Y-102043803D01*
X106961681Y-102116109D01*
X106967712Y-102118794D01*
X107061113Y-102138647D01*
X107148056Y-102157128D01*
X107148061Y-102157128D01*
X107154513Y-102158500D01*
X107345487Y-102158500D01*
X107351939Y-102157128D01*
X107351944Y-102157128D01*
X107438887Y-102138647D01*
X107532288Y-102118794D01*
X107538319Y-102116109D01*
X107700722Y-102043803D01*
X107700724Y-102043802D01*
X107706752Y-102041118D01*
X107861253Y-101928866D01*
X107989040Y-101786944D01*
X108084527Y-101621556D01*
X108143542Y-101439928D01*
X108163504Y-101250000D01*
X109836496Y-101250000D01*
X109856458Y-101439928D01*
X109915473Y-101621556D01*
X110010960Y-101786944D01*
X110138747Y-101928866D01*
X110293248Y-102041118D01*
X110299276Y-102043802D01*
X110299278Y-102043803D01*
X110461681Y-102116109D01*
X110467712Y-102118794D01*
X110561113Y-102138647D01*
X110648056Y-102157128D01*
X110648061Y-102157128D01*
X110654513Y-102158500D01*
X110845487Y-102158500D01*
X110851939Y-102157128D01*
X110851944Y-102157128D01*
X110938887Y-102138647D01*
X111032288Y-102118794D01*
X111038319Y-102116109D01*
X111200722Y-102043803D01*
X111200724Y-102043802D01*
X111206752Y-102041118D01*
X111361253Y-101928866D01*
X111489040Y-101786944D01*
X111584527Y-101621556D01*
X111643542Y-101439928D01*
X111663504Y-101250000D01*
X111643542Y-101060072D01*
X111584527Y-100878444D01*
X111577406Y-100866109D01*
X111546743Y-100813000D01*
X111530005Y-100744005D01*
X111546743Y-100687000D01*
X111581223Y-100627279D01*
X111581224Y-100627278D01*
X111584527Y-100621556D01*
X111643542Y-100439928D01*
X111663504Y-100250000D01*
X111657190Y-100189928D01*
X111644232Y-100066635D01*
X111644232Y-100066633D01*
X111643542Y-100060072D01*
X111584527Y-99878444D01*
X111489040Y-99713056D01*
X111457928Y-99678502D01*
X111365675Y-99576045D01*
X111365674Y-99576044D01*
X111361253Y-99571134D01*
X111206752Y-99458882D01*
X111200724Y-99456198D01*
X111200722Y-99456197D01*
X111038319Y-99383891D01*
X111038318Y-99383891D01*
X111032288Y-99381206D01*
X110938888Y-99361353D01*
X110851944Y-99342872D01*
X110851939Y-99342872D01*
X110845487Y-99341500D01*
X110654513Y-99341500D01*
X110648061Y-99342872D01*
X110648056Y-99342872D01*
X110561113Y-99361353D01*
X110467712Y-99381206D01*
X110461682Y-99383891D01*
X110461681Y-99383891D01*
X110299278Y-99456197D01*
X110299276Y-99456198D01*
X110293248Y-99458882D01*
X110138747Y-99571134D01*
X110134326Y-99576044D01*
X110134325Y-99576045D01*
X110042073Y-99678502D01*
X110010960Y-99713056D01*
X109915473Y-99878444D01*
X109856458Y-100060072D01*
X109855768Y-100066633D01*
X109855768Y-100066635D01*
X109842810Y-100189928D01*
X109836496Y-100250000D01*
X109856458Y-100439928D01*
X109915473Y-100621556D01*
X109918776Y-100627278D01*
X109918777Y-100627279D01*
X109953257Y-100687000D01*
X109969995Y-100755995D01*
X109953257Y-100813000D01*
X109922595Y-100866109D01*
X109915473Y-100878444D01*
X109856458Y-101060072D01*
X109836496Y-101250000D01*
X108163504Y-101250000D01*
X108143542Y-101060072D01*
X108084527Y-100878444D01*
X108077406Y-100866109D01*
X108046743Y-100813000D01*
X108030005Y-100744005D01*
X108046743Y-100687000D01*
X108081223Y-100627279D01*
X108081224Y-100627278D01*
X108084527Y-100621556D01*
X108143542Y-100439928D01*
X108163504Y-100250000D01*
X108157190Y-100189928D01*
X108144232Y-100066635D01*
X108144232Y-100066633D01*
X108143542Y-100060072D01*
X108084527Y-99878444D01*
X107989040Y-99713056D01*
X107957928Y-99678502D01*
X107865675Y-99576045D01*
X107865674Y-99576044D01*
X107861253Y-99571134D01*
X107706752Y-99458882D01*
X107700724Y-99456198D01*
X107700722Y-99456197D01*
X107538319Y-99383891D01*
X107538318Y-99383891D01*
X107532288Y-99381206D01*
X107438888Y-99361353D01*
X107351944Y-99342872D01*
X107351939Y-99342872D01*
X107345487Y-99341500D01*
X107154513Y-99341500D01*
X107148061Y-99342872D01*
X107148056Y-99342872D01*
X107061113Y-99361353D01*
X106967712Y-99381206D01*
X106961682Y-99383891D01*
X106961681Y-99383891D01*
X106799278Y-99456197D01*
X106799276Y-99456198D01*
X106793248Y-99458882D01*
X106638747Y-99571134D01*
X106634326Y-99576044D01*
X106634325Y-99576045D01*
X106542073Y-99678502D01*
X106510960Y-99713056D01*
X106415473Y-99878444D01*
X106356458Y-100060072D01*
X106355768Y-100066633D01*
X106355768Y-100066635D01*
X106342810Y-100189928D01*
X106336496Y-100250000D01*
X106356458Y-100439928D01*
X106415473Y-100621556D01*
X106418776Y-100627278D01*
X106418777Y-100627279D01*
X106453257Y-100687000D01*
X106469995Y-100755995D01*
X106453257Y-100813000D01*
X106422595Y-100866109D01*
X106415473Y-100878444D01*
X106356458Y-101060072D01*
X106336496Y-101250000D01*
X79508000Y-101250000D01*
X79508000Y-100000000D01*
X95336496Y-100000000D01*
X95337186Y-100006565D01*
X95343500Y-100066635D01*
X95356458Y-100189928D01*
X95415473Y-100371556D01*
X95510960Y-100536944D01*
X95638747Y-100678866D01*
X95728403Y-100744005D01*
X95744906Y-100755995D01*
X95793248Y-100791118D01*
X95799276Y-100793802D01*
X95799278Y-100793803D01*
X95961681Y-100866109D01*
X95967712Y-100868794D01*
X96042680Y-100884729D01*
X96148056Y-100907128D01*
X96148061Y-100907128D01*
X96154513Y-100908500D01*
X96345487Y-100908500D01*
X96351939Y-100907128D01*
X96351944Y-100907128D01*
X96457320Y-100884729D01*
X96532288Y-100868794D01*
X96538319Y-100866109D01*
X96700722Y-100793803D01*
X96700724Y-100793802D01*
X96706752Y-100791118D01*
X96755095Y-100755995D01*
X96771597Y-100744005D01*
X96861253Y-100678866D01*
X96989040Y-100536944D01*
X97084527Y-100371556D01*
X97143542Y-100189928D01*
X97156501Y-100066635D01*
X97162814Y-100006565D01*
X97163504Y-100000000D01*
X97157190Y-99939928D01*
X97144232Y-99816635D01*
X97144232Y-99816633D01*
X97143542Y-99810072D01*
X97084527Y-99628444D01*
X97077406Y-99616109D01*
X97034109Y-99541118D01*
X96989040Y-99463056D01*
X96961752Y-99432749D01*
X96865675Y-99326045D01*
X96865674Y-99326044D01*
X96861253Y-99321134D01*
X96706752Y-99208882D01*
X96700724Y-99206198D01*
X96700722Y-99206197D01*
X96538319Y-99133891D01*
X96538318Y-99133891D01*
X96532288Y-99131206D01*
X96438888Y-99111353D01*
X96351944Y-99092872D01*
X96351939Y-99092872D01*
X96345487Y-99091500D01*
X96154513Y-99091500D01*
X96148061Y-99092872D01*
X96148056Y-99092872D01*
X96061112Y-99111353D01*
X95967712Y-99131206D01*
X95961682Y-99133891D01*
X95961681Y-99133891D01*
X95799278Y-99206197D01*
X95799276Y-99206198D01*
X95793248Y-99208882D01*
X95638747Y-99321134D01*
X95634326Y-99326044D01*
X95634325Y-99326045D01*
X95538249Y-99432749D01*
X95510960Y-99463056D01*
X95465891Y-99541118D01*
X95422595Y-99616109D01*
X95415473Y-99628444D01*
X95356458Y-99810072D01*
X95355768Y-99816633D01*
X95355768Y-99816635D01*
X95342810Y-99939928D01*
X95336496Y-100000000D01*
X79508000Y-100000000D01*
X79508000Y-98750000D01*
X102086496Y-98750000D01*
X102106458Y-98939928D01*
X102165473Y-99121556D01*
X102168776Y-99127278D01*
X102168777Y-99127279D01*
X102202686Y-99186010D01*
X102260960Y-99286944D01*
X102265378Y-99291851D01*
X102265379Y-99291852D01*
X102310082Y-99341500D01*
X102388747Y-99428866D01*
X102543248Y-99541118D01*
X102549276Y-99543802D01*
X102549278Y-99543803D01*
X102711681Y-99616109D01*
X102717712Y-99618794D01*
X102792680Y-99634729D01*
X102898056Y-99657128D01*
X102898061Y-99657128D01*
X102904513Y-99658500D01*
X103095487Y-99658500D01*
X103101939Y-99657128D01*
X103101944Y-99657128D01*
X103207320Y-99634729D01*
X103282288Y-99618794D01*
X103288319Y-99616109D01*
X103450722Y-99543803D01*
X103450724Y-99543802D01*
X103456752Y-99541118D01*
X103611253Y-99428866D01*
X103689918Y-99341500D01*
X103734621Y-99291852D01*
X103734622Y-99291851D01*
X103739040Y-99286944D01*
X103797314Y-99186010D01*
X103831223Y-99127279D01*
X103831224Y-99127278D01*
X103834527Y-99121556D01*
X103893542Y-98939928D01*
X103913504Y-98750000D01*
X119086496Y-98750000D01*
X119106458Y-98939928D01*
X119165473Y-99121556D01*
X119168776Y-99127278D01*
X119168777Y-99127279D01*
X119202686Y-99186010D01*
X119260960Y-99286944D01*
X119265378Y-99291851D01*
X119265379Y-99291852D01*
X119310082Y-99341500D01*
X119388747Y-99428866D01*
X119543248Y-99541118D01*
X119549276Y-99543802D01*
X119549278Y-99543803D01*
X119711681Y-99616109D01*
X119717712Y-99618794D01*
X119792680Y-99634729D01*
X119898056Y-99657128D01*
X119898061Y-99657128D01*
X119904513Y-99658500D01*
X119963428Y-99658500D01*
X120031549Y-99678502D01*
X120078042Y-99732158D01*
X120088738Y-99771329D01*
X120106458Y-99939928D01*
X120165473Y-100121556D01*
X120260960Y-100286944D01*
X120388747Y-100428866D01*
X120543248Y-100541118D01*
X120549276Y-100543802D01*
X120549278Y-100543803D01*
X120709799Y-100615271D01*
X120717712Y-100618794D01*
X120811113Y-100638647D01*
X120898056Y-100657128D01*
X120898061Y-100657128D01*
X120904513Y-100658500D01*
X121095487Y-100658500D01*
X121101939Y-100657128D01*
X121101944Y-100657128D01*
X121188887Y-100638647D01*
X121282288Y-100618794D01*
X121290201Y-100615271D01*
X121450722Y-100543803D01*
X121450724Y-100543802D01*
X121456752Y-100541118D01*
X121611253Y-100428866D01*
X121739040Y-100286944D01*
X121834527Y-100121556D01*
X121893542Y-99939928D01*
X121906501Y-99816635D01*
X121912814Y-99756565D01*
X121913504Y-99750000D01*
X121893542Y-99560072D01*
X121834527Y-99378444D01*
X121813990Y-99342872D01*
X121742341Y-99218774D01*
X121739040Y-99213056D01*
X121611253Y-99071134D01*
X121456752Y-98958882D01*
X121450724Y-98956198D01*
X121450722Y-98956197D01*
X121288319Y-98883891D01*
X121288318Y-98883891D01*
X121282288Y-98881206D01*
X121188887Y-98861353D01*
X121101944Y-98842872D01*
X121101939Y-98842872D01*
X121095487Y-98841500D01*
X121036572Y-98841500D01*
X120968451Y-98821498D01*
X120921958Y-98767842D01*
X120911262Y-98728670D01*
X120894232Y-98566635D01*
X120894232Y-98566633D01*
X120893542Y-98560072D01*
X120834527Y-98378444D01*
X120739040Y-98213056D01*
X120611253Y-98071134D01*
X120456752Y-97958882D01*
X120450724Y-97956198D01*
X120450722Y-97956197D01*
X120288319Y-97883891D01*
X120288318Y-97883891D01*
X120282288Y-97881206D01*
X120188887Y-97861353D01*
X120101944Y-97842872D01*
X120101939Y-97842872D01*
X120095487Y-97841500D01*
X119904513Y-97841500D01*
X119898061Y-97842872D01*
X119898056Y-97842872D01*
X119811113Y-97861353D01*
X119717712Y-97881206D01*
X119711682Y-97883891D01*
X119711681Y-97883891D01*
X119549278Y-97956197D01*
X119549276Y-97956198D01*
X119543248Y-97958882D01*
X119388747Y-98071134D01*
X119260960Y-98213056D01*
X119165473Y-98378444D01*
X119106458Y-98560072D01*
X119086496Y-98750000D01*
X103913504Y-98750000D01*
X103893542Y-98560072D01*
X103834527Y-98378444D01*
X103739040Y-98213056D01*
X103611253Y-98071134D01*
X103456752Y-97958882D01*
X103450724Y-97956198D01*
X103450722Y-97956197D01*
X103288319Y-97883891D01*
X103288318Y-97883891D01*
X103282288Y-97881206D01*
X103188887Y-97861353D01*
X103101944Y-97842872D01*
X103101939Y-97842872D01*
X103095487Y-97841500D01*
X102904513Y-97841500D01*
X102898061Y-97842872D01*
X102898056Y-97842872D01*
X102811113Y-97861353D01*
X102717712Y-97881206D01*
X102711682Y-97883891D01*
X102711681Y-97883891D01*
X102549278Y-97956197D01*
X102549276Y-97956198D01*
X102543248Y-97958882D01*
X102388747Y-98071134D01*
X102260960Y-98213056D01*
X102165473Y-98378444D01*
X102106458Y-98560072D01*
X102086496Y-98750000D01*
X79508000Y-98750000D01*
X79508000Y-96750000D01*
X86586496Y-96750000D01*
X86606458Y-96939928D01*
X86665473Y-97121556D01*
X86760960Y-97286944D01*
X86888747Y-97428866D01*
X87043248Y-97541118D01*
X87049276Y-97543802D01*
X87049278Y-97543803D01*
X87211681Y-97616109D01*
X87217712Y-97618794D01*
X87311112Y-97638647D01*
X87398056Y-97657128D01*
X87398061Y-97657128D01*
X87404513Y-97658500D01*
X87595487Y-97658500D01*
X87601939Y-97657128D01*
X87601944Y-97657128D01*
X87688888Y-97638647D01*
X87782288Y-97618794D01*
X87788319Y-97616109D01*
X87950722Y-97543803D01*
X87950724Y-97543802D01*
X87956752Y-97541118D01*
X88111253Y-97428866D01*
X88239040Y-97286944D01*
X88334527Y-97121556D01*
X88393542Y-96939928D01*
X88413504Y-96750000D01*
X88393542Y-96560072D01*
X88334527Y-96378444D01*
X88239040Y-96213056D01*
X88123117Y-96084310D01*
X88092399Y-96020303D01*
X88101164Y-95949849D01*
X88123117Y-95915690D01*
X88234621Y-95791852D01*
X88234622Y-95791851D01*
X88239040Y-95786944D01*
X88334527Y-95621556D01*
X88393542Y-95439928D01*
X88413504Y-95250000D01*
X88393542Y-95060072D01*
X88334527Y-94878444D01*
X88239040Y-94713056D01*
X88111253Y-94571134D01*
X87956752Y-94458882D01*
X87950724Y-94456198D01*
X87950722Y-94456197D01*
X87788319Y-94383891D01*
X87788318Y-94383891D01*
X87782288Y-94381206D01*
X87688888Y-94361353D01*
X87601944Y-94342872D01*
X87601939Y-94342872D01*
X87595487Y-94341500D01*
X87404513Y-94341500D01*
X87398061Y-94342872D01*
X87398056Y-94342872D01*
X87311112Y-94361353D01*
X87217712Y-94381206D01*
X87211682Y-94383891D01*
X87211681Y-94383891D01*
X87049278Y-94456197D01*
X87049276Y-94456198D01*
X87043248Y-94458882D01*
X86888747Y-94571134D01*
X86760960Y-94713056D01*
X86665473Y-94878444D01*
X86606458Y-95060072D01*
X86586496Y-95250000D01*
X86606458Y-95439928D01*
X86665473Y-95621556D01*
X86760960Y-95786944D01*
X86765378Y-95791851D01*
X86765379Y-95791852D01*
X86876883Y-95915690D01*
X86907601Y-95979697D01*
X86898836Y-96050151D01*
X86876883Y-96084310D01*
X86760960Y-96213056D01*
X86665473Y-96378444D01*
X86606458Y-96560072D01*
X86586496Y-96750000D01*
X79508000Y-96750000D01*
X79508000Y-93998134D01*
X129091500Y-93998134D01*
X129098255Y-94060316D01*
X129149385Y-94196705D01*
X129236739Y-94313261D01*
X129353295Y-94400615D01*
X129489684Y-94451745D01*
X129551866Y-94458500D01*
X132048134Y-94458500D01*
X132110316Y-94451745D01*
X132246705Y-94400615D01*
X132363261Y-94313261D01*
X132450615Y-94196705D01*
X132501745Y-94060316D01*
X132508500Y-93998134D01*
X132508500Y-91501866D01*
X132501745Y-91439684D01*
X132450615Y-91303295D01*
X132363261Y-91186739D01*
X132246705Y-91099385D01*
X132110316Y-91048255D01*
X132048134Y-91041500D01*
X131569696Y-91041500D01*
X131501575Y-91021498D01*
X131455082Y-90967842D01*
X131444978Y-90897568D01*
X131474472Y-90832988D01*
X131519958Y-90799733D01*
X131586573Y-90771113D01*
X131594856Y-90766800D01*
X131802777Y-90638135D01*
X131804620Y-90636796D01*
X131812038Y-90625541D01*
X131805974Y-90615184D01*
X130812812Y-89622022D01*
X130798868Y-89614408D01*
X130797035Y-89614539D01*
X130790420Y-89618790D01*
X129798044Y-90611166D01*
X129791386Y-90623359D01*
X129800099Y-90634879D01*
X129888586Y-90699760D01*
X129896505Y-90704708D01*
X130085213Y-90803992D01*
X130136186Y-90853411D01*
X130152349Y-90922544D01*
X130128570Y-90989440D01*
X130072399Y-91032860D01*
X130026546Y-91041500D01*
X129551866Y-91041500D01*
X129489684Y-91048255D01*
X129353295Y-91099385D01*
X129236739Y-91186739D01*
X129149385Y-91303295D01*
X129098255Y-91439684D01*
X129091500Y-91501866D01*
X129091500Y-93998134D01*
X79508000Y-93998134D01*
X79508000Y-89250000D01*
X89086496Y-89250000D01*
X89106458Y-89439928D01*
X89165473Y-89621556D01*
X89260960Y-89786944D01*
X89388747Y-89928866D01*
X89543248Y-90041118D01*
X89549276Y-90043802D01*
X89549278Y-90043803D01*
X89610818Y-90071202D01*
X89717712Y-90118794D01*
X89811112Y-90138647D01*
X89898056Y-90157128D01*
X89898061Y-90157128D01*
X89904513Y-90158500D01*
X90095487Y-90158500D01*
X90101939Y-90157128D01*
X90101944Y-90157128D01*
X90188888Y-90138647D01*
X90282288Y-90118794D01*
X90389182Y-90071202D01*
X90450722Y-90043803D01*
X90450724Y-90043802D01*
X90456752Y-90041118D01*
X90611253Y-89928866D01*
X90739040Y-89786944D01*
X90834527Y-89621556D01*
X90893542Y-89439928D01*
X90913504Y-89250000D01*
X90909283Y-89209835D01*
X129088022Y-89209835D01*
X129099754Y-89454064D01*
X129100891Y-89463324D01*
X129148593Y-89703143D01*
X129151082Y-89712118D01*
X129233708Y-89942250D01*
X129237505Y-89950778D01*
X129353234Y-90166160D01*
X129358245Y-90174027D01*
X129415173Y-90250263D01*
X129426431Y-90258712D01*
X129438850Y-90251940D01*
X130427978Y-89262812D01*
X130434356Y-89251132D01*
X131164408Y-89251132D01*
X131164539Y-89252965D01*
X131168790Y-89259580D01*
X132163732Y-90254522D01*
X132176112Y-90261282D01*
X132184453Y-90255038D01*
X132302700Y-90071202D01*
X132307147Y-90063011D01*
X132407572Y-89840076D01*
X132410767Y-89831298D01*
X132477135Y-89595973D01*
X132478993Y-89586844D01*
X132510044Y-89342770D01*
X132510525Y-89336483D01*
X132512706Y-89253160D01*
X132512555Y-89246851D01*
X132494321Y-89001486D01*
X132492944Y-88992280D01*
X132438979Y-88753786D01*
X132436255Y-88744875D01*
X132347633Y-88516983D01*
X132343619Y-88508567D01*
X132222284Y-88296276D01*
X132217074Y-88288553D01*
X132185787Y-88248865D01*
X132173863Y-88240395D01*
X132162328Y-88246882D01*
X131172022Y-89237188D01*
X131164408Y-89251132D01*
X130434356Y-89251132D01*
X130435592Y-89248868D01*
X130435461Y-89247035D01*
X130431210Y-89240420D01*
X129436828Y-88246038D01*
X129423520Y-88238771D01*
X129413481Y-88245893D01*
X129408581Y-88251784D01*
X129403168Y-88259373D01*
X129276322Y-88468409D01*
X129272084Y-88476726D01*
X129177529Y-88702214D01*
X129174572Y-88711052D01*
X129114384Y-88948042D01*
X129112763Y-88957232D01*
X129088267Y-89200510D01*
X129088022Y-89209835D01*
X90909283Y-89209835D01*
X90894232Y-89066635D01*
X90894232Y-89066633D01*
X90893542Y-89060072D01*
X90834527Y-88878444D01*
X90739040Y-88713056D01*
X90611253Y-88571134D01*
X90456752Y-88458882D01*
X90450724Y-88456198D01*
X90450722Y-88456197D01*
X90288319Y-88383891D01*
X90288318Y-88383891D01*
X90282288Y-88381206D01*
X90188888Y-88361353D01*
X90101944Y-88342872D01*
X90101939Y-88342872D01*
X90095487Y-88341500D01*
X89904513Y-88341500D01*
X89898061Y-88342872D01*
X89898056Y-88342872D01*
X89811112Y-88361353D01*
X89717712Y-88381206D01*
X89711682Y-88383891D01*
X89711681Y-88383891D01*
X89549278Y-88456197D01*
X89549276Y-88456198D01*
X89543248Y-88458882D01*
X89388747Y-88571134D01*
X89260960Y-88713056D01*
X89165473Y-88878444D01*
X89106458Y-89060072D01*
X89105768Y-89066633D01*
X89105768Y-89066635D01*
X89090717Y-89209835D01*
X89086496Y-89250000D01*
X79508000Y-89250000D01*
X79508000Y-88250000D01*
X99836496Y-88250000D01*
X99856458Y-88439928D01*
X99915473Y-88621556D01*
X100010960Y-88786944D01*
X100138747Y-88928866D01*
X100293248Y-89041118D01*
X100299276Y-89043802D01*
X100299278Y-89043803D01*
X100350560Y-89066635D01*
X100467712Y-89118794D01*
X100561112Y-89138647D01*
X100648056Y-89157128D01*
X100648061Y-89157128D01*
X100654513Y-89158500D01*
X100845487Y-89158500D01*
X100851939Y-89157128D01*
X100851944Y-89157128D01*
X100938888Y-89138647D01*
X101032288Y-89118794D01*
X101149440Y-89066635D01*
X101200722Y-89043803D01*
X101200724Y-89043802D01*
X101206752Y-89041118D01*
X101361253Y-88928866D01*
X101489040Y-88786944D01*
X101584527Y-88621556D01*
X101643542Y-88439928D01*
X101663504Y-88250000D01*
X101643542Y-88060072D01*
X101584527Y-87878444D01*
X101582491Y-87874917D01*
X129789330Y-87874917D01*
X129793903Y-87884693D01*
X130787188Y-88877978D01*
X130801132Y-88885592D01*
X130802965Y-88885461D01*
X130809580Y-88881210D01*
X131802488Y-87888302D01*
X131808872Y-87876612D01*
X131799460Y-87864502D01*
X131673144Y-87776873D01*
X131665116Y-87772145D01*
X131445810Y-87663995D01*
X131437177Y-87660507D01*
X131204288Y-87585958D01*
X131195238Y-87583785D01*
X130953891Y-87544480D01*
X130944602Y-87543668D01*
X130700114Y-87540467D01*
X130690803Y-87541037D01*
X130448522Y-87574010D01*
X130439403Y-87575948D01*
X130204668Y-87644367D01*
X130195915Y-87647639D01*
X129973869Y-87750004D01*
X129965714Y-87754524D01*
X129798468Y-87864175D01*
X129789330Y-87874917D01*
X101582491Y-87874917D01*
X101489040Y-87713056D01*
X101361253Y-87571134D01*
X101206752Y-87458882D01*
X101200724Y-87456198D01*
X101200722Y-87456197D01*
X101038319Y-87383891D01*
X101038318Y-87383891D01*
X101032288Y-87381206D01*
X100938887Y-87361353D01*
X100851944Y-87342872D01*
X100851939Y-87342872D01*
X100845487Y-87341500D01*
X100654513Y-87341500D01*
X100648061Y-87342872D01*
X100648056Y-87342872D01*
X100561113Y-87361353D01*
X100467712Y-87381206D01*
X100461682Y-87383891D01*
X100461681Y-87383891D01*
X100299278Y-87456197D01*
X100299276Y-87456198D01*
X100293248Y-87458882D01*
X100138747Y-87571134D01*
X100010960Y-87713056D01*
X99915473Y-87878444D01*
X99856458Y-88060072D01*
X99836496Y-88250000D01*
X79508000Y-88250000D01*
X79508000Y-86500000D01*
X102836496Y-86500000D01*
X102856458Y-86689928D01*
X102915473Y-86871556D01*
X103010960Y-87036944D01*
X103138747Y-87178866D01*
X103293248Y-87291118D01*
X103299276Y-87293802D01*
X103299278Y-87293803D01*
X103406408Y-87341500D01*
X103467712Y-87368794D01*
X103561112Y-87388647D01*
X103648056Y-87407128D01*
X103648061Y-87407128D01*
X103654513Y-87408500D01*
X103845487Y-87408500D01*
X103851939Y-87407128D01*
X103851944Y-87407128D01*
X103938888Y-87388647D01*
X104032288Y-87368794D01*
X104093592Y-87341500D01*
X104200722Y-87293803D01*
X104200724Y-87293802D01*
X104206752Y-87291118D01*
X104361253Y-87178866D01*
X104489040Y-87036944D01*
X104584527Y-86871556D01*
X104643542Y-86689928D01*
X104663504Y-86500000D01*
X104643542Y-86310072D01*
X104584527Y-86128444D01*
X104489040Y-85963056D01*
X104361253Y-85821134D01*
X104206752Y-85708882D01*
X104200724Y-85706198D01*
X104200722Y-85706197D01*
X104038319Y-85633891D01*
X104038318Y-85633891D01*
X104032288Y-85631206D01*
X103938887Y-85611353D01*
X103851944Y-85592872D01*
X103851939Y-85592872D01*
X103845487Y-85591500D01*
X103654513Y-85591500D01*
X103648061Y-85592872D01*
X103648056Y-85592872D01*
X103561113Y-85611353D01*
X103467712Y-85631206D01*
X103461682Y-85633891D01*
X103461681Y-85633891D01*
X103299278Y-85706197D01*
X103299276Y-85706198D01*
X103293248Y-85708882D01*
X103138747Y-85821134D01*
X103010960Y-85963056D01*
X102915473Y-86128444D01*
X102856458Y-86310072D01*
X102836496Y-86500000D01*
X79508000Y-86500000D01*
X79508000Y-83000000D01*
X90836496Y-83000000D01*
X90837186Y-83006565D01*
X90843500Y-83066635D01*
X90856458Y-83189928D01*
X90915473Y-83371556D01*
X91010960Y-83536944D01*
X91138747Y-83678866D01*
X91293248Y-83791118D01*
X91299276Y-83793802D01*
X91299278Y-83793803D01*
X91461681Y-83866109D01*
X91467712Y-83868794D01*
X91561113Y-83888647D01*
X91648056Y-83907128D01*
X91648061Y-83907128D01*
X91654513Y-83908500D01*
X91845487Y-83908500D01*
X91851939Y-83907128D01*
X91851944Y-83907128D01*
X91938887Y-83888647D01*
X92032288Y-83868794D01*
X92038319Y-83866109D01*
X92200722Y-83793803D01*
X92200724Y-83793802D01*
X92206752Y-83791118D01*
X92361253Y-83678866D01*
X92452569Y-83577450D01*
X92513014Y-83540210D01*
X92583997Y-83541562D01*
X92642982Y-83581075D01*
X92661310Y-83610509D01*
X92663432Y-83615276D01*
X92665473Y-83621556D01*
X92760960Y-83786944D01*
X92888747Y-83928866D01*
X93043248Y-84041118D01*
X93049276Y-84043802D01*
X93049278Y-84043803D01*
X93211681Y-84116109D01*
X93217712Y-84118794D01*
X93311112Y-84138647D01*
X93398056Y-84157128D01*
X93398061Y-84157128D01*
X93404513Y-84158500D01*
X93595487Y-84158500D01*
X93601939Y-84157128D01*
X93601944Y-84157128D01*
X93688888Y-84138647D01*
X93782288Y-84118794D01*
X93788319Y-84116109D01*
X93950722Y-84043803D01*
X93950724Y-84043802D01*
X93956752Y-84041118D01*
X94111253Y-83928866D01*
X94239040Y-83786944D01*
X94334527Y-83621556D01*
X94393542Y-83439928D01*
X94413504Y-83250000D01*
X94407190Y-83189928D01*
X94394232Y-83066635D01*
X94394232Y-83066633D01*
X94393542Y-83060072D01*
X94334527Y-82878444D01*
X94239040Y-82713056D01*
X94111253Y-82571134D01*
X93956752Y-82458882D01*
X93950724Y-82456198D01*
X93950722Y-82456197D01*
X93788319Y-82383891D01*
X93788318Y-82383891D01*
X93782288Y-82381206D01*
X93688888Y-82361353D01*
X93601944Y-82342872D01*
X93601939Y-82342872D01*
X93595487Y-82341500D01*
X93404513Y-82341500D01*
X93398061Y-82342872D01*
X93398056Y-82342872D01*
X93311112Y-82361353D01*
X93217712Y-82381206D01*
X93211682Y-82383891D01*
X93211681Y-82383891D01*
X93049278Y-82456197D01*
X93049276Y-82456198D01*
X93043248Y-82458882D01*
X92888747Y-82571134D01*
X92884326Y-82576044D01*
X92884325Y-82576045D01*
X92797432Y-82672550D01*
X92736986Y-82709790D01*
X92666003Y-82708438D01*
X92607018Y-82668925D01*
X92588690Y-82639491D01*
X92586568Y-82634724D01*
X92584527Y-82628444D01*
X92489040Y-82463056D01*
X92361253Y-82321134D01*
X92206752Y-82208882D01*
X92200724Y-82206198D01*
X92200722Y-82206197D01*
X92038319Y-82133891D01*
X92038318Y-82133891D01*
X92032288Y-82131206D01*
X91938888Y-82111353D01*
X91851944Y-82092872D01*
X91851939Y-82092872D01*
X91845487Y-82091500D01*
X91654513Y-82091500D01*
X91648061Y-82092872D01*
X91648056Y-82092872D01*
X91561112Y-82111353D01*
X91467712Y-82131206D01*
X91461682Y-82133891D01*
X91461681Y-82133891D01*
X91299278Y-82206197D01*
X91299276Y-82206198D01*
X91293248Y-82208882D01*
X91138747Y-82321134D01*
X91010960Y-82463056D01*
X90915473Y-82628444D01*
X90856458Y-82810072D01*
X90836496Y-83000000D01*
X79508000Y-83000000D01*
X79508000Y-80547064D01*
X80707707Y-80547064D01*
X80736825Y-80739599D01*
X80739028Y-80745585D01*
X80739029Y-80745591D01*
X80801860Y-80916360D01*
X80801862Y-80916365D01*
X80804063Y-80922346D01*
X80906674Y-81087840D01*
X80911055Y-81092473D01*
X80911056Y-81092474D01*
X80937243Y-81120166D01*
X81040466Y-81229322D01*
X81045696Y-81232984D01*
X81045697Y-81232985D01*
X81122808Y-81286978D01*
X81199975Y-81341011D01*
X81205838Y-81343548D01*
X81372825Y-81415810D01*
X81372829Y-81415811D01*
X81378684Y-81418345D01*
X81384931Y-81419650D01*
X81384934Y-81419651D01*
X81564557Y-81457176D01*
X81564562Y-81457177D01*
X81569293Y-81458165D01*
X81575685Y-81458500D01*
X81718663Y-81458500D01*
X81787951Y-81451462D01*
X81857378Y-81444410D01*
X81857379Y-81444410D01*
X81863727Y-81443765D01*
X81944843Y-81418345D01*
X82043451Y-81387444D01*
X82043456Y-81387442D01*
X82049541Y-81385535D01*
X82136475Y-81337346D01*
X82214271Y-81294223D01*
X82214274Y-81294221D01*
X82219850Y-81291130D01*
X82224691Y-81286981D01*
X82224695Y-81286978D01*
X82362855Y-81168560D01*
X82367698Y-81164409D01*
X82405164Y-81116109D01*
X82483131Y-81015594D01*
X82487046Y-81010547D01*
X82492236Y-81000000D01*
X94336496Y-81000000D01*
X94337186Y-81006565D01*
X94353011Y-81157128D01*
X94356458Y-81189928D01*
X94415473Y-81371556D01*
X94510960Y-81536944D01*
X94638747Y-81678866D01*
X94793248Y-81791118D01*
X94799276Y-81793802D01*
X94799278Y-81793803D01*
X94961681Y-81866109D01*
X94967712Y-81868794D01*
X95061113Y-81888647D01*
X95148056Y-81907128D01*
X95148061Y-81907128D01*
X95154513Y-81908500D01*
X95345487Y-81908500D01*
X95351939Y-81907128D01*
X95351944Y-81907128D01*
X95438887Y-81888647D01*
X95532288Y-81868794D01*
X95538319Y-81866109D01*
X95700722Y-81793803D01*
X95700724Y-81793802D01*
X95706752Y-81791118D01*
X95861253Y-81678866D01*
X95989040Y-81536944D01*
X96084527Y-81371556D01*
X96143542Y-81189928D01*
X96146990Y-81157128D01*
X96162814Y-81006565D01*
X96163504Y-81000000D01*
X99586496Y-81000000D01*
X99587186Y-81006565D01*
X99603011Y-81157128D01*
X99606458Y-81189928D01*
X99665473Y-81371556D01*
X99760960Y-81536944D01*
X99888747Y-81678866D01*
X100043248Y-81791118D01*
X100049276Y-81793802D01*
X100049278Y-81793803D01*
X100211681Y-81866109D01*
X100217712Y-81868794D01*
X100311113Y-81888647D01*
X100398056Y-81907128D01*
X100398061Y-81907128D01*
X100404513Y-81908500D01*
X100595487Y-81908500D01*
X100601939Y-81907128D01*
X100601944Y-81907128D01*
X100688887Y-81888647D01*
X100782288Y-81868794D01*
X100788319Y-81866109D01*
X100950722Y-81793803D01*
X100950724Y-81793802D01*
X100956752Y-81791118D01*
X101111253Y-81678866D01*
X101239040Y-81536944D01*
X101334527Y-81371556D01*
X101375465Y-81245563D01*
X101415539Y-81186958D01*
X101480936Y-81159321D01*
X101495298Y-81158500D01*
X101595487Y-81158500D01*
X101601939Y-81157128D01*
X101601944Y-81157128D01*
X101688888Y-81138647D01*
X101782288Y-81118794D01*
X101841404Y-81092474D01*
X101950722Y-81043803D01*
X101950724Y-81043802D01*
X101956752Y-81041118D01*
X102111253Y-80928866D01*
X102117124Y-80922346D01*
X102234621Y-80791852D01*
X102234622Y-80791851D01*
X102239040Y-80786944D01*
X102334527Y-80621556D01*
X102393542Y-80439928D01*
X102403370Y-80346425D01*
X102412814Y-80256565D01*
X102413504Y-80250000D01*
X102401301Y-80133891D01*
X102394232Y-80066635D01*
X102394232Y-80066633D01*
X102393542Y-80060072D01*
X102334527Y-79878444D01*
X102239040Y-79713056D01*
X102150269Y-79614465D01*
X102115675Y-79576045D01*
X102115674Y-79576044D01*
X102111253Y-79571134D01*
X101956752Y-79458882D01*
X101950724Y-79456198D01*
X101950722Y-79456197D01*
X101788319Y-79383891D01*
X101788318Y-79383891D01*
X101782288Y-79381206D01*
X101688887Y-79361353D01*
X101601944Y-79342872D01*
X101601939Y-79342872D01*
X101595487Y-79341500D01*
X101404513Y-79341500D01*
X101398061Y-79342872D01*
X101398056Y-79342872D01*
X101311113Y-79361353D01*
X101217712Y-79381206D01*
X101211682Y-79383891D01*
X101211681Y-79383891D01*
X101049278Y-79456197D01*
X101049276Y-79456198D01*
X101043248Y-79458882D01*
X100888747Y-79571134D01*
X100884326Y-79576044D01*
X100884325Y-79576045D01*
X100849732Y-79614465D01*
X100760960Y-79713056D01*
X100665473Y-79878444D01*
X100663432Y-79884726D01*
X100624535Y-80004437D01*
X100584461Y-80063042D01*
X100519064Y-80090679D01*
X100504702Y-80091500D01*
X100404513Y-80091500D01*
X100398061Y-80092872D01*
X100398056Y-80092872D01*
X100311112Y-80111353D01*
X100217712Y-80131206D01*
X100211682Y-80133891D01*
X100211681Y-80133891D01*
X100049278Y-80206197D01*
X100049276Y-80206198D01*
X100043248Y-80208882D01*
X99888747Y-80321134D01*
X99884326Y-80326044D01*
X99884325Y-80326045D01*
X99781785Y-80439928D01*
X99760960Y-80463056D01*
X99665473Y-80628444D01*
X99606458Y-80810072D01*
X99605768Y-80816633D01*
X99605768Y-80816635D01*
X99594088Y-80927768D01*
X99586496Y-81000000D01*
X96163504Y-81000000D01*
X96155912Y-80927768D01*
X96144232Y-80816635D01*
X96144232Y-80816633D01*
X96143542Y-80810072D01*
X96084527Y-80628444D01*
X95989040Y-80463056D01*
X95968216Y-80439928D01*
X95865675Y-80326045D01*
X95865674Y-80326044D01*
X95861253Y-80321134D01*
X95706752Y-80208882D01*
X95700724Y-80206198D01*
X95700722Y-80206197D01*
X95538319Y-80133891D01*
X95538318Y-80133891D01*
X95532288Y-80131206D01*
X95438888Y-80111353D01*
X95351944Y-80092872D01*
X95351939Y-80092872D01*
X95345487Y-80091500D01*
X95154513Y-80091500D01*
X95148061Y-80092872D01*
X95148056Y-80092872D01*
X95061112Y-80111353D01*
X94967712Y-80131206D01*
X94961682Y-80133891D01*
X94961681Y-80133891D01*
X94799278Y-80206197D01*
X94799276Y-80206198D01*
X94793248Y-80208882D01*
X94638747Y-80321134D01*
X94634326Y-80326044D01*
X94634325Y-80326045D01*
X94531785Y-80439928D01*
X94510960Y-80463056D01*
X94415473Y-80628444D01*
X94356458Y-80810072D01*
X94355768Y-80816633D01*
X94355768Y-80816635D01*
X94344088Y-80927768D01*
X94336496Y-81000000D01*
X82492236Y-81000000D01*
X82495467Y-80993435D01*
X82570200Y-80841556D01*
X82573018Y-80835829D01*
X82587241Y-80781226D01*
X82620492Y-80653575D01*
X82620492Y-80653572D01*
X82622102Y-80647393D01*
X82632293Y-80452936D01*
X82603175Y-80260401D01*
X82600972Y-80254415D01*
X82600971Y-80254409D01*
X82538140Y-80083640D01*
X82538138Y-80083635D01*
X82535937Y-80077654D01*
X82433326Y-79912160D01*
X82299534Y-79770678D01*
X82140025Y-79658989D01*
X82092013Y-79638212D01*
X81967175Y-79584190D01*
X81967171Y-79584189D01*
X81961316Y-79581655D01*
X81955069Y-79580350D01*
X81955066Y-79580349D01*
X81775443Y-79542824D01*
X81775438Y-79542823D01*
X81770707Y-79541835D01*
X81764315Y-79541500D01*
X81621337Y-79541500D01*
X81552049Y-79548538D01*
X81482622Y-79555590D01*
X81482621Y-79555590D01*
X81476273Y-79556235D01*
X81441121Y-79567251D01*
X81296549Y-79612556D01*
X81296544Y-79612558D01*
X81290459Y-79614465D01*
X81214713Y-79656452D01*
X81125729Y-79705777D01*
X81125726Y-79705779D01*
X81120150Y-79708870D01*
X81115309Y-79713019D01*
X81115305Y-79713022D01*
X81052311Y-79767015D01*
X80972302Y-79835591D01*
X80968391Y-79840633D01*
X80968390Y-79840634D01*
X80916503Y-79907526D01*
X80852954Y-79989453D01*
X80850138Y-79995176D01*
X80850136Y-79995179D01*
X80802065Y-80092872D01*
X80766982Y-80164171D01*
X80765373Y-80170349D01*
X80765372Y-80170351D01*
X80727108Y-80317251D01*
X80717898Y-80352607D01*
X80707707Y-80547064D01*
X79508000Y-80547064D01*
X79508000Y-77547064D01*
X80707707Y-77547064D01*
X80736825Y-77739599D01*
X80739028Y-77745585D01*
X80739029Y-77745591D01*
X80801860Y-77916360D01*
X80801862Y-77916365D01*
X80804063Y-77922346D01*
X80906674Y-78087840D01*
X81040466Y-78229322D01*
X81199975Y-78341011D01*
X81205838Y-78343548D01*
X81372825Y-78415810D01*
X81372829Y-78415811D01*
X81378684Y-78418345D01*
X81384931Y-78419650D01*
X81384934Y-78419651D01*
X81564557Y-78457176D01*
X81564562Y-78457177D01*
X81569293Y-78458165D01*
X81575685Y-78458500D01*
X81718663Y-78458500D01*
X81787951Y-78451462D01*
X81857378Y-78444410D01*
X81857379Y-78444410D01*
X81863727Y-78443765D01*
X81944843Y-78418345D01*
X82043451Y-78387444D01*
X82043456Y-78387442D01*
X82049541Y-78385535D01*
X82136475Y-78337346D01*
X82214271Y-78294223D01*
X82214274Y-78294221D01*
X82219850Y-78291130D01*
X82224691Y-78286981D01*
X82224695Y-78286978D01*
X82362855Y-78168560D01*
X82367698Y-78164409D01*
X82487046Y-78010547D01*
X82527779Y-77927768D01*
X82570200Y-77841556D01*
X82573018Y-77835829D01*
X82574628Y-77829649D01*
X82620492Y-77653575D01*
X82620492Y-77653572D01*
X82622102Y-77647393D01*
X82632293Y-77452936D01*
X82608799Y-77297587D01*
X82604130Y-77266715D01*
X82604130Y-77266714D01*
X82603175Y-77260401D01*
X82600972Y-77254415D01*
X82600971Y-77254409D01*
X82538140Y-77083640D01*
X82538138Y-77083635D01*
X82535937Y-77077654D01*
X82478121Y-76984406D01*
X82436688Y-76917582D01*
X82436687Y-76917581D01*
X82433326Y-76912160D01*
X82299534Y-76770678D01*
X82279379Y-76756565D01*
X82270003Y-76750000D01*
X83836496Y-76750000D01*
X83837186Y-76756565D01*
X83853540Y-76912160D01*
X83856458Y-76939928D01*
X83915473Y-77121556D01*
X84010960Y-77286944D01*
X84138747Y-77428866D01*
X84293248Y-77541118D01*
X84299276Y-77543802D01*
X84299278Y-77543803D01*
X84461681Y-77616109D01*
X84467712Y-77618794D01*
X84561113Y-77638647D01*
X84648056Y-77657128D01*
X84648061Y-77657128D01*
X84654513Y-77658500D01*
X84845487Y-77658500D01*
X84851939Y-77657128D01*
X84851944Y-77657128D01*
X84938887Y-77638647D01*
X85032288Y-77618794D01*
X85038319Y-77616109D01*
X85200722Y-77543803D01*
X85200724Y-77543802D01*
X85206752Y-77541118D01*
X85361253Y-77428866D01*
X85489040Y-77286944D01*
X85584527Y-77121556D01*
X85643542Y-76939928D01*
X85646461Y-76912160D01*
X85662814Y-76756565D01*
X85663504Y-76750000D01*
X85654324Y-76662654D01*
X85644232Y-76566635D01*
X85644232Y-76566633D01*
X85643542Y-76560072D01*
X85584527Y-76378444D01*
X85489040Y-76213056D01*
X85361253Y-76071134D01*
X85206752Y-75958882D01*
X85200724Y-75956198D01*
X85200722Y-75956197D01*
X85038319Y-75883891D01*
X85038318Y-75883891D01*
X85032288Y-75881206D01*
X84938887Y-75861353D01*
X84851944Y-75842872D01*
X84851939Y-75842872D01*
X84845487Y-75841500D01*
X84654513Y-75841500D01*
X84648061Y-75842872D01*
X84648056Y-75842872D01*
X84561113Y-75861353D01*
X84467712Y-75881206D01*
X84461682Y-75883891D01*
X84461681Y-75883891D01*
X84299278Y-75956197D01*
X84299276Y-75956198D01*
X84293248Y-75958882D01*
X84138747Y-76071134D01*
X84010960Y-76213056D01*
X83915473Y-76378444D01*
X83856458Y-76560072D01*
X83855768Y-76566633D01*
X83855768Y-76566635D01*
X83845676Y-76662654D01*
X83836496Y-76750000D01*
X82270003Y-76750000D01*
X82145259Y-76662654D01*
X82140025Y-76658989D01*
X82092013Y-76638212D01*
X81967175Y-76584190D01*
X81967171Y-76584189D01*
X81961316Y-76581655D01*
X81955069Y-76580350D01*
X81955066Y-76580349D01*
X81775443Y-76542824D01*
X81775438Y-76542823D01*
X81770707Y-76541835D01*
X81764315Y-76541500D01*
X81621337Y-76541500D01*
X81552049Y-76548538D01*
X81482622Y-76555590D01*
X81482621Y-76555590D01*
X81476273Y-76556235D01*
X81419939Y-76573889D01*
X81296549Y-76612556D01*
X81296544Y-76612558D01*
X81290459Y-76614465D01*
X81214713Y-76656452D01*
X81125729Y-76705777D01*
X81125726Y-76705779D01*
X81120150Y-76708870D01*
X81115309Y-76713019D01*
X81115305Y-76713022D01*
X81064503Y-76756565D01*
X80972302Y-76835591D01*
X80852954Y-76989453D01*
X80850138Y-76995176D01*
X80850136Y-76995179D01*
X80806608Y-77083640D01*
X80766982Y-77164171D01*
X80765373Y-77170349D01*
X80765372Y-77170351D01*
X80733724Y-77291852D01*
X80717898Y-77352607D01*
X80707707Y-77547064D01*
X79508000Y-77547064D01*
X79508000Y-71076418D01*
X81789122Y-71076418D01*
X81789171Y-71077110D01*
X81794617Y-71085274D01*
X81872268Y-71157812D01*
X81876507Y-71161433D01*
X82209802Y-71421363D01*
X82214359Y-71424602D01*
X82569448Y-71653880D01*
X82574250Y-71656686D01*
X82948316Y-71853491D01*
X82953374Y-71855871D01*
X83343435Y-72018638D01*
X83348690Y-72020561D01*
X83751676Y-72148008D01*
X83757075Y-72149455D01*
X84169796Y-72240575D01*
X84175307Y-72241537D01*
X84594501Y-72295610D01*
X84600064Y-72296077D01*
X85022405Y-72312670D01*
X85027997Y-72312641D01*
X85450125Y-72291626D01*
X85455708Y-72291098D01*
X85874305Y-72232640D01*
X85879792Y-72231623D01*
X86291543Y-72136185D01*
X86296929Y-72134681D01*
X86698567Y-72003018D01*
X86703784Y-72001046D01*
X87092126Y-71834202D01*
X87097169Y-71831764D01*
X87469131Y-71631063D01*
X87473935Y-71628188D01*
X87826563Y-71395231D01*
X87831126Y-71391916D01*
X88161658Y-71128529D01*
X88165873Y-71124852D01*
X88203823Y-71088649D01*
X88210881Y-71076418D01*
X127289122Y-71076418D01*
X127289171Y-71077110D01*
X127294617Y-71085274D01*
X127372268Y-71157812D01*
X127376507Y-71161433D01*
X127709802Y-71421363D01*
X127714359Y-71424602D01*
X128069448Y-71653880D01*
X128074250Y-71656686D01*
X128448316Y-71853491D01*
X128453374Y-71855871D01*
X128843435Y-72018638D01*
X128848690Y-72020561D01*
X129251676Y-72148008D01*
X129257075Y-72149455D01*
X129669796Y-72240575D01*
X129675307Y-72241537D01*
X130094501Y-72295610D01*
X130100064Y-72296077D01*
X130522405Y-72312670D01*
X130527997Y-72312641D01*
X130950125Y-72291626D01*
X130955708Y-72291098D01*
X131374305Y-72232640D01*
X131379792Y-72231623D01*
X131791543Y-72136185D01*
X131796929Y-72134681D01*
X132198567Y-72003018D01*
X132203784Y-72001046D01*
X132592126Y-71834202D01*
X132597169Y-71831764D01*
X132969131Y-71631063D01*
X132973935Y-71628188D01*
X133326563Y-71395231D01*
X133331126Y-71391916D01*
X133661658Y-71128529D01*
X133665873Y-71124852D01*
X133703823Y-71088649D01*
X133711763Y-71074890D01*
X133711713Y-71073843D01*
X133706822Y-71066032D01*
X133306507Y-70665717D01*
X132421210Y-69780419D01*
X131895122Y-69254332D01*
X130512812Y-67872022D01*
X130498868Y-67864408D01*
X130497035Y-67864539D01*
X130490420Y-67868790D01*
X129104879Y-69254331D01*
X128219581Y-70139628D01*
X127693494Y-70665716D01*
X127296736Y-71062474D01*
X127289122Y-71076418D01*
X88210881Y-71076418D01*
X88211763Y-71074890D01*
X88211713Y-71073843D01*
X88206822Y-71066032D01*
X87806507Y-70665717D01*
X86921210Y-69780419D01*
X86395122Y-69254332D01*
X85012812Y-67872022D01*
X84998868Y-67864408D01*
X84997035Y-67864539D01*
X84990420Y-67868790D01*
X83604879Y-69254331D01*
X82719581Y-70139628D01*
X82193494Y-70665716D01*
X81796736Y-71062474D01*
X81789122Y-71076418D01*
X79508000Y-71076418D01*
X79508000Y-68049328D01*
X79509500Y-68029943D01*
X79511805Y-68015142D01*
X79511805Y-68015139D01*
X79513186Y-68006270D01*
X79510452Y-67985361D01*
X79509496Y-67963821D01*
X79509784Y-67956876D01*
X79523368Y-67628444D01*
X79526543Y-67551680D01*
X79527403Y-67541302D01*
X79547905Y-67376825D01*
X80188855Y-67376825D01*
X80196600Y-67799410D01*
X80196950Y-67804976D01*
X80242231Y-68225208D01*
X80243078Y-68230746D01*
X80325535Y-68645286D01*
X80326864Y-68650698D01*
X80445852Y-69056289D01*
X80447658Y-69061564D01*
X80602219Y-69454948D01*
X80604501Y-69460072D01*
X80793416Y-69838150D01*
X80796140Y-69843043D01*
X81017917Y-70202833D01*
X81021068Y-70207469D01*
X81273955Y-70546127D01*
X81277488Y-70550444D01*
X81413222Y-70701988D01*
X81426717Y-70710351D01*
X81436128Y-70704662D01*
X81834283Y-70306507D01*
X82719581Y-69421210D01*
X82729378Y-69411413D01*
X83245668Y-68895122D01*
X84627978Y-67512812D01*
X84634356Y-67501132D01*
X85364408Y-67501132D01*
X85364539Y-67502965D01*
X85368790Y-67509580D01*
X86754331Y-68895121D01*
X87270621Y-69411412D01*
X87280418Y-69421209D01*
X88165716Y-70306506D01*
X88562142Y-70702932D01*
X88575903Y-70710446D01*
X88585263Y-70703989D01*
X88754244Y-70511303D01*
X88757744Y-70506935D01*
X89007073Y-70165645D01*
X89010168Y-70160987D01*
X89228160Y-69798903D01*
X89230841Y-69793964D01*
X89415779Y-69413946D01*
X89418014Y-69408780D01*
X89568442Y-69013815D01*
X89570201Y-69008496D01*
X89684921Y-68601728D01*
X89686204Y-68596259D01*
X89764315Y-68180883D01*
X89765102Y-68175346D01*
X89782694Y-67994302D01*
X94717000Y-67994302D01*
X94717344Y-68000862D01*
X94731259Y-68133261D01*
X94733989Y-68146102D01*
X94788889Y-68315066D01*
X94794235Y-68327074D01*
X94883062Y-68480927D01*
X94890786Y-68491558D01*
X95009663Y-68623585D01*
X95019426Y-68632376D01*
X95163157Y-68736802D01*
X95174529Y-68743368D01*
X95336839Y-68815633D01*
X95349325Y-68819690D01*
X95353278Y-68820530D01*
X95367341Y-68819457D01*
X95371000Y-68809503D01*
X95371000Y-68806182D01*
X95879000Y-68806182D01*
X95882973Y-68819713D01*
X95893468Y-68821222D01*
X95900675Y-68819690D01*
X95913161Y-68815633D01*
X96075471Y-68743368D01*
X96086843Y-68736802D01*
X96175515Y-68672378D01*
X96242383Y-68648519D01*
X96311534Y-68664600D01*
X96323620Y-68672366D01*
X96418248Y-68741118D01*
X96424276Y-68743802D01*
X96424278Y-68743803D01*
X96571844Y-68809503D01*
X96592712Y-68818794D01*
X96686113Y-68838647D01*
X96773056Y-68857128D01*
X96773061Y-68857128D01*
X96779513Y-68858500D01*
X96970487Y-68858500D01*
X96976939Y-68857128D01*
X96976944Y-68857128D01*
X97063887Y-68838647D01*
X97157288Y-68818794D01*
X97178156Y-68809503D01*
X97325722Y-68743803D01*
X97325724Y-68743802D01*
X97331752Y-68741118D01*
X97337693Y-68736802D01*
X97425939Y-68672687D01*
X97492807Y-68648828D01*
X97561958Y-68664909D01*
X97574061Y-68672687D01*
X97662308Y-68736802D01*
X97668248Y-68741118D01*
X97674276Y-68743802D01*
X97674278Y-68743803D01*
X97821844Y-68809503D01*
X97842712Y-68818794D01*
X97936113Y-68838647D01*
X98023056Y-68857128D01*
X98023061Y-68857128D01*
X98029513Y-68858500D01*
X98220487Y-68858500D01*
X98226939Y-68857128D01*
X98226944Y-68857128D01*
X98313887Y-68838647D01*
X98407288Y-68818794D01*
X98428156Y-68809503D01*
X98575722Y-68743803D01*
X98575724Y-68743802D01*
X98581752Y-68741118D01*
X98587693Y-68736802D01*
X98605650Y-68723755D01*
X98672518Y-68699897D01*
X98744982Y-68717915D01*
X98881301Y-68800472D01*
X98888548Y-68802743D01*
X98888550Y-68802744D01*
X98931198Y-68816109D01*
X99044938Y-68851753D01*
X99118365Y-68858500D01*
X99121263Y-68858500D01*
X99375665Y-68858499D01*
X99631634Y-68858499D01*
X99634492Y-68858236D01*
X99634501Y-68858236D01*
X99670004Y-68854974D01*
X99705062Y-68851753D01*
X99711447Y-68849752D01*
X99861450Y-68802744D01*
X99861452Y-68802743D01*
X99868699Y-68800472D01*
X100015381Y-68711639D01*
X100136639Y-68590381D01*
X100225472Y-68443699D01*
X100276753Y-68280062D01*
X100283500Y-68206635D01*
X100283500Y-68000000D01*
X116336496Y-68000000D01*
X116337186Y-68006565D01*
X116341681Y-68049328D01*
X116356458Y-68189928D01*
X116415473Y-68371556D01*
X116510960Y-68536944D01*
X116638747Y-68678866D01*
X116793248Y-68791118D01*
X116799276Y-68793802D01*
X116799278Y-68793803D01*
X116943998Y-68858236D01*
X116967712Y-68868794D01*
X117061113Y-68888647D01*
X117148056Y-68907128D01*
X117148061Y-68907128D01*
X117154513Y-68908500D01*
X117345487Y-68908500D01*
X117351939Y-68907128D01*
X117351944Y-68907128D01*
X117438887Y-68888647D01*
X117532288Y-68868794D01*
X117556002Y-68858236D01*
X117700722Y-68793803D01*
X117700724Y-68793802D01*
X117706752Y-68791118D01*
X117861253Y-68678866D01*
X117989040Y-68536944D01*
X118084527Y-68371556D01*
X118143542Y-68189928D01*
X118158320Y-68049328D01*
X118162814Y-68006565D01*
X118163504Y-68000000D01*
X118160093Y-67967548D01*
X118144232Y-67816635D01*
X118144232Y-67816633D01*
X118143542Y-67810072D01*
X118084527Y-67628444D01*
X117989040Y-67463056D01*
X117969654Y-67441525D01*
X117911398Y-67376825D01*
X125688855Y-67376825D01*
X125696600Y-67799410D01*
X125696950Y-67804976D01*
X125742231Y-68225208D01*
X125743078Y-68230746D01*
X125825535Y-68645286D01*
X125826864Y-68650698D01*
X125945852Y-69056289D01*
X125947658Y-69061564D01*
X126102219Y-69454948D01*
X126104501Y-69460072D01*
X126293416Y-69838150D01*
X126296140Y-69843043D01*
X126517917Y-70202833D01*
X126521068Y-70207469D01*
X126773955Y-70546127D01*
X126777488Y-70550444D01*
X126913222Y-70701988D01*
X126926717Y-70710351D01*
X126936128Y-70704662D01*
X127334283Y-70306507D01*
X128219581Y-69421210D01*
X128229378Y-69411413D01*
X128745668Y-68895122D01*
X130127978Y-67512812D01*
X130135592Y-67498868D01*
X130135461Y-67497035D01*
X130131210Y-67490420D01*
X128745669Y-66104879D01*
X127860372Y-65219581D01*
X127334284Y-64693494D01*
X126935561Y-64294771D01*
X126922253Y-64287504D01*
X126912214Y-64294626D01*
X126668223Y-64587994D01*
X126664828Y-64592467D01*
X126424528Y-64940152D01*
X126421549Y-64944902D01*
X126213106Y-65312575D01*
X126210562Y-65317568D01*
X126035629Y-65702312D01*
X126033538Y-65707511D01*
X125893498Y-66106290D01*
X125891877Y-66111659D01*
X125787840Y-66521303D01*
X125786706Y-66526776D01*
X125719496Y-66944054D01*
X125718851Y-66949632D01*
X125689002Y-67371204D01*
X125688855Y-67376825D01*
X117911398Y-67376825D01*
X117865675Y-67326045D01*
X117865674Y-67326044D01*
X117861253Y-67321134D01*
X117706752Y-67208882D01*
X117700724Y-67206198D01*
X117700722Y-67206197D01*
X117538319Y-67133891D01*
X117538318Y-67133891D01*
X117532288Y-67131206D01*
X117438888Y-67111353D01*
X117351944Y-67092872D01*
X117351939Y-67092872D01*
X117345487Y-67091500D01*
X117154513Y-67091500D01*
X117148061Y-67092872D01*
X117148056Y-67092872D01*
X117061112Y-67111353D01*
X116967712Y-67131206D01*
X116961682Y-67133891D01*
X116961681Y-67133891D01*
X116799278Y-67206197D01*
X116799276Y-67206198D01*
X116793248Y-67208882D01*
X116638747Y-67321134D01*
X116634326Y-67326044D01*
X116634325Y-67326045D01*
X116530347Y-67441525D01*
X116510960Y-67463056D01*
X116415473Y-67628444D01*
X116356458Y-67810072D01*
X116355768Y-67816633D01*
X116355768Y-67816635D01*
X116339907Y-67967548D01*
X116336496Y-68000000D01*
X100283500Y-68000000D01*
X100283499Y-67193366D01*
X100276753Y-67119938D01*
X100265783Y-67084934D01*
X100227744Y-66963550D01*
X100227743Y-66963548D01*
X100225472Y-66956301D01*
X100136639Y-66809619D01*
X100015381Y-66688361D01*
X99868699Y-66599528D01*
X99861452Y-66597257D01*
X99861450Y-66597256D01*
X99795164Y-66576483D01*
X99705062Y-66548247D01*
X99631635Y-66541500D01*
X99628737Y-66541500D01*
X99374335Y-66541501D01*
X99118366Y-66541501D01*
X99115508Y-66541764D01*
X99115499Y-66541764D01*
X99079996Y-66545026D01*
X99044938Y-66548247D01*
X99038560Y-66550246D01*
X99038559Y-66550246D01*
X98888550Y-66597256D01*
X98888548Y-66597257D01*
X98881301Y-66599528D01*
X98754625Y-66676245D01*
X98744982Y-66682085D01*
X98676352Y-66700264D01*
X98605650Y-66676245D01*
X98587094Y-66662763D01*
X98587092Y-66662762D01*
X98581752Y-66658882D01*
X98575724Y-66656198D01*
X98575722Y-66656197D01*
X98413319Y-66583891D01*
X98413318Y-66583891D01*
X98407288Y-66581206D01*
X98313888Y-66561353D01*
X98226944Y-66542872D01*
X98226939Y-66542872D01*
X98220487Y-66541500D01*
X98029513Y-66541500D01*
X98023061Y-66542872D01*
X98023056Y-66542872D01*
X97936112Y-66561353D01*
X97842712Y-66581206D01*
X97836682Y-66583891D01*
X97836681Y-66583891D01*
X97674278Y-66656197D01*
X97674276Y-66656198D01*
X97668248Y-66658882D01*
X97662907Y-66662762D01*
X97662906Y-66662763D01*
X97574061Y-66727313D01*
X97507193Y-66751172D01*
X97438042Y-66735091D01*
X97425939Y-66727313D01*
X97337094Y-66662763D01*
X97337093Y-66662762D01*
X97331752Y-66658882D01*
X97325724Y-66656198D01*
X97325722Y-66656197D01*
X97163319Y-66583891D01*
X97163318Y-66583891D01*
X97157288Y-66581206D01*
X97063888Y-66561353D01*
X96976944Y-66542872D01*
X96976939Y-66542872D01*
X96970487Y-66541500D01*
X96779513Y-66541500D01*
X96773061Y-66542872D01*
X96773056Y-66542872D01*
X96686112Y-66561353D01*
X96592712Y-66581206D01*
X96586682Y-66583891D01*
X96586681Y-66583891D01*
X96424278Y-66656197D01*
X96424276Y-66656198D01*
X96418248Y-66658882D01*
X96323634Y-66727623D01*
X96256770Y-66751480D01*
X96187618Y-66735400D01*
X96175515Y-66727622D01*
X96086843Y-66663198D01*
X96075471Y-66656632D01*
X95913161Y-66584367D01*
X95900675Y-66580310D01*
X95896722Y-66579470D01*
X95882659Y-66580543D01*
X95879000Y-66590497D01*
X95879000Y-68806182D01*
X95371000Y-68806182D01*
X95371000Y-67972115D01*
X95366525Y-67956876D01*
X95365135Y-67955671D01*
X95357452Y-67954000D01*
X94735115Y-67954000D01*
X94719876Y-67958475D01*
X94718671Y-67959865D01*
X94717000Y-67967548D01*
X94717000Y-67994302D01*
X89782694Y-67994302D01*
X89806035Y-67754102D01*
X89806308Y-67749665D01*
X89812788Y-67502233D01*
X89812746Y-67497762D01*
X89809634Y-67427885D01*
X94717000Y-67427885D01*
X94721475Y-67443124D01*
X94722865Y-67444329D01*
X94730548Y-67446000D01*
X95352885Y-67446000D01*
X95368124Y-67441525D01*
X95369329Y-67440135D01*
X95371000Y-67432452D01*
X95371000Y-66593818D01*
X95367027Y-66580287D01*
X95356532Y-66578778D01*
X95349325Y-66580310D01*
X95336839Y-66584367D01*
X95174529Y-66656632D01*
X95163157Y-66663198D01*
X95019426Y-66767624D01*
X95009663Y-66776415D01*
X94890786Y-66908442D01*
X94883062Y-66919073D01*
X94794235Y-67072926D01*
X94788889Y-67084934D01*
X94733989Y-67253898D01*
X94731259Y-67266739D01*
X94717344Y-67399138D01*
X94717000Y-67405698D01*
X94717000Y-67427885D01*
X89809634Y-67427885D01*
X89793917Y-67074973D01*
X89793419Y-67069386D01*
X89737155Y-66650499D01*
X89736162Y-66644976D01*
X89642883Y-66232748D01*
X89641410Y-66227361D01*
X89511847Y-65825025D01*
X89509910Y-65819815D01*
X89345098Y-65430599D01*
X89342683Y-65425536D01*
X89143936Y-65052535D01*
X89141085Y-65047713D01*
X88909974Y-64693865D01*
X88906692Y-64689297D01*
X88757462Y-64500000D01*
X110586496Y-64500000D01*
X110587186Y-64506565D01*
X110596215Y-64592467D01*
X110606458Y-64689928D01*
X110665473Y-64871556D01*
X110760960Y-65036944D01*
X110888747Y-65178866D01*
X111043248Y-65291118D01*
X111049276Y-65293802D01*
X111049278Y-65293803D01*
X111211681Y-65366109D01*
X111217712Y-65368794D01*
X111299116Y-65386097D01*
X111398056Y-65407128D01*
X111398061Y-65407128D01*
X111404513Y-65408500D01*
X111595487Y-65408500D01*
X111601939Y-65407128D01*
X111601944Y-65407128D01*
X111700884Y-65386097D01*
X111782288Y-65368794D01*
X111788319Y-65366109D01*
X111950722Y-65293803D01*
X111950724Y-65293802D01*
X111956752Y-65291118D01*
X112111253Y-65178866D01*
X112239040Y-65036944D01*
X112334527Y-64871556D01*
X112393542Y-64689928D01*
X112403786Y-64592467D01*
X112412814Y-64506565D01*
X112413504Y-64500000D01*
X112393542Y-64310072D01*
X112334527Y-64128444D01*
X112239040Y-63963056D01*
X112213715Y-63934929D01*
X112115675Y-63826045D01*
X112115674Y-63826044D01*
X112111253Y-63821134D01*
X111956752Y-63708882D01*
X111950724Y-63706198D01*
X111950722Y-63706197D01*
X111788319Y-63633891D01*
X111788318Y-63633891D01*
X111782288Y-63631206D01*
X111688888Y-63611353D01*
X111601944Y-63592872D01*
X111601939Y-63592872D01*
X111595487Y-63591500D01*
X111404513Y-63591500D01*
X111398061Y-63592872D01*
X111398056Y-63592872D01*
X111311112Y-63611353D01*
X111217712Y-63631206D01*
X111211682Y-63633891D01*
X111211681Y-63633891D01*
X111049278Y-63706197D01*
X111049276Y-63706198D01*
X111043248Y-63708882D01*
X110888747Y-63821134D01*
X110884326Y-63826044D01*
X110884325Y-63826045D01*
X110786286Y-63934929D01*
X110760960Y-63963056D01*
X110665473Y-64128444D01*
X110606458Y-64310072D01*
X110586496Y-64500000D01*
X88757462Y-64500000D01*
X88645030Y-64357380D01*
X88641382Y-64353155D01*
X88588103Y-64296715D01*
X88574389Y-64288705D01*
X88573517Y-64288742D01*
X88565438Y-64293772D01*
X88165717Y-64693493D01*
X87280419Y-65578790D01*
X86754332Y-66104878D01*
X85372022Y-67487188D01*
X85364408Y-67501132D01*
X84634356Y-67501132D01*
X84635592Y-67498868D01*
X84635461Y-67497035D01*
X84631210Y-67490420D01*
X83245669Y-66104879D01*
X82360372Y-65219581D01*
X81834284Y-64693494D01*
X81435561Y-64294771D01*
X81422253Y-64287504D01*
X81412214Y-64294626D01*
X81168223Y-64587994D01*
X81164828Y-64592467D01*
X80924528Y-64940152D01*
X80921549Y-64944902D01*
X80713106Y-65312575D01*
X80710562Y-65317568D01*
X80535629Y-65702312D01*
X80533538Y-65707511D01*
X80393498Y-66106290D01*
X80391877Y-66111659D01*
X80287840Y-66521303D01*
X80286706Y-66526776D01*
X80219496Y-66944054D01*
X80218851Y-66949632D01*
X80189002Y-67371204D01*
X80188855Y-67376825D01*
X79547905Y-67376825D01*
X79571130Y-67190499D01*
X79582260Y-67101215D01*
X79583973Y-67090947D01*
X79587323Y-67074973D01*
X79610686Y-66963550D01*
X79674984Y-66656899D01*
X79677540Y-66646804D01*
X79804086Y-66221740D01*
X79807468Y-66211890D01*
X79954624Y-65834763D01*
X79968681Y-65798739D01*
X79972860Y-65789210D01*
X79994147Y-65745668D01*
X80167642Y-65390777D01*
X80172597Y-65381621D01*
X80228838Y-65287237D01*
X80399611Y-65000641D01*
X80405307Y-64991922D01*
X80663010Y-64630988D01*
X80669406Y-64622770D01*
X80956045Y-64284335D01*
X80963099Y-64276674D01*
X81276674Y-63963099D01*
X81284335Y-63956045D01*
X81622770Y-63669406D01*
X81630988Y-63663010D01*
X81991922Y-63405307D01*
X82000641Y-63399611D01*
X82229897Y-63263005D01*
X82298655Y-63245318D01*
X82366060Y-63267612D01*
X82410712Y-63322810D01*
X82418434Y-63393385D01*
X82386774Y-63456932D01*
X82366574Y-63474522D01*
X82072430Y-63680101D01*
X82067979Y-63683517D01*
X81796476Y-63911739D01*
X81788031Y-63924456D01*
X81794139Y-63934929D01*
X82193493Y-64334283D01*
X82719580Y-64860371D01*
X83604878Y-65745668D01*
X84987188Y-67127978D01*
X85001132Y-67135592D01*
X85002965Y-67135461D01*
X85009580Y-67131210D01*
X86395121Y-65745669D01*
X87280419Y-64860372D01*
X87806506Y-64334284D01*
X88202754Y-63938036D01*
X88210316Y-63924187D01*
X88203987Y-63914962D01*
X88030928Y-63761582D01*
X88026561Y-63758046D01*
X87686600Y-63506948D01*
X87681947Y-63503821D01*
X87320995Y-63283926D01*
X87316094Y-63281232D01*
X86937027Y-63094297D01*
X86931904Y-63092048D01*
X86537707Y-62939545D01*
X86532417Y-62937765D01*
X86126218Y-62820904D01*
X86120794Y-62819602D01*
X85800872Y-62757706D01*
X85737791Y-62725129D01*
X85702337Y-62663618D01*
X85705765Y-62592705D01*
X85746989Y-62534902D01*
X85812918Y-62508562D01*
X85824806Y-62508000D01*
X129683155Y-62508000D01*
X129751276Y-62528002D01*
G37*
%TD.AperFunction*%
%TA.AperFunction,Conductor*%
G36*
X132298365Y-109955257D02*
G01*
X132343428Y-109984217D01*
X132780419Y-110421209D01*
X133576622Y-111217411D01*
X133610647Y-111279723D01*
X133605582Y-111350539D01*
X133576622Y-111395601D01*
X133486112Y-111486112D01*
X133486111Y-111486113D01*
X133395601Y-111576622D01*
X133333289Y-111610647D01*
X133262473Y-111605581D01*
X133217410Y-111576621D01*
X132421209Y-110780419D01*
X131984216Y-110343427D01*
X131950191Y-110281115D01*
X131955256Y-110210299D01*
X131984216Y-110165237D01*
X132074726Y-110074726D01*
X132074727Y-110074725D01*
X132165237Y-109984216D01*
X132227549Y-109950191D01*
X132298365Y-109955257D01*
G37*
%TD.AperFunction*%
%TA.AperFunction,Conductor*%
G36*
X133350539Y-64394418D02*
G01*
X133395601Y-64423378D01*
X133486112Y-64513888D01*
X133486113Y-64513889D01*
X133576622Y-64604399D01*
X133610647Y-64666711D01*
X133605581Y-64737527D01*
X133576621Y-64782590D01*
X132780419Y-65578791D01*
X132343427Y-66015784D01*
X132281115Y-66049809D01*
X132210299Y-66044744D01*
X132165237Y-66015784D01*
X132074726Y-65925274D01*
X132074725Y-65925273D01*
X131984216Y-65834763D01*
X131950191Y-65772451D01*
X131955257Y-65701635D01*
X131984217Y-65656572D01*
X132780419Y-64860371D01*
X133217411Y-64423378D01*
X133279723Y-64389353D01*
X133350539Y-64394418D01*
G37*
%TD.AperFunction*%
%TD*%
M02*
