%TF.GenerationSoftware,KiCad,Pcbnew,(6.0.1)*%
%TF.CreationDate,2022-05-20T16:10:24+03:00*%
%TF.ProjectId,STM32_based_project,53544d33-325f-4626-9173-65645f70726f,rev?*%
%TF.SameCoordinates,Original*%
%TF.FileFunction,Soldermask,Bot*%
%TF.FilePolarity,Negative*%
%FSLAX46Y46*%
G04 Gerber Fmt 4.6, Leading zero omitted, Abs format (unit mm)*
G04 Created by KiCad (PCBNEW (6.0.1)) date 2022-05-20 16:10:24*
%MOMM*%
%LPD*%
G01*
G04 APERTURE LIST*
G04 Aperture macros list*
%AMRoundRect*
0 Rectangle with rounded corners*
0 $1 Rounding radius*
0 $2 $3 $4 $5 $6 $7 $8 $9 X,Y pos of 4 corners*
0 Add a 4 corners polygon primitive as box body*
4,1,4,$2,$3,$4,$5,$6,$7,$8,$9,$2,$3,0*
0 Add four circle primitives for the rounded corners*
1,1,$1+$1,$2,$3*
1,1,$1+$1,$4,$5*
1,1,$1+$1,$6,$7*
1,1,$1+$1,$8,$9*
0 Add four rect primitives between the rounded corners*
20,1,$1+$1,$2,$3,$4,$5,0*
20,1,$1+$1,$4,$5,$6,$7,0*
20,1,$1+$1,$6,$7,$8,$9,0*
20,1,$1+$1,$8,$9,$2,$3,0*%
G04 Aperture macros list end*
%ADD10C,0.900000*%
%ADD11C,8.600000*%
%ADD12RoundRect,0.200000X0.200000X0.450000X-0.200000X0.450000X-0.200000X-0.450000X0.200000X-0.450000X0*%
%ADD13O,0.800000X1.300000*%
%ADD14R,2.400000X2.400000*%
%ADD15C,2.400000*%
%ADD16RoundRect,0.200000X-0.200000X-0.450000X0.200000X-0.450000X0.200000X0.450000X-0.200000X0.450000X0*%
G04 APERTURE END LIST*
D10*
%TO.C,H2*%
X132780419Y-69780419D03*
X133725000Y-67500000D03*
X128219581Y-69780419D03*
D11*
X130500000Y-67500000D03*
D10*
X130500000Y-70725000D03*
X132780419Y-65219581D03*
X128219581Y-65219581D03*
X127275000Y-67500000D03*
X130500000Y-64275000D03*
%TD*%
D11*
%TO.C,H3*%
X85000000Y-67500000D03*
D10*
X82719581Y-65219581D03*
X85000000Y-70725000D03*
X87280419Y-65219581D03*
X81775000Y-67500000D03*
X88225000Y-67500000D03*
X87280419Y-69780419D03*
X82719581Y-69780419D03*
X85000000Y-64275000D03*
%TD*%
%TO.C,SW1*%
X81670000Y-80500000D03*
X81670000Y-77500000D03*
%TD*%
%TO.C,H1*%
X82719581Y-110280419D03*
X87280419Y-110280419D03*
X85000000Y-104775000D03*
X81775000Y-108000000D03*
D11*
X85000000Y-108000000D03*
D10*
X87280419Y-105719581D03*
X82719581Y-105719581D03*
X85000000Y-111225000D03*
X88225000Y-108000000D03*
%TD*%
D11*
%TO.C,H4*%
X130500000Y-108500000D03*
D10*
X132780419Y-110780419D03*
X130500000Y-105275000D03*
X128219581Y-106219581D03*
X130500000Y-111725000D03*
X133725000Y-108500000D03*
X128219581Y-110780419D03*
X132780419Y-106219581D03*
X127275000Y-108500000D03*
%TD*%
D12*
%TO.C,J4*%
X99375000Y-67700000D03*
D13*
X98125000Y-67700000D03*
X96875000Y-67700000D03*
X95625000Y-67700000D03*
%TD*%
D14*
%TO.C,J1*%
X130800000Y-92750000D03*
D15*
X130800000Y-89250000D03*
%TD*%
D16*
%TO.C,J3*%
X95625000Y-108000000D03*
D13*
X96875000Y-108000000D03*
X98125000Y-108000000D03*
X99375000Y-108000000D03*
%TD*%
M02*
