M48
; DRILL file {KiCad (6.0.1)} date Fri May 20 16:10:11 2022
; FORMAT={-:-/ absolute / inch / decimal}
; #@! TF.CreationDate,2022-05-20T16:10:11+03:00
; #@! TF.GenerationSoftware,Kicad,Pcbnew,(6.0.1)
; #@! TF.FileFunction,Plated,1,4,PTH
FMAT,2
INCH
; #@! TA.AperFunction,Plated,PTH,ViaDrill
T1C0.0157
; #@! TA.AperFunction,Plated,PTH,ComponentDrill
T2C0.0197
; #@! TA.AperFunction,Plated,PTH,ComponentDrill
T3C0.0236
; #@! TA.AperFunction,Plated,PTH,ComponentDrill
T4C0.0472
; #@! TA.AperFunction,Plated,PTH,ComponentDrill
T5C0.1693
%
G90
G05
T1
X3.3071Y-3.622
X3.3366Y-3.0217
X3.3366Y-3.1988
X3.3465Y-3.7008
X3.4449Y-3.4547
X3.4449Y-3.75
X3.4449Y-3.8091
X3.4744Y-3.5236
X3.5039Y-3.6516
X3.5138Y-3.3071
X3.5433Y-3.4173
X3.5433Y-3.5138
X3.5433Y-3.6516
X3.5433Y-3.8287
X3.6122Y-3.2677
X3.6811Y-3.2776
X3.6909Y-3.937
X3.75Y-3.189
X3.75Y-3.3071
X3.7894Y-3.937
X3.9567Y-3.189
X3.9665Y-3.4744
X3.9961Y-3.1594
X4.0551Y-3.8878
X4.0846Y-3.4055
X4.124Y-3.937
X4.1339Y-3.3366
X4.1437Y-3.8583
X4.1732Y-3.3563
X4.1929Y-2.5394
X4.2224Y-3.9469
X4.2224Y-3.9862
X4.2717Y-4.0945
X4.2717Y-4.2126
X4.2913Y-2.5394
X4.3406Y-2.5394
X4.3602Y-3.9469
X4.3602Y-3.9862
X4.3602Y-4.0945
X4.3602Y-4.2126
X4.3898Y-2.5394
X4.4685Y-4.065
X4.4685Y-4.1142
X4.4685Y-4.1732
X4.4685Y-4.2421
X4.4882Y-3.6024
X4.4882Y-3.6417
X4.6062Y-3.9172
X4.6063Y-3.7874
X4.6063Y-3.878
X4.6161Y-2.6772
X4.6161Y-2.7559
X4.685Y-3.6024
X4.7244Y-3.8878
X4.7638Y-3.6024
X4.7638Y-3.9272
X4.8819Y-3.376
X4.8819Y-3.4744
X4.8819Y-3.6319
X4.9213Y-3.6713
X4.9213Y-3.7894
X4.9606Y-3.002
X4.9606Y-3.8287
X5.0686Y-3.031
X5.0689Y-2.9921
X5.1083Y-2.9921
X5.1083Y-3.0315
T2
X3.7648Y-2.6654
X3.7648Y-4.252
X3.814Y-2.6654
X3.814Y-4.252
X3.8632Y-2.6654
X3.8632Y-4.252
X3.9124Y-2.6654
X3.9124Y-4.252
T3
X3.2195Y-2.6575
X3.2195Y-4.252
X3.2567Y-2.5677
X3.2567Y-2.7473
X3.2567Y-4.1622
X3.2567Y-4.3417
X3.3465Y-2.5305
X3.3465Y-2.7844
X3.3465Y-4.125
X3.3465Y-4.3789
X3.4362Y-2.5677
X3.4362Y-2.7473
X3.4362Y-4.1622
X3.4362Y-4.3417
X3.4734Y-2.6575
X3.4734Y-4.252
X5.0108Y-2.6575
X5.0108Y-4.2717
X5.048Y-2.5677
X5.048Y-2.7473
X5.048Y-4.1819
X5.048Y-4.3614
X5.1378Y-2.5305
X5.1378Y-2.7844
X5.1378Y-4.1447
X5.1378Y-4.3986
X5.2276Y-2.5677
X5.2276Y-2.7473
X5.2276Y-4.1819
X5.2276Y-4.3614
X5.2648Y-2.6575
X5.2648Y-4.2717
T4
X5.1496Y-3.5138
X5.1496Y-3.6516
T5
X3.3465Y-2.6575
X3.3465Y-4.252
X5.1378Y-2.6575
X5.1378Y-4.2717
T0
M30
