%TF.GenerationSoftware,KiCad,Pcbnew,(6.0.1)*%
%TF.CreationDate,2022-05-20T16:10:24+03:00*%
%TF.ProjectId,STM32_based_project,53544d33-325f-4626-9173-65645f70726f,rev?*%
%TF.SameCoordinates,Original*%
%TF.FileFunction,Paste,Top*%
%TF.FilePolarity,Positive*%
%FSLAX46Y46*%
G04 Gerber Fmt 4.6, Leading zero omitted, Abs format (unit mm)*
G04 Created by KiCad (PCBNEW (6.0.1)) date 2022-05-20 16:10:24*
%MOMM*%
%LPD*%
G01*
G04 APERTURE LIST*
G04 Aperture macros list*
%AMRoundRect*
0 Rectangle with rounded corners*
0 $1 Rounding radius*
0 $2 $3 $4 $5 $6 $7 $8 $9 X,Y pos of 4 corners*
0 Add a 4 corners polygon primitive as box body*
4,1,4,$2,$3,$4,$5,$6,$7,$8,$9,$2,$3,0*
0 Add four circle primitives for the rounded corners*
1,1,$1+$1,$2,$3*
1,1,$1+$1,$4,$5*
1,1,$1+$1,$6,$7*
1,1,$1+$1,$8,$9*
0 Add four rect primitives between the rounded corners*
20,1,$1+$1,$2,$3,$4,$5,0*
20,1,$1+$1,$4,$5,$6,$7,0*
20,1,$1+$1,$6,$7,$8,$9,0*
20,1,$1+$1,$8,$9,$2,$3,0*%
G04 Aperture macros list end*
%ADD10RoundRect,0.140000X0.140000X0.170000X-0.140000X0.170000X-0.140000X-0.170000X0.140000X-0.170000X0*%
%ADD11RoundRect,0.200000X-0.275000X0.200000X-0.275000X-0.200000X0.275000X-0.200000X0.275000X0.200000X0*%
%ADD12R,0.800000X1.000000*%
%ADD13R,1.500000X0.700000*%
%ADD14RoundRect,0.218750X0.256250X-0.218750X0.256250X0.218750X-0.256250X0.218750X-0.256250X-0.218750X0*%
%ADD15RoundRect,0.218750X-0.381250X0.218750X-0.381250X-0.218750X0.381250X-0.218750X0.381250X0.218750X0*%
%ADD16RoundRect,0.140000X0.170000X-0.140000X0.170000X0.140000X-0.170000X0.140000X-0.170000X-0.140000X0*%
%ADD17RoundRect,0.135000X-0.135000X-0.185000X0.135000X-0.185000X0.135000X0.185000X-0.135000X0.185000X0*%
%ADD18RoundRect,0.135000X0.135000X0.185000X-0.135000X0.185000X-0.135000X-0.185000X0.135000X-0.185000X0*%
%ADD19RoundRect,0.150000X0.150000X-0.512500X0.150000X0.512500X-0.150000X0.512500X-0.150000X-0.512500X0*%
%ADD20RoundRect,0.200000X0.275000X-0.200000X0.275000X0.200000X-0.275000X0.200000X-0.275000X-0.200000X0*%
%ADD21RoundRect,0.218750X0.218750X0.256250X-0.218750X0.256250X-0.218750X-0.256250X0.218750X-0.256250X0*%
%ADD22RoundRect,0.225000X0.250000X-0.225000X0.250000X0.225000X-0.250000X0.225000X-0.250000X-0.225000X0*%
%ADD23R,2.400000X1.500000*%
%ADD24RoundRect,0.225000X-0.225000X-0.250000X0.225000X-0.250000X0.225000X0.250000X-0.225000X0.250000X0*%
%ADD25RoundRect,0.147500X-0.147500X-0.172500X0.147500X-0.172500X0.147500X0.172500X-0.147500X0.172500X0*%
%ADD26RoundRect,0.150000X0.512500X0.150000X-0.512500X0.150000X-0.512500X-0.150000X0.512500X-0.150000X0*%
%ADD27RoundRect,0.250000X0.375000X0.625000X-0.375000X0.625000X-0.375000X-0.625000X0.375000X-0.625000X0*%
%ADD28R,0.900000X1.200000*%
%ADD29R,0.740000X2.400000*%
%ADD30RoundRect,0.150000X-0.150000X0.587500X-0.150000X-0.587500X0.150000X-0.587500X0.150000X0.587500X0*%
%ADD31RoundRect,0.140000X-0.140000X-0.170000X0.140000X-0.170000X0.140000X0.170000X-0.140000X0.170000X0*%
%ADD32RoundRect,0.250000X0.325000X0.650000X-0.325000X0.650000X-0.325000X-0.650000X0.325000X-0.650000X0*%
%ADD33R,1.380000X0.450000*%
%ADD34R,1.900000X1.000000*%
%ADD35R,1.900000X1.800000*%
%ADD36R,1.300000X1.650000*%
%ADD37R,1.550000X1.425000*%
%ADD38RoundRect,0.200000X-0.200000X-0.275000X0.200000X-0.275000X0.200000X0.275000X-0.200000X0.275000X0*%
%ADD39RoundRect,0.225000X0.225000X0.250000X-0.225000X0.250000X-0.225000X-0.250000X0.225000X-0.250000X0*%
%ADD40R,1.200000X1.400000*%
%ADD41RoundRect,0.250000X-0.325000X-0.650000X0.325000X-0.650000X0.325000X0.650000X-0.325000X0.650000X0*%
%ADD42RoundRect,0.075000X-0.700000X-0.075000X0.700000X-0.075000X0.700000X0.075000X-0.700000X0.075000X0*%
%ADD43RoundRect,0.075000X-0.075000X-0.700000X0.075000X-0.700000X0.075000X0.700000X-0.075000X0.700000X0*%
G04 APERTURE END LIST*
D10*
%TO.C,C7*%
X95480000Y-100000000D03*
X94520000Y-100000000D03*
%TD*%
D11*
%TO.C,R9*%
X90000000Y-98175000D03*
X90000000Y-99825000D03*
%TD*%
D12*
%TO.C,SW1*%
X80570000Y-82650000D03*
X80570000Y-75350000D03*
X82780000Y-82650000D03*
X82780000Y-75350000D03*
D13*
X83430000Y-76750000D03*
X83430000Y-79750000D03*
X83430000Y-81250000D03*
%TD*%
D14*
%TO.C,D3*%
X92000000Y-99787500D03*
X92000000Y-98212500D03*
%TD*%
D15*
%TO.C,FB1*%
X117000000Y-86937500D03*
X117000000Y-89062500D03*
%TD*%
D16*
%TO.C,C11*%
X89000000Y-94480000D03*
X89000000Y-93520000D03*
%TD*%
%TO.C,C6*%
X90000000Y-88480000D03*
X90000000Y-87520000D03*
%TD*%
D17*
%TO.C,R8*%
X89490000Y-91000000D03*
X90510000Y-91000000D03*
%TD*%
D18*
%TO.C,R11*%
X97015000Y-80995000D03*
X95995000Y-80995000D03*
%TD*%
D19*
%TO.C,U1*%
X116050000Y-97200000D03*
X117000000Y-97200000D03*
X117950000Y-97200000D03*
X117950000Y-94925000D03*
X117000000Y-94925000D03*
X116050000Y-94925000D03*
%TD*%
D20*
%TO.C,R1*%
X122000000Y-94825000D03*
X122000000Y-93175000D03*
%TD*%
D21*
%TO.C,D4*%
X119787500Y-68000000D03*
X118212500Y-68000000D03*
%TD*%
D11*
%TO.C,R3*%
X121000000Y-97175000D03*
X121000000Y-98825000D03*
%TD*%
D10*
%TO.C,C16*%
X86630000Y-93900000D03*
X85670000Y-93900000D03*
%TD*%
D22*
%TO.C,C4*%
X114000000Y-96775000D03*
X114000000Y-95225000D03*
%TD*%
%TO.C,C14*%
X106000000Y-87775000D03*
X106000000Y-86225000D03*
%TD*%
D20*
%TO.C,R4*%
X123175000Y-98825000D03*
X123175000Y-97175000D03*
%TD*%
D23*
%TO.C,L1*%
X109000000Y-95312500D03*
X109000000Y-100812500D03*
%TD*%
D24*
%TO.C,C13*%
X102225000Y-100000000D03*
X103775000Y-100000000D03*
%TD*%
D25*
%TO.C,L2*%
X87515000Y-96000000D03*
X88485000Y-96000000D03*
%TD*%
D26*
%TO.C,U3*%
X127137500Y-79450000D03*
X127137500Y-78500000D03*
X127137500Y-77550000D03*
X124862500Y-77550000D03*
X124862500Y-78500000D03*
X124862500Y-79450000D03*
%TD*%
D27*
%TO.C,F1*%
X119400000Y-84000000D03*
X116600000Y-84000000D03*
%TD*%
D28*
%TO.C,D2*%
X109825000Y-92000000D03*
X113125000Y-92000000D03*
%TD*%
D29*
%TO.C,J2*%
X111540000Y-66300000D03*
X111540000Y-70200000D03*
X110270000Y-66300000D03*
X110270000Y-70200000D03*
X109000000Y-66300000D03*
X109000000Y-70200000D03*
X107730000Y-66300000D03*
X107730000Y-70200000D03*
X106460000Y-66300000D03*
X106460000Y-70200000D03*
%TD*%
D30*
%TO.C,Q1*%
X123950000Y-87062500D03*
X122050000Y-87062500D03*
X123000000Y-88937500D03*
%TD*%
D31*
%TO.C,C8*%
X103520000Y-98000000D03*
X104480000Y-98000000D03*
%TD*%
D11*
%TO.C,R2*%
X124000000Y-93175000D03*
X124000000Y-94825000D03*
%TD*%
D31*
%TO.C,C10*%
X93520000Y-84000000D03*
X94480000Y-84000000D03*
%TD*%
D28*
%TO.C,D1*%
X122350000Y-84000000D03*
X125650000Y-84000000D03*
%TD*%
D32*
%TO.C,C3*%
X112475000Y-107000000D03*
X109525000Y-107000000D03*
%TD*%
D16*
%TO.C,C12*%
X90000000Y-94480000D03*
X90000000Y-93520000D03*
%TD*%
D18*
%TO.C,R7*%
X87510000Y-80000000D03*
X86490000Y-80000000D03*
%TD*%
D33*
%TO.C,J5*%
X131240000Y-79475000D03*
X131240000Y-78825000D03*
X131240000Y-78175000D03*
X131240000Y-77525000D03*
X131240000Y-76875000D03*
D34*
X133900000Y-76625000D03*
D35*
X133900000Y-79325000D03*
D36*
X133900000Y-74800000D03*
D37*
X131325000Y-80662500D03*
X131325000Y-75687500D03*
D36*
X133900000Y-81550000D03*
%TD*%
D16*
%TO.C,C9*%
X104500000Y-86480000D03*
X104500000Y-85520000D03*
%TD*%
D32*
%TO.C,C2*%
X112475000Y-104000000D03*
X109525000Y-104000000D03*
%TD*%
D38*
%TO.C,R6*%
X118175000Y-70000000D03*
X119825000Y-70000000D03*
%TD*%
D31*
%TO.C,C15*%
X85670000Y-87900000D03*
X86630000Y-87900000D03*
%TD*%
D39*
%TO.C,C5*%
X91775000Y-84000000D03*
X90225000Y-84000000D03*
%TD*%
D17*
%TO.C,R10*%
X98495000Y-80995000D03*
X99515000Y-80995000D03*
%TD*%
D11*
%TO.C,R5*%
X125000000Y-97175000D03*
X125000000Y-98825000D03*
%TD*%
D40*
%TO.C,Y1*%
X85300000Y-89800000D03*
X85300000Y-92000000D03*
X87000000Y-92000000D03*
X87000000Y-89800000D03*
%TD*%
D41*
%TO.C,C1*%
X117025000Y-91500000D03*
X119975000Y-91500000D03*
%TD*%
D42*
%TO.C,U2*%
X92325000Y-88250000D03*
X92325000Y-88750000D03*
X92325000Y-89250000D03*
X92325000Y-89750000D03*
X92325000Y-90250000D03*
X92325000Y-90750000D03*
X92325000Y-91250000D03*
X92325000Y-91750000D03*
X92325000Y-92250000D03*
X92325000Y-92750000D03*
X92325000Y-93250000D03*
X92325000Y-93750000D03*
X92325000Y-94250000D03*
X92325000Y-94750000D03*
X92325000Y-95250000D03*
X92325000Y-95750000D03*
D43*
X94250000Y-97675000D03*
X94750000Y-97675000D03*
X95250000Y-97675000D03*
X95750000Y-97675000D03*
X96250000Y-97675000D03*
X96750000Y-97675000D03*
X97250000Y-97675000D03*
X97750000Y-97675000D03*
X98250000Y-97675000D03*
X98750000Y-97675000D03*
X99250000Y-97675000D03*
X99750000Y-97675000D03*
X100250000Y-97675000D03*
X100750000Y-97675000D03*
X101250000Y-97675000D03*
X101750000Y-97675000D03*
D42*
X103675000Y-95750000D03*
X103675000Y-95250000D03*
X103675000Y-94750000D03*
X103675000Y-94250000D03*
X103675000Y-93750000D03*
X103675000Y-93250000D03*
X103675000Y-92750000D03*
X103675000Y-92250000D03*
X103675000Y-91750000D03*
X103675000Y-91250000D03*
X103675000Y-90750000D03*
X103675000Y-90250000D03*
X103675000Y-89750000D03*
X103675000Y-89250000D03*
X103675000Y-88750000D03*
X103675000Y-88250000D03*
D43*
X101750000Y-86325000D03*
X101250000Y-86325000D03*
X100750000Y-86325000D03*
X100250000Y-86325000D03*
X99750000Y-86325000D03*
X99250000Y-86325000D03*
X98750000Y-86325000D03*
X98250000Y-86325000D03*
X97750000Y-86325000D03*
X97250000Y-86325000D03*
X96750000Y-86325000D03*
X96250000Y-86325000D03*
X95750000Y-86325000D03*
X95250000Y-86325000D03*
X94750000Y-86325000D03*
X94250000Y-86325000D03*
%TD*%
M02*
