%TF.GenerationSoftware,KiCad,Pcbnew,(6.0.1)*%
%TF.CreationDate,2022-05-20T16:10:24+03:00*%
%TF.ProjectId,STM32_based_project,53544d33-325f-4626-9173-65645f70726f,rev?*%
%TF.SameCoordinates,Original*%
%TF.FileFunction,Copper,L4,Bot*%
%TF.FilePolarity,Positive*%
%FSLAX46Y46*%
G04 Gerber Fmt 4.6, Leading zero omitted, Abs format (unit mm)*
G04 Created by KiCad (PCBNEW (6.0.1)) date 2022-05-20 16:10:24*
%MOMM*%
%LPD*%
G01*
G04 APERTURE LIST*
G04 Aperture macros list*
%AMRoundRect*
0 Rectangle with rounded corners*
0 $1 Rounding radius*
0 $2 $3 $4 $5 $6 $7 $8 $9 X,Y pos of 4 corners*
0 Add a 4 corners polygon primitive as box body*
4,1,4,$2,$3,$4,$5,$6,$7,$8,$9,$2,$3,0*
0 Add four circle primitives for the rounded corners*
1,1,$1+$1,$2,$3*
1,1,$1+$1,$4,$5*
1,1,$1+$1,$6,$7*
1,1,$1+$1,$8,$9*
0 Add four rect primitives between the rounded corners*
20,1,$1+$1,$2,$3,$4,$5,0*
20,1,$1+$1,$4,$5,$6,$7,0*
20,1,$1+$1,$6,$7,$8,$9,0*
20,1,$1+$1,$8,$9,$2,$3,0*%
G04 Aperture macros list end*
%TA.AperFunction,ComponentPad*%
%ADD10C,0.900000*%
%TD*%
%TA.AperFunction,ComponentPad*%
%ADD11C,8.600000*%
%TD*%
%TA.AperFunction,ComponentPad*%
%ADD12RoundRect,0.200000X0.200000X0.450000X-0.200000X0.450000X-0.200000X-0.450000X0.200000X-0.450000X0*%
%TD*%
%TA.AperFunction,ComponentPad*%
%ADD13O,0.800000X1.300000*%
%TD*%
%TA.AperFunction,ComponentPad*%
%ADD14R,2.400000X2.400000*%
%TD*%
%TA.AperFunction,ComponentPad*%
%ADD15C,2.400000*%
%TD*%
%TA.AperFunction,ComponentPad*%
%ADD16RoundRect,0.200000X-0.200000X-0.450000X0.200000X-0.450000X0.200000X0.450000X-0.200000X0.450000X0*%
%TD*%
%TA.AperFunction,ViaPad*%
%ADD17C,0.800000*%
%TD*%
%TA.AperFunction,Conductor*%
%ADD18C,0.300000*%
%TD*%
G04 APERTURE END LIST*
D10*
%TO.P,H2,1,1*%
%TO.N,GND*%
X132780419Y-69780419D03*
X133725000Y-67500000D03*
X128219581Y-69780419D03*
D11*
X130500000Y-67500000D03*
D10*
X130500000Y-70725000D03*
X132780419Y-65219581D03*
X128219581Y-65219581D03*
X127275000Y-67500000D03*
X130500000Y-64275000D03*
%TD*%
D11*
%TO.P,H3,1,1*%
%TO.N,GND*%
X85000000Y-67500000D03*
D10*
X82719581Y-65219581D03*
X85000000Y-70725000D03*
X87280419Y-65219581D03*
X81775000Y-67500000D03*
X88225000Y-67500000D03*
X87280419Y-69780419D03*
X82719581Y-69780419D03*
X85000000Y-64275000D03*
%TD*%
%TO.P,H1,1,1*%
%TO.N,GND*%
X82719581Y-110280419D03*
X87280419Y-110280419D03*
X85000000Y-104775000D03*
X81775000Y-108000000D03*
D11*
X85000000Y-108000000D03*
D10*
X87280419Y-105719581D03*
X82719581Y-105719581D03*
X85000000Y-111225000D03*
X88225000Y-108000000D03*
%TD*%
D11*
%TO.P,H4,1,1*%
%TO.N,GND*%
X130500000Y-108500000D03*
D10*
X132780419Y-110780419D03*
X130500000Y-105275000D03*
X128219581Y-106219581D03*
X130500000Y-111725000D03*
X133725000Y-108500000D03*
X128219581Y-110780419D03*
X132780419Y-106219581D03*
X127275000Y-108500000D03*
%TD*%
D12*
%TO.P,J4,1,Pin_1*%
%TO.N,+3V3*%
X99375000Y-67700000D03*
D13*
%TO.P,J4,2,Pin_2*%
%TO.N,I2C1_SCL*%
X98125000Y-67700000D03*
%TO.P,J4,3,Pin_3*%
%TO.N,I2C1_SDA*%
X96875000Y-67700000D03*
%TO.P,J4,4,Pin_4*%
%TO.N,GND*%
X95625000Y-67700000D03*
%TD*%
D14*
%TO.P,J1,1,Pin_1*%
%TO.N,+12V*%
X130800000Y-92750000D03*
D15*
%TO.P,J1,2,Pin_2*%
%TO.N,GND*%
X130800000Y-89250000D03*
%TD*%
D16*
%TO.P,J3,1,Pin_1*%
%TO.N,+3V3*%
X95625000Y-108000000D03*
D13*
%TO.P,J3,2,Pin_2*%
%TO.N,UART3_TX*%
X96875000Y-108000000D03*
%TO.P,J3,3,Pin_3*%
%TO.N,UART3_RX*%
X98125000Y-108000000D03*
%TO.P,J3,4,Pin_4*%
%TO.N,GND*%
X99375000Y-108000000D03*
%TD*%
D17*
%TO.N,GND*%
X114000000Y-92500000D03*
X113500000Y-104500000D03*
X129750000Y-76000000D03*
X113500000Y-103250000D03*
X104750000Y-100000000D03*
X84000000Y-92000000D03*
X124000000Y-92250000D03*
X93750000Y-100000000D03*
X90000000Y-86800000D03*
X121000000Y-91500000D03*
X106000000Y-85250000D03*
X128742714Y-76988615D03*
X89000000Y-92750000D03*
X114000000Y-91500000D03*
X90000000Y-92750000D03*
X113500000Y-107750000D03*
X124000000Y-85750000D03*
X84750000Y-81250000D03*
X129750000Y-77000000D03*
X126000000Y-97250000D03*
X110250000Y-64500000D03*
X128750000Y-76000000D03*
X119000000Y-91500000D03*
X109000000Y-64500000D03*
X125000000Y-96250000D03*
X126000000Y-76250000D03*
X124000000Y-88250000D03*
X113500000Y-106000000D03*
X95250000Y-84000000D03*
X85000000Y-94000000D03*
X106500000Y-64500000D03*
X87500000Y-87750000D03*
X90000000Y-97250000D03*
X88250000Y-89500000D03*
X105250000Y-98000000D03*
X117250000Y-70000000D03*
X117000000Y-96200000D03*
X116996508Y-99496002D03*
X117000000Y-98500000D03*
X89250000Y-84000000D03*
X105000000Y-84750000D03*
X125000000Y-93250000D03*
%TO.N,+3V3*%
X95250000Y-81000000D03*
X110750000Y-107000000D03*
X107250000Y-100250000D03*
X117250000Y-68000000D03*
X108500000Y-107000000D03*
X110750000Y-104000000D03*
X91750000Y-83000000D03*
X103750000Y-86500000D03*
X87500000Y-96750000D03*
X107250000Y-101250000D03*
X93500000Y-83250000D03*
X120000000Y-98750000D03*
X111500000Y-64500000D03*
X110750000Y-100250000D03*
X96250000Y-100000000D03*
X108500000Y-104000000D03*
X87500000Y-95250000D03*
X110750000Y-101250000D03*
X103000000Y-98750000D03*
X84750000Y-76750000D03*
X90000000Y-89250000D03*
X100500000Y-81000000D03*
X121000000Y-99750000D03*
%TO.N,NRST*%
X101500000Y-80250000D03*
X100750000Y-88250000D03*
%TD*%
D18*
%TO.N,NRST*%
X100750000Y-88250000D02*
X101500000Y-87500000D01*
X101500000Y-87500000D02*
X101500000Y-80250000D01*
%TD*%
M02*
